{
.appVersion = "911";
copyright = "Copyright (c) 2011 The Cabin Project Authors (www.impallari.com impallari@gmail.com)";
customParameters = (
{
name = licenseURL;
value = "http://scripts.sil.org/OFL";
},
{
name = description;
value = "Copyright (c) 2011 by Pablo Impallari. www.impallari.com Copyright (c) 2011 by Igino Marini. www.ikern.com All rights reserved.";
},
{
name = trademark;
value = "Cabin is a trademark of Pablo Impallari. www.impallari.com Igino Marini. www.ikern.com.";
},
{
name = license;
value = "This Font Software is licensed under the SIL Open Font License, Version 1.1. This license is available with a FAQ at: http://scripts.sil.org/OFL";
},
{
name = panose;
value = (
2,
11,
8,
3,
5,
2,
2,
2,
0,
4
);
},
{
name = glyphOrder;
value = (
A,
A.sc,
AE,
AE.sc,
Aacute,
Acircumflex,
Adieresis,
Agrave,
Aring,
Atilde,
B,
B.sc,
C,
C.sc,
Ccedilla,
D,
D.sc,
E,
E.sc,
Eacute,
Ecircumflex,
Edieresis,
Egrave,
Eth,
Euro,
F,
F.sc,
G,
G.sc,
H,
H.sc,
I,
I.sc,
Iacute,
Icircumflex,
Idieresis,
Igrave,
J,
J.sc,
K,
K.sc,
L,
L.sc,
M,
M.sc,
N,
N.sc,
Ntilde,
O,
O.sc,
OE,
OE.sc,
Oacute,
Ocircumflex,
Odieresis,
Ograve,
Oslash,
Otilde,
P,
P.sc,
Q,
Q.sc,
R,
R.sc,
S,
S.sc,
Scaron,
T,
T.sc,
Thorn,
U,
U.sc,
Uacute,
Ucircumflex,
Udieresis,
Ugrave,
V,
V.sc,
W,
W.sc,
X,
X.sc,
Y,
Y.sc,
Yacute,
Ydieresis,
Z,
Z.sc,
Zcaron,
a,
aacute,
acircumflex,
acute,
adieresis,
ae,
agrave,
ampersand,
aring,
asciicircum,
asciitilde,
asterisk,
at,
atilde,
b,
backslash,
bar,
braceleft,
braceright,
bracketleft,
bracketright,
brokenbar,
bullet,
c,
caron,
ccedilla,
cedilla,
cent,
circumflex,
colon,
comma,
copyright,
currency,
d,
dagger,
daggerdbl,
degree,
dieresis,
divide,
dollar,
dotlessi,
dotlessj,
e,
eacute,
ecircumflex,
edieresis,
egrave,
eight,
eightinferior,
eightsuperior,
ellipsis,
emdash,
endash,
equal,
eth,
exclam,
exclamdown,
f,
five,
fiveinferior,
fivesuperior,
florin,
four,
fourinferior,
foursuperior,
g,
germandbls,
grave,
greater,
guillemotleft,
guillemotright,
guilsinglleft,
guilsinglright,
h,

glyphs = (
{
glyphname = A;
lastChange = "2016-08-23 12:44:07 +0000";
layers = (
{
layerId = UUID0;
paths = (
{
closed = 1;
nodes = (
"531 0 LINE",
"316 700 LINE",
"222 700 LINE",
"7 0 LINE",
"105 0 LINE",
"160 189 LINE",
"378 189 LINE",
"433 0 LINE"
);
},
{
closed = 1;
nodes = (
"347 275 LINE",
"191 275 LINE",
"269 567 LINE"
);
}
);
width = 539;
},
{
layerId = "3AF73D1F-32CE-4CF3-BC01-E4A23F7DE30A";
paths = (
{
closed = 1;
nodes = (
"538 0 LINE",
"324 700 LINE",
"212 700 LINE",
"-1 0 LINE",
"126 0 LINE",
"175 169 LINE",
"362 169 LINE",
"411 0 LINE"
);
},
{
closed = 1;
nodes = (
"319 293 LINE",
"218 293 LINE",
"268 498 LINE"
);
}
);
width = 536;
}
);
leftKerningGroup = A;
rightKerningGroup = A;
unicode = 0041;
},
{
glyphname = A.sc;
lastChange = "2016-08-23 12:44:07 +0000";
layers = (
{
layerId = UUID0;
paths = (
{
closed = 1;
nodes = (
"486 0 LINE",
"302 560 LINE",
"214 560 LINE",
"29 0 LINE",
"124 0 LINE",
"169 141 LINE",
"346 141 LINE",
"392 0 LINE"
);
},
{
closed = 1;
nodes = (
"315 229 LINE",
"200 229 LINE",
"257 418 LINE"
);
}
);
width = 515;
},
{
layerId = "3AF73D1F-32CE-4CF3-BC01-E4A23F7DE30A";
paths = (
{
closed = 1;
nodes = (
"508 0 LINE",
"318 581 LINE",
"212 581 LINE",
"23 0 LINE",
"144 0 LINE",
"186 131 LINE",
"345 131 LINE",
"388 0 LINE"
);
},
{
closed = 1;
nodes = (
"304 251 LINE",
"227 251 LINE",
"264 382 LINE"
);
}
);
width = 530;
}
);
},
{
glyphname = AE;
lastChange = "2016-08-23 12:44:07 +0000";
layers = (
{
layerId = UUID0;
paths = (
{
closed = 1;
nodes = (
"716 0 LINE",
"716 86 LINE",
"446 86 LINE",
"446 323 LINE",
"648 323 LINE",
"648 409 LINE",
"446 409 LINE",
"446 613 LINE",
"708 613 LINE",
"708 700 LINE",
"289 700 LINE",
"-5 0 LINE",
"89 0 LINE",
"165 180 LINE",
"341 180 LINE",
"341 0 LINE"
);
},
{
closed = 1;
nodes = (
"341 272 LINE",
"207 272 LINE",
"341 611 LINE"
);
}
);
width = 745;
},
{
layerId = "3AF73D1F-32CE-4CF3-BC01-E4A23F7DE30A";
paths = (
{
closed = 1;
nodes = (
"716 0 LINE",
"716 124 LINE",
"460 124 LINE",
"460 303 LINE",
"651 303 LINE",
"651 427 LINE",
"460 427 LINE",
"460 576 LINE",
"709 576 LINE",
"709 700 LINE",
"280 700 LINE",
"-13 0 LINE",
"116 0 LINE",
"182 169 LINE",
"341 169 LINE",
"341 0 LINE"
);
},
{
closed = 1;
nodes = (
"341 293 LINE",
"238 293 LINE",
"341 573 LINE"
);
}
);
width = 745;
}
);
rightKerningGroup = E;
unicode = 00C6;
},
{
glyphname = AE.sc;
lastChange = "2016-08-23 12:44:07 +0000";
layers = (
{
layerId = UUID0;
paths = (
{
closed = 1;
nodes = (
"644 0 LINE",
"644 88 LINE",
"416 88 LINE",
"416 248 LINE",
"586 248 LINE",
"586 336 LINE",
"416 336 LINE",
"416 471 LINE",
"637 471 LINE",
"637 560 LINE",
"272 560 LINE",
"19 0 LINE",
"113 0 LINE",
"174 138 LINE",
"321 138 LINE",
"321 0 LINE"
);
},
{
closed = 1;
nodes = (
"321 228 LINE",
"216 228 LINE",
"321 469 LINE"
);
}
);
width = 695;
},
{
layerId = "3AF73D1F-32CE-4CF3-BC01-E4A23F7DE30A";
paths = (
{
closed = 1;
nodes = (
"666 0 LINE",
"666 120 LINE",
"441 120 LINE",
"441 243 LINE",
"608 243 LINE",
"608 362 LINE",
"441 362 LINE",
"441 461 LINE",
"659 461 LINE",
"659 581 LINE",
"274 581 LINE",
"12 0 LINE",
"137 0 LINE",
"193 135 LINE",
"330 135 LINE",
"330 0 LINE"
);
},
{
closed = 1;
nodes = (
"330 253 LINE",
"248 253 LINE",
"330 459 LINE"
);
}
);
width = 718;
}
);
},
{
glyphname = B;
lastChange = "2016-08-23 12:44:07 +0000";
layers = (
{
layerId = UUID0;
paths = (
{
closed = 1;
nodes = (
"269 0 LINE SMOOTH",
"369 0 OFFCURVE",
"480 29 OFFCURVE",
"480 208 CURVE SMOOTH",
"480 283 OFFCURVE",
"452 338 OFFCURVE",
"378 373 CURVE",
"420 429 OFFCURVE",
"428 468 OFFCURVE",
"428 527 CURVE SMOOTH",
"428 675 OFFCURVE",
"339 700 OFFCURVE",
"199 700 CURVE SMOOTH",
"52 700 LINE",
"52 0 LINE"
);
},
{
closed = 1;
nodes = (
"231 615 LINE SMOOTH",
"291 615 OFFCURVE",
"336 608 OFFCURVE",
"336 520 CURVE SMOOTH",
"336 415 OFFCURVE",
"291 409 OFFCURVE",
"250 409 CURVE SMOOTH",
"146 409 LINE",
"146 615 LINE"
);
},
{
closed = 1;
nodes = (
"267 323 LINE SMOOTH",
"330 323 OFFCURVE",
"383 301 OFFCURVE",
"383 199 CURVE SMOOTH",
"383 98 OFFCURVE",
"327 86 OFFCURVE",
"240 86 CURVE SMOOTH",
"146 86 LINE",
"146 323 LINE"
);
}
);
width = 525;
},
{
layerId = "3AF73D1F-32CE-4CF3-BC01-E4A23F7DE30A";
paths = (
{
closed = 1;
nodes = (
"285 0 LINE SMOOTH",
"387 0 OFFCURVE",
"503 44 OFFCURVE",
"503 206 CURVE SMOOTH",
"503 295 OFFCURVE",
"462 343 OFFCURVE",
"397 374 CURVE",
"427 408 OFFCURVE",
"448 457 OFFCURVE",
"448 520 CURVE SMOOTH",
"448 675 OFFCURVE",
"353 700 OFFCURVE",
"216 700 CURVE SMOOTH",
"42 700 LINE",
"42 0 LINE"
);
},
{
closed = 1;
nodes = (
"270 591 LINE SMOOTH",
"314 591 OFFCURVE",
"338 574 OFFCURVE",
"338 501 CURVE SMOOTH",
"338 434 OFFCURVE",
"298 419 OFFCURVE",
"274 419 CURVE SMOOTH",
"164 419 LINE",
"164 591 LINE"
);
},
{
closed = 1;
nodes = (
"273 318 LINE SMOOTH",
"334 318 OFFCURVE",
"378 294 OFFCURVE",
"378 213 CURVE SMOOTH",
"378 134 OFFCURVE",
"341 109 OFFCURVE",
"283 109 CURVE SMOOTH",
"164 109 LINE",
"164 318 LINE"
);
}
);
width = 550;
}
);
leftKerningGroup = I;
unicode = 0042;
},
{
glyphname = B.sc;
lastChange = "2016-08-23 12:44:07 +0000";
layers = (
{
layerId = UUID0;
paths = (
{
closed = 1;
nodes = (
"264 0 LINE SMOOTH",
"350 0 OFFCURVE",
"448 31 OFFCURVE",
"448 165 CURVE SMOOTH",
"448 233 OFFCURVE",
"419 273 OFFCURVE",
"358 299 CURVE",
"390 332 OFFCURVE",
"402 369 OFFCURVE",
"402 418 CURVE SMOOTH",
"402 540 OFFCURVE",
"323 560 OFFCURVE",
"203 560 CURVE SMOOTH",
"67 560 LINE",
"67 0 LINE"
);
},
{
closed = 1;
nodes = (
"239 480 LINE SMOOTH",
"285 480 OFFCURVE",
"316 469 OFFCURVE",
"316 406 CURVE SMOOTH",
"316 342 OFFCURVE",
"279 332 OFFCURVE",
"250 332 CURVE SMOOTH",
"158 332 LINE",
"158 480 LINE"
);
},
{
closed = 1;
nodes = (
"258 256 LINE SMOOTH",
"312 256 OFFCURVE",
"354 237 OFFCURVE",
"354 166 CURVE SMOOTH",
"354 97 OFFCURVE",
"313 81 OFFCURVE",
"248 81 CURVE SMOOTH",
"158 81 LINE",
"158 256 LINE"
);
}
);
width = 514;
},
{
layerId = "3AF73D1F-32CE-4CF3-BC01-E4A23F7DE30A";
paths = (
{
closed = 1;
nodes = (
"285 0 LINE SMOOTH",
"377 0 OFFCURVE",
"482 43 OFFCURVE",
"482 170 CURVE SMOOTH",
"482 250 OFFCURVE",
"442 287 OFFCURVE",
"386 311 CURVE",
"410 329 OFFCURVE",
"431 374 OFFCURVE",
"431 428 CURVE SMOOTH",
"431 560 OFFCURVE",
"346 581 OFFCURVE",
"224 581 CURVE SMOOTH",
"61 581 LINE",
"61 0 LINE"
);
},
{
closed = 1;
nodes = (
"278 480 LINE SMOOTH",
"313 480 OFFCURVE",
"329 461 OFFCURVE",
"329 407 CURVE SMOOTH",
"329 369 OFFCURVE",
"295 352 OFFCURVE",
"278 352 CURVE SMOOTH",
"178 352 LINE",
"178 480 LINE"
);
},
{
closed = 1;
nodes = (
"271 262 LINE SMOOTH",
"325 262 OFFCURVE",
"362 241 OFFCURVE",
"362 183 CURVE SMOOTH",
"362 127 OFFCURVE",
"335 101 OFFCURVE",
"290 101 CURVE SMOOTH",
"178 101 LINE",
"178 262 LINE"
);
}
);
width = 550;
}
);
},
{
glyphname = C;
lastChange = "2016-08-23 12:44:07 +0000";
layers = (
{
layerId = UUID0;
paths = (
{
closed = 1;
nodes = (
"330 -14 LINE",
"391 -14 OFFCURVE",
"454 3 OFFCURVE",
"498 26 CURVE",
"488 114 LINE",
"439 95 OFFCURVE",
"391 72 OFFCURVE",
"330 72 CURVE SMOOTH",
"200 72 OFFCURVE",
"132 195 OFFCURVE",
"132 350 CURVE SMOOTH",
"132 505 OFFCURVE",
"200 628 OFFCURVE",
"329 628 CURVE SMOOTH",
"391 628 OFFCURVE",
"439 604 OFFCURVE",
"488 585 CURVE",
"498 673 LINE",
"455 696 OFFCURVE",
"391 714 OFFCURVE",
"329 714 CURVE SMOOTH",
"156 714 OFFCURVE",
"30 572 OFFCURVE",
"30 350 CURVE SMOOTH",
"30 128 OFFCURVE",
"156 -14 OFFCURVE",
"330 -14 CURVE SMOOTH"
);
}
);
width = 524;
},
{
layerId = "3AF73D1F-32CE-4CF3-BC01-E4A23F7DE30A";
width = 600;
}
);
leftKerningGroup = O;
rightKerningGroup = C;
unicode = 0043;
},
{
glyphname = C.sc;
lastChange = "2016-08-23 12:44:07 +0000";
layers = (
{
layerId = UUID0;
paths = (
{
closed = 1;
nodes = (
"309 -11 LINE",
"363 -11 OFFCURVE",
"418 2 OFFCURVE",
"455 21 CURVE",
"445 109 LINE",
"403 92 OFFCURVE",
"363 77 OFFCURVE",
"309 77 CURVE SMOOTH",
"204 77 OFFCURVE",
"152 164 OFFCURVE",
"152 280 CURVE SMOOTH",
"152 396 OFFCURVE",
"204 483 OFFCURVE",
"309 483 CURVE SMOOTH",
"363 483 OFFCURVE",
"403 468 OFFCURVE",
"445 451 CURVE",
"455 538 LINE",
"418 558 OFFCURVE",
"363 571 OFFCURVE",
"309 571 CURVE SMOOTH",
"160 571 OFFCURVE",
"52 457 OFFCURVE",
"52 280 CURVE SMOOTH",
"52 103 OFFCURVE",
"160 -11 OFFCURVE",
"309 -11 CURVE SMOOTH"
);
}
);
width = 503;
},
{
layerId = "3AF73D1F-32CE-4CF3-BC01-E4A23F7DE30A";
paths = (
{
closed = 1;
nodes = (
"315 -12 LINE",
"372 -12 OFFCURVE",
"432 1 OFFCURVE",
"471 23 CURVE",
"458 139 LINE",
"412 118 OFFCURVE",
"372 107 OFFCURVE",
"313 107 CURVE SMOOTH",
"225 107 OFFCURVE",
"181 181 OFFCURVE",
"181 291 CURVE SMOOTH",
"181 400 OFFCURVE",
"225 474 OFFCURVE",
"315 474 CURVE SMOOTH",
"372 474 OFFCURVE",
"412 463 OFFCURVE",
"458 442 CURVE",
"471 559 LINE",
"430 580 OFFCURVE",
"372 593 OFFCURVE",
"315 593 CURVE SMOOTH",
"163 593 OFFCURVE",
"53 472 OFFCURVE",
"53 291 CURVE SMOOTH",
"53 109 OFFCURVE",
"163 -12 OFFCURVE",
"315 -12 CURVE SMOOTH"
);
}
);
width = 519;
}
);
},
{
glyphname = D;
lastChange = "2016-08-23 12:44:07 +0000";
layers = (
{
layerId = UUID0;
paths = (
{
closed = 1;
nodes = (
"290 0 LINE SMOOTH",
"463 0 OFFCURVE",
"588 129 OFFCURVE",
"588 350 CURVE SMOOTH",
"588 571 OFFCURVE",
"463 700 OFFCURVE",
"290 700 CURVE SMOOTH",
"66 700 LINE",
"66 0 LINE"
);
},
{
closed = 1;
nodes = (
"290 614 LINE SMOOTH",
"419 614 OFFCURVE",
"486 507 OFFCURVE",
"486 350 CURVE SMOOTH",
"486 193 OFFCURVE",
"419 86 OFFCURVE",
"290 86 CURVE SMOOTH",
"160 86 LINE",
"160 614 LINE"
);
}
);
width = 619;
},
{
layerId = "3AF73D1F-32CE-4CF3-BC01-E4A23F7DE30A";
paths = (
{
closed = 1;
nodes = (
"292 0 LINE SMOOTH",
"463 0 OFFCURVE",
"588 130 OFFCURVE",
"588 350 CURVE SMOOTH",
"588 570 OFFCURVE",
"463 700 OFFCURVE",
"292 700 CURVE SMOOTH",
"66 700 LINE",
"66 0 LINE"
);
},
{
closed = 1;
nodes = (
"292 577 LINE SMOOTH",
"400 577 OFFCURVE",
"454 490 OFFCURVE",
"454 350 CURVE SMOOTH",
"454 210 OFFCURVE",
"400 123 OFFCURVE",
"292 123 CURVE SMOOTH",
"188 123 LINE",
"188 577 LINE"
);
}
);
width = 619;
}
);
leftKerningGroup = I;
rightKerningGroup = D;
unicode = 0044;
},
{
glyphname = D.sc;
lastChange = "2016-08-23 12:44:07 +0000";
layers = (
{
layerId = UUID0;
paths = (
{
closed = 1;
nodes = (
"277 0 LINE SMOOTH",
"426 0 OFFCURVE",
"533 104 OFFCURVE",
"533 280 CURVE SMOOTH",
"533 456 OFFCURVE",
"426 560 OFFCURVE",
"277 560 CURVE SMOOTH",
"83 560 LINE",
"83 0 LINE"
);
},
{
closed = 1;
nodes = (
"277 472 LINE SMOOTH",
"381 472 OFFCURVE",
"434 397 OFFCURVE",
"434 280 CURVE SMOOTH",
"434 163 OFFCURVE",
"381 88 OFFCURVE",
"277 88 CURVE SMOOTH",
"174 88 LINE",
"174 472 LINE"
);
}
);
width = 586;
},
{
layerId = "3AF73D1F-32CE-4CF3-BC01-E4A23F7DE30A";
paths = (
{
closed = 1;
nodes = (
"289 0 LINE SMOOTH",
"440 0 OFFCURVE",
"551 108 OFFCURVE",
"551 291 CURVE SMOOTH",
"551 473 OFFCURVE",
"440 581 OFFCURVE",
"289 581 CURVE SMOOTH",
"85 581 LINE",
"85 0 LINE"
);
},
{
closed = 1;
nodes = (
"289 462 LINE SMOOTH",
"379 462 OFFCURVE",
"423 399 OFFCURVE",
"423 291 CURVE SMOOTH",
"423 182 OFFCURVE",
"379 119 OFFCURVE",
"289 119 CURVE SMOOTH",
"202 119 LINE",
"202 462 LINE"
);
}
);
width = 605;
}
);
},
{
glyphname = E;
lastChange = "2016-08-23 12:44:07 +0000";
layers = (
{
layerId = UUID0;
paths = (
{
closed = 1;
nodes = (
"449 0 LINE",
"449 86 LINE",
"161 86 LINE",
"161 323 LINE",
"381 323 LINE",
"381 409 LINE",
"161 409 LINE",
"161 614 LINE",
"441 614 LINE",
"441 700 LINE",
"66 700 LINE",
"66 0 LINE"
);
}
);
width = 478;
},
{
layerId = "3AF73D1F-32CE-4CF3-BC01-E4A23F7DE30A";
paths = (
{
closed = 1;
nodes = (
"468 0 LINE",
"468 124 LINE",
"192 124 LINE",
"192 303 LINE",
"397 303 LINE",
"397 427 LINE",
"192 427 LINE",
"192 576 LINE",
"459 576 LINE",
"459 700 LINE",
"66 700 LINE",
"66 0 LINE"
);
}
);
width = 497;
}
);
leftKerningGroup = E;
rightKerningGroup = E;
unicode = 0045;
},
{
glyphname = E.sc;
lastChange = "2016-08-23 12:44:07 +0000";
layers = (
{
layerId = UUID0;
paths = (
{
closed = 1;
nodes = (
"420 0 LINE",
"420 88 LINE",
"176 88 LINE",
"176 248 LINE",
"361 248 LINE",
"361 336 LINE",
"176 336 LINE",
"176 472 LINE",
"413 472 LINE",
"413 560 LINE",
"83 560 LINE",
"83 0 LINE"
);
}
);
width = 471;
},
{
layerId = "3AF73D1F-32CE-4CF3-BC01-E4A23F7DE30A";
paths = (
{
closed = 1;
nodes = (
"449 0 LINE",
"449 120 LINE",
"206 120 LINE",
"206 243 LINE",
"385 243 LINE",
"385 362 LINE",
"206 362 LINE",
"206 461 LINE",
"441 461 LINE",
"441 581 LINE",
"85 581 LINE",
"85 0 LINE"
);
}
);
width = 501;
}
);
},
{
glyphname = Eth;
lastChange = "2016-08-23 12:44:07 +0000";
layers = (
{
layerId = UUID0;
paths = (
{
closed = 1;
nodes = (
"301 0 LINE SMOOTH",
"473 0 OFFCURVE",
"598 129 OFFCURVE",
"598 350 CURVE SMOOTH",
"598 571 OFFCURVE",
"473 700 OFFCURVE",
"301 700 CURVE SMOOTH",
"79 700 LINE",
"79 377 LINE",
"-3 377 LINE",
"-3 313 LINE",
"79 313 LINE",
"79 0 LINE"
);
},
{
closed = 1;
nodes = (
"301 614 LINE SMOOTH",
"430 614 OFFCURVE",
"496 509 OFFCURVE",
"496 350 CURVE SMOOTH",
"496 191 OFFCURVE",
"430 87 OFFCURVE",
"301 87 CURVE SMOOTH",
"170 87 LINE",
"170 313 LINE",
"280 313 LINE",
"280 377 LINE",
"170 377 LINE",
"170 614 LINE"
);
}
);
width = 629;
},
{
layerId = "3AF73D1F-32CE-4CF3-BC01-E4A23F7DE30A";
paths = (
{
closed = 1;
nodes = (
"301 0 LINE SMOOTH",
"472 0 OFFCURVE",
"598 130 OFFCURVE",
"598 350 CURVE SMOOTH",
"598 570 OFFCURVE",
"472 700 OFFCURVE",
"301 700 CURVE SMOOTH",
"73 700 LINE",
"73 393 LINE",
"-4 393 LINE",
"-4 299 LINE",
"73 299 LINE",
"73 0 LINE"
);
},
{
closed = 1;
nodes = (
"301 577 LINE SMOOTH",
"408 577 OFFCURVE",
"463 490 OFFCURVE",
"463 350 CURVE SMOOTH",
"463 210 OFFCURVE",
"408 123 OFFCURVE",
"301 123 CURVE SMOOTH",
"197 123 LINE",
"197 299 LINE",
"298 299 LINE",
"298 393 LINE",
"197 393 LINE",
"197 577 LINE"
);
}
);
width = 629;
}
);
leftKerningGroup = I;
rightKerningGroup = D;
unicode = 00D0;
},
{
glyphname = Euro;
lastChange = "2016-08-23 12:44:07 +0000";
layers = (
{
background = {
paths = (
{
closed = 1;
nodes = (
"541 17 OFFCURVE",
"605 28 OFFCURVE",
"655 51 CURVE",
"643 149 LINE",
"591 127 OFFCURVE",
"542 111 OFFCURVE",
"479 111 CURVE SMOOTH",
"400 111 OFFCURVE",
"344 143 OFFCURVE",
"303 215 CURVE",
"501 215 LINE",
"525 284 LINE",
"282 284 LINE",
"278 310 OFFCURVE",
"277 329 OFFCURVE",
"277 350 CURVE SMOOTH",
"277 369 LINE",
"519 369 LINE",
"545 438 LINE",
"287 438 LINE",
"316 534 OFFCURVE",
"377 589 OFFCURVE",
"479 589 CURVE SMOOTH",
"542 589 OFFCURVE",
"591 573 OFFCURVE",
"643 551 CURVE",
"655 649 LINE",
"605 672 OFFCURVE",
"541 683 OFFCURVE",
"479 683 CURVE SMOOTH",
"327 683 OFFCURVE",
"208 592 OFFCURVE",
"170 438 CURVE",
"94 438 LINE",
"70 369 LINE",
"161 369 LINE",
"161 350 LINE",
"161 331 OFFCURVE",
"162 312 OFFCURVE",
"165 284 CURVE",
"66 284 LINE",
"42 215 LINE",
"183 215 LINE",
"234 89 OFFCURVE",
"344 17 OFFCURVE",
"479 17 CURVE SMOOTH"
);
}
);
};
layerId = UUID0;
paths = (
{
closed = 1;
nodes = (
"409 17 LINE",
"463 17 OFFCURVE",
"519 28 OFFCURVE",
"562 51 CURVE",
"551 149 LINE",
"505 127 OFFCURVE",
"463 111 OFFCURVE",
"409 111 CURVE SMOOTH",
"343 111 OFFCURVE",
"296 143 OFFCURVE",
"265 215 CURVE",
"430 215 LINE",
"453 284 LINE",
"244 284 LINE",
"240 299 OFFCURVE",
"240 345 OFFCURVE",
"240 369 CURVE",
"445 369 LINE",
"470 438 LINE",
"250 438 LINE",
"273 534 OFFCURVE",
"324 589 OFFCURVE",
"409 589 CURVE SMOOTH",
"463 589 OFFCURVE",
"505 573 OFFCURVE",
"551 551 CURVE",
"562 649 LINE",
"519 672 OFFCURVE",
"463 683 OFFCURVE",
"409 683 CURVE SMOOTH",
"278 683 OFFCURVE",
"176 592 OFFCURVE",
"144 438 CURVE",
"80 438 LINE",
"56 369 LINE",
"135 369 LINE",
"135 331 OFFCURVE",
"136 312 OFFCURVE",
"138 284 CURVE",
"56 284 LINE",
"33 215 LINE",
"155 215 LINE",
"198 89 OFFCURVE",
"293 17 OFFCURVE",
"409 17 CURVE SMOOTH"
);
}
);
width = 607;
},
{
background = {
paths = (
{
closed = 1;
nodes = (
"533 17 OFFCURVE",
"599 29 OFFCURVE",
"650 54 CURVE",
"636 167 LINE",
"582 144 OFFCURVE",
"533 127 OFFCURVE",
"469 127 CURVE SMOOTH",
"395 127 OFFCURVE",
"344 157 OFFCURVE",
"314 209 CURVE",
"497 209 LINE",
"527 295 LINE",
"286 295 LINE",
"283 312 OFFCURVE",
"282 330 OFFCURVE",
"282 350 CURVE SMOOTH",
"282 364 LINE",
"516 364 LINE",
"546 445 LINE",
"295 445 LINE",
"319 523 OFFCURVE",
"375 573 OFFCURVE",
"469 573 CURVE SMOOTH",
"533 573 OFFCURVE",
"582 556 OFFCURVE",
"636 533 CURVE",
"650 646 LINE",
"599 671 OFFCURVE",
"533 683 OFFCURVE",
"469 683 CURVE SMOOTH",
"317 683 OFFCURVE",
"198 592 OFFCURVE",
"162 445 CURVE",
"89 445 LINE",
"61 364 LINE",
"151 364 LINE",
"151 350 LINE",
"151 331 OFFCURVE",
"152 312 OFFCURVE",
"154 295 CURVE",
"62 295 LINE",
"32 209 LINE",
"176 209 LINE",
"224 89 OFFCURVE",
"334 17 OFFCURVE",
"469 17 CURVE SMOOTH"
);
}
);
};
layerId = "3AF73D1F-32CE-4CF3-BC01-E4A23F7DE30A";
paths = (
{
closed = 1;
nodes = (
"400 17 LINE",
"456 17 OFFCURVE",
"513 29 OFFCURVE",
"557 54 CURVE",
"545 167 LINE",
"497 144 OFFCURVE",
"455 127 OFFCURVE",
"400 127 CURVE SMOOTH",
"338 127 OFFCURVE",
"296 157 OFFCURVE",
"274 209 CURVE",
"426 209 LINE",
"454 295 LINE",
"248 295 LINE",
"245 309 OFFCURVE",
"245 340 OFFCURVE",
"245 358 CURVE",
"440 358 LINE",
"470 445 LINE",
"257 445 LINE",
"276 523 OFFCURVE",
"322 573 OFFCURVE",
"400 573 CURVE SMOOTH",
"455 573 OFFCURVE",
"497 556 OFFCURVE",
"545 533 CURVE",
"557 646 LINE",
"513 671 OFFCURVE",
"456 683 OFFCURVE",
"400 683 CURVE SMOOTH",
"269 683 OFFCURVE",
"167 592 OFFCURVE",
"137 445 CURVE",
"75 445 LINE",
"46 358 LINE",
"126 358 LINE",
"126 341 OFFCURVE",
"127 311 OFFCURVE",
"129 295 CURVE",
"52 295 LINE",
"24 209 LINE",
"149 209 LINE",
"189 89 OFFCURVE",
"284 17 OFFCURVE",
"400 17 CURVE SMOOTH"
);
}
);
width = 600;
}
);
unicode = 20AC;
},
{
glyphname = F;
lastChange = "2016-08-23 12:44:07 +0000";
layers = (
{
layerId = UUID0;
paths = (
{
closed = 1;
nodes = (
"435 614 LINE",
"435 700 LINE",
"66 700 LINE",
"66 0 LINE",
"160 0 LINE",
"160 323 LINE",
"372 323 LINE",
"372 409 LINE",
"160 409 LINE",
"160 614 LINE"
);
}
);
width = 450;
},
{
layerId = "3AF73D1F-32CE-4CF3-BC01-E4A23F7DE30A";
paths = (
{
closed = 1;
nodes = (
"438 576 LINE",
"438 700 LINE",
"66 700 LINE",
"66 0 LINE",
"188 0 LINE",
"188 303 LINE",
"381 303 LINE",
"381 427 LINE",
"188 427 LINE",
"188 576 LINE"
);
}
);
width = 453;
}
);
leftKerningGroup = I;
unicode = 0046;
},
{
glyphname = F.sc;
lastChange = "2016-08-23 12:44:07 +0000";
layers = (
{
layerId = UUID0;
paths = (
{
closed = 1;
nodes = (
"402 472 LINE",
"402 560 LINE",
"83 560 LINE",
"83 0 LINE",
"174 0 LINE",
"174 248 LINE",
"350 248 LINE",
"350 336 LINE",
"174 336 LINE",
"174 472 LINE"
);
}
);
width = 440;
},
{
layerId = "3AF73D1F-32CE-4CF3-BC01-E4A23F7DE30A";
paths = (
{
closed = 1;
nodes = (
"419 461 LINE",
"419 581 LINE",
"85 581 LINE",
"85 0 LINE",
"202 0 LINE",
"202 243 LINE",
"369 243 LINE",
"369 362 LINE",
"202 362 LINE",
"202 461 LINE"
);
}
);
width = 458;
}
);
},
{
glyphname = G;
lastChange = "2016-08-23 12:44:07 +0000";
layers = (
{
layerId = UUID0;
paths = (
{
closed = 1;
nodes = (
"325 -14 LINE",
"393 -14 OFFCURVE",
"485 10 OFFCURVE",
"531 39 CURVE",
"531 351 LINE",
"354 351 LINE",
"354 265 LINE",
"437 265 LINE",
"437 91 LINE",
"406 76 OFFCURVE",
"369 72 OFFCURVE",
"344 72 CURVE SMOOTH",
"201 72 OFFCURVE",
"132 190 OFFCURVE",
"132 350 CURVE SMOOTH",
"132 505 OFFCURVE",
"196 628 OFFCURVE",
"334 628 CURVE SMOOTH",
"388 628 OFFCURVE",
"453 611 OFFCURVE",
"501 591 CURVE",
"511 674 LINE",
"466 697 OFFCURVE",
"391 714 OFFCURVE",
"331 714 CURVE SMOOTH",
"155 714 OFFCURVE",
"30 572 OFFCURVE",
"30 351 CURVE SMOOTH",
"30 128 OFFCURVE",
"157 -14 OFFCURVE",
"325 -14 CURVE SMOOTH"
);
}
);
width = 571;
},
{
layerId = "3AF73D1F-32CE-4CF3-BC01-E4A23F7DE30A";
paths = (
{
closed = 1;
nodes = (
"324 -14 LINE",
"393 -14 OFFCURVE",
"488 10 OFFCURVE",
"531 39 CURVE",
"531 351 LINE",
"354 351 LINE",
"354 245 LINE",
"408 245 LINE",
"408 120 LINE",
"380 113 OFFCURVE",
"358 109 OFFCURVE",
"333 109 CURVE SMOOTH",
"222 109 OFFCURVE",
"164 210 OFFCURVE",
"164 353 CURVE SMOOTH",
"164 489 OFFCURVE",
"216 591 OFFCURVE",
"332 591 CURVE SMOOTH",
"385 591 OFFCURVE",
"452 573 OFFCURVE",
"497 551 CURVE",
"511 673 LINE",
"468 698 OFFCURVE",
"387 714 OFFCURVE",
"329 714 CURVE SMOOTH",
"153 714 OFFCURVE",
"30 570 OFFCURVE",
"30 351 CURVE SMOOTH",
"30 130 OFFCURVE",
"154 -14 OFFCURVE",
"324 -14 CURVE SMOOTH"
);
}
);
width = 571;
}
);
leftKerningGroup = O;
unicode = 0047;
},
{
glyphname = G.sc;
lastChange = "2016-08-23 12:44:07 +0000";
layers = (
{
layerId = UUID0;
paths = (
{
closed = 1;
nodes = (
"306 -11 LINE",
"365 -11 OFFCURVE",
"445 8 OFFCURVE",
"484 31 CURVE",
"484 281 LINE",
"332 281 LINE",
"332 202 LINE",
"393 202 LINE",
"393 88 LINE",
"367 80 OFFCURVE",
"340 77 OFFCURVE",
"319 77 CURVE SMOOTH",
"207 77 OFFCURVE",
"152 162 OFFCURVE",
"152 282 CURVE SMOOTH",
"152 396 OFFCURVE",
"202 483 OFFCURVE",
"313 483 CURVE SMOOTH",
"360 483 OFFCURVE",
"417 469 OFFCURVE",
"457 452 CURVE",
"467 539 LINE",
"429 558 OFFCURVE",
"362 571 OFFCURVE",
"311 571 CURVE SMOOTH",
"159 571 OFFCURVE",
"52 457 OFFCURVE",
"52 281 CURVE SMOOTH",
"52 103 OFFCURVE",
"161 -11 OFFCURVE",
"306 -11 CURVE SMOOTH"
);
}
);
width = 545;
},
{
layerId = "3AF73D1F-32CE-4CF3-BC01-E4A23F7DE30A";
paths = (
{
closed = 1;
nodes = (
"316 -12 LINE",
"377 -12 OFFCURVE",
"464 8 OFFCURVE",
"500 32 CURVE",
"500 291 LINE",
"343 291 LINE",
"343 194 LINE",
"383 194 LINE",
"383 113 LINE",
"359 110 OFFCURVE",
"342 107 OFFCURVE",
"321 107 CURVE SMOOTH",
"230 107 OFFCURVE",
"181 183 OFFCURVE",
"181 294 CURVE SMOOTH",
"181 399 OFFCURVE",
"225 474 OFFCURVE",
"322 474 CURVE SMOOTH",
"369 474 OFFCURVE",
"430 459 OFFCURVE",
"469 439 CURVE",
"482 558 LINE",
"445 580 OFFCURVE",
"371 593 OFFCURVE",
"319 593 CURVE SMOOTH",
"162 593 OFFCURVE",
"53 472 OFFCURVE",
"53 291 CURVE SMOOTH",
"53 109 OFFCURVE",
"164 -12 OFFCURVE",
"316 -12 CURVE SMOOTH"
);
}
);
width = 561;
}
);
},
{
glyphname = H;
lastChange = "2016-08-23 12:44:07 +0000";
layers = (
{
layerId = UUID0;
paths = (
{
closed = 1;
nodes = (
"570 0 LINE",
"570 700 LINE",
"476 700 LINE",
"476 411 LINE",
"160 411 LINE",
"160 700 LINE",
"66 700 LINE",
"66 0 LINE",
"160 0 LINE",
"160 321 LINE",
"476 321 LINE",
"476 0 LINE"
);
}
);
width = 636;
},
{
layerId = "3AF73D1F-32CE-4CF3-BC01-E4A23F7DE30A";
paths = (
{
closed = 1;
nodes = (
"570 0 LINE",
"570 700 LINE",
"448 700 LINE",
"448 427 LINE",
"188 427 LINE",
"188 700 LINE",
"66 700 LINE",
"66 0 LINE",
"188 0 LINE",
"188 303 LINE",
"448 303 LINE",
"448 0 LINE"
);
}
);
width = 636;
}
);
leftKerningGroup = I;
rightKerningGroup = I;
unicode = 0048;
},
{
glyphname = H.sc;
lastChange = "2016-08-23 12:44:07 +0000";
layers = (
{
layerId = UUID0;
paths = (
{
closed = 1;
nodes = (
"518 0 LINE",
"518 560 LINE",
"427 560 LINE",
"427 337 LINE",
"174 337 LINE",
"174 560 LINE",
"83 560 LINE",
"83 0 LINE",
"174 0 LINE",
"174 248 LINE",
"427 248 LINE",
"427 0 LINE"
);
}
);
width = 601;
},
{
layerId = "3AF73D1F-32CE-4CF3-BC01-E4A23F7DE30A";
paths = (
{
closed = 1;
nodes = (
"535 0 LINE",
"535 581 LINE",
"417 581 LINE",
"417 362 LINE",
"202 362 LINE",
"202 581 LINE",
"85 581 LINE",
"85 0 LINE",
"202 0 LINE",
"202 243 LINE",
"417 243 LINE",
"417 0 LINE"
);
}
);
width = 620;
}
);
},
{
glyphname = I;
lastChange = "2016-08-23 12:44:07 +0000";
layers = (
{
layerId = UUID0;
paths = (
{
closed = 1;
nodes = (
"168 0 LINE",
"168 700 LINE",
"74 700 LINE",
"74 0 LINE"
);
}
);
width = 243;
},
{
layerId = "3AF73D1F-32CE-4CF3-BC01-E4A23F7DE30A";
paths = (
{
closed = 1;
nodes = (
"182 0 LINE",
"182 700 LINE",
"60 700 LINE",
"60 0 LINE"
);
}
);
width = 242;
}
);
leftKerningGroup = I;
rightKerningGroup = I;
unicode = 0049;
},
{
glyphname = I.sc;
lastChange = "2016-08-23 12:44:07 +0000";
layers = (
{
layerId = UUID0;
paths = (
{
closed = 1;
nodes = (
"176 0 LINE",
"176 560 LINE",
"85 560 LINE",
"85 0 LINE"
);
}
);
width = 261;
},
{
layerId = "3AF73D1F-32CE-4CF3-BC01-E4A23F7DE30A";
paths = (
{
closed = 1;
nodes = (
"193 0 LINE",
"193 581 LINE",
"76 581 LINE",
"76 0 LINE"
);
}
);
width = 268;
}
);
},
{
glyphname = J;
lastChange = "2016-08-23 12:44:07 +0000";
layers = (
{
layerId = UUID0;
paths = (
{
closed = 1;
nodes = (
"29 -172 LINE SMOOTH",
"122 -172 OFFCURVE",
"170 -122 OFFCURVE",
"170 -32 CURVE SMOOTH",
"170 700 LINE",
"76 700 LINE",
"76 -3 LINE SMOOTH",
"76 -81 OFFCURVE",
"63 -116 OFFCURVE",
"10 -116 CURVE SMOOTH",
"-1 -116 LINE",
"8 -172 LINE"
);
}
);
width = 242;
},
{
layerId = "3AF73D1F-32CE-4CF3-BC01-E4A23F7DE30A";
paths = (
{
closed = 1;
nodes = (
"43 -172 LINE SMOOTH",
"123 -172 OFFCURVE",
"181 -124 OFFCURVE",
"181 -24 CURVE SMOOTH",
"181 700 LINE",
"58 700 LINE",
"58 4 LINE SMOOTH",
"58 -51 OFFCURVE",
"49 -76 OFFCURVE",
"28 -76 CURVE SMOOTH",
"-4 -76 LINE",
"5 -172 LINE"
);
}
);
width = 243;
}
);
unicode = 004A;
},
{
glyphname = J.sc;
lastChange = "2016-08-23 12:44:07 +0000";
layers = (
{
layerId = UUID0;
paths = (
{
closed = 1;
nodes = (
"56 -138 LINE SMOOTH",
"132 -138 OFFCURVE",
"176 -99 OFFCURVE",
"176 -22 CURVE SMOOTH",
"176 560 LINE",
"85 560 LINE",
"85 1 LINE SMOOTH",
"85 -49 OFFCURVE",
"75 -72 OFFCURVE",
"41 -72 CURVE SMOOTH",
"24 -72 LINE",
"32 -138 LINE"
);
}
);
width = 260;
},
{
layerId = "3AF73D1F-32CE-4CF3-BC01-E4A23F7DE30A";
paths = (
{
closed = 1;
nodes = (
"68 -143 LINE SMOOTH",
"136 -143 OFFCURVE",
"190 -104 OFFCURVE",
"190 -16 CURVE SMOOTH",
"190 581 LINE",
"73 581 LINE",
"73 6 LINE SMOOTH",
"73 -29 OFFCURVE",
"65 -45 OFFCURVE",
"55 -45 CURVE SMOOTH",
"21 -45 LINE",
"29 -143 LINE"
);
}
);
width = 268;
}
);
},
{
glyphname = K;
lastChange = "2016-08-23 12:44:07 +0000";
layers = (
{
layerId = UUID0;
paths = (
{
closed = 1;
nodes = (
"524 0 LINE",
"307 371 LINE",
"524 700 LINE",
"422 700 LINE",
"205 371 LINE",
"422 0 LINE"
);
},
{
closed = 1;
nodes = (
"177 0 LINE",
"177 700 LINE",
"83 700 LINE",
"83 0 LINE"
);
}
);
width = 544;
},
{
layerId = "3AF73D1F-32CE-4CF3-BC01-E4A23F7DE30A";
paths = (
{
closed = 1;
nodes = (
"537 0 LINE",
"333 370 LINE",
"537 700 LINE",
"397 700 LINE",
"193 370 LINE",
"397 0 LINE"
);
},
{
closed = 1;
nodes = (
"176 0 LINE",
"176 700 LINE",
"54 700 LINE",
"54 0 LINE"
);
}
);
width = 527;
}
);
leftKerningGroup = I;
unicode = 004B;
},
{
glyphname = K.sc;
lastChange = "2016-08-23 12:44:07 +0000";
layers = (
{
layerId = UUID0;
paths = (
{
closed = 1;
nodes = (
"483 0 LINE",
"300 296 LINE",
"483 560 LINE",
"381 560 LINE",
"198 296 LINE",
"381 0 LINE"
);
},
{
closed = 1;
nodes = (
"178 0 LINE",
"178 560 LINE",
"87 560 LINE",
"87 0 LINE"
);
}
);
width = 515;
},
{
layerId = "3AF73D1F-32CE-4CF3-BC01-E4A23F7DE30A";
paths = (
{
closed = 1;
nodes = (
"508 0 LINE",
"329 307 LINE",
"508 581 LINE",
"373 581 LINE",
"195 307 LINE",
"373 0 LINE"
);
},
{
closed = 1;
nodes = (
"183 0 LINE",
"183 581 LINE",
"66 581 LINE",
"66 0 LINE"
);
}
);
width = 516;
}
);
},
{
glyphname = L;
lastChange = "2016-08-23 12:44:07 +0000";
layers = (
{
layerId = UUID0;
paths = (
{
closed = 1;
nodes = (
"424 0 LINE",
"424 86 LINE",
"160 86 LINE",
"160 700 LINE",
"66 700 LINE",
"66 0 LINE"
);
}
);
width = 430;
},
{
layerId = "3AF73D1F-32CE-4CF3-BC01-E4A23F7DE30A";
paths = (
{
closed = 1;
nodes = (
"424 0 LINE",
"424 124 LINE",
"188 124 LINE",
"188 700 LINE",
"66 700 LINE",
"66 0 LINE"
);
}
);
width = 430;
}
);
leftKerningGroup = I;
unicode = 004C;
},
{
glyphname = L.sc;
lastChange = "2016-08-23 12:44:07 +0000";
layers = (
{
layerId = UUID0;
paths = (
{
closed = 1;
nodes = (
"392 0 LINE",
"392 88 LINE",
"174 88 LINE",
"174 560 LINE",
"83 560 LINE",
"83 0 LINE"
);
}
);
width = 423;
},
{
layerId = "3AF73D1F-32CE-4CF3-BC01-E4A23F7DE30A";
paths = (
{
closed = 1;
nodes = (
"404 0 LINE",
"404 120 LINE",
"202 120 LINE",
"202 581 LINE",
"85 581 LINE",
"85 0 LINE"
);
}
);
width = 435;
}
);
},
{
glyphname = M;
lastChange = "2016-08-23 12:44:07 +0000";
layers = (
{
layerId = UUID0;
paths = (
{
closed = 1;
nodes = (
"673 0 LINE",
"597 700 LINE",
"518 700 LINE",
"361 336 LINE",
"202 700 LINE",
"124 700 LINE",
"47 0 LINE",
"145 0 LINE",
"194 512 LINE",
"361 149 LINE",
"526 512 LINE",
"575 0 LINE"
);
}
);
width = 710;
},
{
layerId = "3AF73D1F-32CE-4CF3-BC01-E4A23F7DE30A";
paths = (
{
closed = 1;
nodes = (
"687 0 LINE",
"599 700 LINE",
"500 700 LINE",
"362 381 LINE",
"223 700 LINE",
"124 700 LINE",
"36 0 LINE",
"163 0 LINE",
"216 468 LINE",
"362 147 LINE",
"508 469 LINE",
"561 0 LINE"
);
}
);
width = 730;
}
);
unicode = 004D;
},
{
glyphname = M.sc;
lastChange = "2016-08-23 12:44:07 +0000";
layers = (
{
layerId = UUID0;
paths = (
{
closed = 1;
nodes = (
"611 0 LINE",
"540 560 LINE",
"465 560 LINE",
"337 297 LINE",
"208 560 LINE",
"133 560 LINE",
"62 0 LINE",
"157 0 LINE",
"202 392 LINE",
"337 123 LINE",
"471 392 LINE",
"516 0 LINE"
);
}
);
width = 671;
},
{
layerId = "3AF73D1F-32CE-4CF3-BC01-E4A23F7DE30A";
paths = (
{
closed = 1;
nodes = (
"643 0 LINE",
"566 581 LINE",
"471 581 LINE",
"349 329 LINE",
"224 581 LINE",
"130 581 LINE",
"54 0 LINE",
"175 0 LINE",
"217 361 LINE",
"347 113 LINE",
"479 362 LINE",
"521 0 LINE"
);
}
);
width = 709;
}
);
},
{
glyphname = N;
lastChange = "2016-08-23 12:44:07 +0000";
layers = (
{
layerId = UUID0;
paths = (
{
closed = 1;
nodes = (
"537 0 LINE",
"537 700 LINE",
"443 700 LINE",
"443 176 LINE",
"163 700 LINE",
"66 700 LINE",
"66 0 LINE",
"160 0 LINE",
"160 553 LINE",
"459 0 LINE"
);
}
);
width = 603;
},
{
layerId = "3AF73D1F-32CE-4CF3-BC01-E4A23F7DE30A";
paths = (
{
closed = 1;
nodes = (
"545 0 LINE",
"545 700 LINE",
"423 700 LINE",
"423 248 LINE",
"183 700 LINE",
"66 700 LINE",
"66 0 LINE",
"188 0 LINE",
"188 480 LINE",
"446 0 LINE"
);
}
);
width = 611;
}
);
leftKerningGroup = I;
rightKerningGroup = I;
unicode = 004E;
},
{
glyphname = N.sc;
lastChange = "2016-08-23 12:44:07 +0000";
layers = (
{
layerId = UUID0;
paths = (
{
closed = 1;
nodes = (
"492 0 LINE",
"492 560 LINE",
"401 560 LINE",
"401 178 LINE",
"173 560 LINE",
"83 560 LINE",
"83 0 LINE",
"174 0 LINE",
"174 405 LINE",
"417 0 LINE"
);
}
);
width = 575;
},
{
layerId = "3AF73D1F-32CE-4CF3-BC01-E4A23F7DE30A";
paths = (
{
closed = 1;
nodes = (
"515 0 LINE",
"515 581 LINE",
"399 581 LINE",
"399 238 LINE",
"195 581 LINE",
"85 581 LINE",
"85 0 LINE",
"202 0 LINE",
"202 366 LINE",
"420 0 LINE"
);
}
);
width = 600;
}
);
},
{
glyphname = O;
lastChange = "2016-08-23 12:44:07 +0000";
layers = (
{
layerId = UUID0;
paths = (
{
closed = 1;
nodes = (
"327 -14 LINE",
"499 -14 OFFCURVE",
"623 128 OFFCURVE",
"623 350 CURVE SMOOTH",
"623 572 OFFCURVE",
"499 714 OFFCURVE",
"327 714 CURVE SMOOTH",
"155 714 OFFCURVE",
"30 572 OFFCURVE",
"30 350 CURVE SMOOTH",
"30 128 OFFCURVE",
"155 -14 OFFCURVE",
"327 -14 CURVE SMOOTH"
);
},
{
closed = 1;
nodes = (
"327 628 LINE",
"456 628 OFFCURVE",
"521 505 OFFCURVE",
"521 350 CURVE SMOOTH",
"521 195 OFFCURVE",
"456 72 OFFCURVE",
"327 72 CURVE SMOOTH",
"198 72 OFFCURVE",
"132 195 OFFCURVE",
"132 350 CURVE SMOOTH",
"132 505 OFFCURVE",
"198 628 OFFCURVE",
"327 628 CURVE SMOOTH"
);
}
);
width = 653;
},
{
layerId = "3AF73D1F-32CE-4CF3-BC01-E4A23F7DE30A";
paths = (
{
closed = 1;
nodes = (
"327 -14 LINE",
"499 -14 OFFCURVE",
"623 130 OFFCURVE",
"623 350 CURVE SMOOTH",
"623 570 OFFCURVE",
"499 714 OFFCURVE",
"327 714 CURVE SMOOTH",
"155 714 OFFCURVE",
"30 570 OFFCURVE",
"30 350 CURVE SMOOTH",
"30 130 OFFCURVE",
"155 -14 OFFCURVE",
"327 -14 CURVE SMOOTH"
);
},
{
closed = 1;
nodes = (
"327 591 LINE",
"435 591 OFFCURVE",
"490 490 OFFCURVE",
"490 350 CURVE SMOOTH",
"490 210 OFFCURVE",
"435 109 OFFCURVE",
"327 109 CURVE SMOOTH",
"219 109 OFFCURVE",
"164 210 OFFCURVE",
"164 350 CURVE SMOOTH",
"164 490 OFFCURVE",
"219 591 OFFCURVE",
"327 591 CURVE SMOOTH"
);
}
);
width = 653;
}
);
leftKerningGroup = O;
rightKerningGroup = O;
unicode = 004F;
},
{
glyphname = O.sc;
lastChange = "2016-08-23 12:44:07 +0000";
layers = (
{
layerId = UUID0;
paths = (
{
closed = 1;
nodes = (
"308 -11 LINE",
"456 -11 OFFCURVE",
"564 103 OFFCURVE",
"564 280 CURVE SMOOTH",
"564 457 OFFCURVE",
"456 571 OFFCURVE",
"308 571 CURVE SMOOTH",
"160 571 OFFCURVE",
"52 457 OFFCURVE",
"52 280 CURVE SMOOTH",
"52 103 OFFCURVE",
"160 -11 OFFCURVE",
"308 -11 CURVE SMOOTH"
);
},
{
closed = 1;
nodes = (
"308 483 LINE",
"412 483 OFFCURVE",
"464 396 OFFCURVE",
"464 280 CURVE SMOOTH",
"464 164 OFFCURVE",
"412 77 OFFCURVE",
"308 77 CURVE SMOOTH",
"204 77 OFFCURVE",
"152 164 OFFCURVE",
"152 280 CURVE SMOOTH",
"152 396 OFFCURVE",
"204 483 OFFCURVE",
"308 483 CURVE SMOOTH"
);
}
);
width = 616;
},
{
layerId = "3AF73D1F-32CE-4CF3-BC01-E4A23F7DE30A";
paths = (
{
closed = 1;
nodes = (
"319 -12 LINE",
"472 -12 OFFCURVE",
"582 109 OFFCURVE",
"582 291 CURVE SMOOTH",
"582 472 OFFCURVE",
"472 593 OFFCURVE",
"319 593 CURVE SMOOTH",
"165 593 OFFCURVE",
"53 472 OFFCURVE",
"53 291 CURVE SMOOTH",
"53 109 OFFCURVE",
"165 -12 OFFCURVE",
"319 -12 CURVE SMOOTH"
);
},
{
closed = 1;
nodes = (
"319 474 LINE",
"409 474 OFFCURVE",
"454 400 OFFCURVE",
"454 291 CURVE SMOOTH",
"454 181 OFFCURVE",
"409 107 OFFCURVE",
"319 107 CURVE SMOOTH",
"228 107 OFFCURVE",
"181 181 OFFCURVE",
"181 291 CURVE SMOOTH",
"181 400 OFFCURVE",
"228 474 OFFCURVE",
"319 474 CURVE SMOOTH"
);
}
);
width = 635;
}
);
},
{
glyphname = OE;
lastChange = "2016-08-23 12:44:07 +0000";
layers = (
{
layerId = UUID0;
paths = (
{
closed = 1;
nodes = (
"885 0 LINE",
"885 86 LINE",
"616 86 LINE",
"616 323 LINE",
"817 323 LINE",
"817 409 LINE",
"616 409 LINE",
"616 614 LINE",
"877 614 LINE",
"877 699 LINE",
"523 699 LINE",
"523 617 LINE",
"455 689 OFFCURVE",
"393 714 OFFCURVE",
"323 714 CURVE SMOOTH",
"153 714 OFFCURVE",
"30 572 OFFCURVE",
"30 350 CURVE SMOOTH",
"30 128 OFFCURVE",
"153 -14 OFFCURVE",
"323 -14 CURVE SMOOTH",
"393 -14 OFFCURVE",
"455 11 OFFCURVE",
"523 83 CURVE",
"523 0 LINE"
);
},
{
closed = 1;
nodes = (
"323 628 LINE",
"452 628 OFFCURVE",
"516 507 OFFCURVE",
"516 350 CURVE SMOOTH",
"516 193 OFFCURVE",
"452 72 OFFCURVE",
"323 72 CURVE SMOOTH",
"194 72 OFFCURVE",
"130 193 OFFCURVE",
"130 350 CURVE SMOOTH",
"130 507 OFFCURVE",
"194 628 OFFCURVE",
"323 628 CURVE SMOOTH"
);
}
);
width = 914;
},
{
layerId = "3AF73D1F-32CE-4CF3-BC01-E4A23F7DE30A";
paths = (
{
closed = 1;
nodes = (
"885 0 LINE",
"885 124 LINE",
"628 124 LINE",
"628 303 LINE",
"820 303 LINE",
"820 427 LINE",
"628 427 LINE",
"628 576 LINE",
"877 576 LINE",
"877 700 LINE",
"500 700 LINE",
"500 645 LINE",
"464 689 OFFCURVE",
"400 714 OFFCURVE",
"329 714 CURVE SMOOTH",
"156 714 OFFCURVE",
"30 570 OFFCURVE",
"30 350 CURVE SMOOTH",
"30 130 OFFCURVE",
"156 -14 OFFCURVE",
"329 -14 CURVE SMOOTH",
"400 -14 OFFCURVE",
"464 11 OFFCURVE",
"500 55 CURVE",
"500 0 LINE"
);
},
{
closed = 1;
nodes = (
"329 591 LINE",
"438 591 OFFCURVE",
"494 490 OFFCURVE",
"494 350 CURVE SMOOTH",
"494 210 OFFCURVE",
"438 109 OFFCURVE",
"329 109 CURVE SMOOTH",
"221 109 OFFCURVE",
"165 210 OFFCURVE",
"165 350 CURVE SMOOTH",
"165 490 OFFCURVE",
"221 591 OFFCURVE",
"329 591 CURVE SMOOTH"
);
}
);
width = 914;
}
);
leftKerningGroup = O;
rightKerningGroup = E;
unicode = 0152;
},
{
glyphname = OE.sc;
lastChange = "2016-08-23 12:44:07 +0000";
layers = (
{
layerId = UUID0;
paths = (
{
closed = 1;
nodes = (
"789 0 LINE",
"789 88 LINE",
"561 88 LINE",
"561 248 LINE",
"732 248 LINE",
"732 336 LINE",
"561 336 LINE",
"561 472 LINE",
"783 472 LINE",
"783 560 LINE",
"469 560 LINE",
"469 508 LINE",
"421 551 OFFCURVE",
"368 571 OFFCURVE",
"307 571 CURVE SMOOTH",
"159 571 OFFCURVE",
"52 457 OFFCURVE",
"52 280 CURVE SMOOTH",
"52 103 OFFCURVE",
"159 -11 OFFCURVE",
"307 -11 CURVE SMOOTH",
"368 -11 OFFCURVE",
"421 9 OFFCURVE",
"469 52 CURVE",
"469 0 LINE"
);
},
{
closed = 1;
nodes = (
"307 483 LINE",
"410 483 OFFCURVE",
"463 397 OFFCURVE",
"463 280 CURVE SMOOTH",
"463 163 OFFCURVE",
"410 77 OFFCURVE",
"307 77 CURVE SMOOTH",
"203 77 OFFCURVE",
"151 163 OFFCURVE",
"151 280 CURVE SMOOTH",
"151 397 OFFCURVE",
"203 483 OFFCURVE",
"307 483 CURVE SMOOTH"
);
}
);
width = 840;
},
{
layerId = "3AF73D1F-32CE-4CF3-BC01-E4A23F7DE30A";
paths = (
{
closed = 1;
nodes = (
"817 0 LINE",
"817 120 LINE",
"590 120 LINE",
"590 243 LINE",
"759 243 LINE",
"759 362 LINE",
"590 362 LINE",
"590 461 LINE",
"810 461 LINE",
"810 581 LINE",
"467 581 LINE",
"467 548 LINE",
"443 572 OFFCURVE",
"385 593 OFFCURVE",
"322 593 CURVE SMOOTH",
"167 593 OFFCURVE",
"53 472 OFFCURVE",
"53 291 CURVE SMOOTH",
"53 109 OFFCURVE",
"167 -12 OFFCURVE",
"322 -12 CURVE SMOOTH",
"385 -12 OFFCURVE",
"443 9 OFFCURVE",
"467 33 CURVE",
"467 0 LINE"
);
},
{
closed = 1;
nodes = (
"322 474 LINE",
"413 474 OFFCURVE",
"461 399 OFFCURVE",
"461 291 CURVE SMOOTH",
"461 182 OFFCURVE",
"413 107 OFFCURVE",
"322 107 CURVE SMOOTH",
"231 107 OFFCURVE",
"183 182 OFFCURVE",
"183 291 CURVE SMOOTH",
"183 399 OFFCURVE",
"231 474 OFFCURVE",
"322 474 CURVE SMOOTH"
);
}
);
width = 869;
}
);
},
{
glyphname = Oslash;
lastChange = "2016-08-23 12:44:07 +0000";
layers = (
{
layerId = UUID0;
paths = (
{
closed = 1;
nodes = (
"326 -12 LINE",
"499 -12 OFFCURVE",
"623 129 OFFCURVE",
"623 349 CURVE SMOOTH",
"623 462 OFFCURVE",
"591 554 OFFCURVE",
"532 627 CURVE",
"588 716 LINE",
"493 716 LINE",
"469 672 LINE",
"422 702 OFFCURVE",
"376 714 OFFCURVE",
"327 714 CURVE SMOOTH",
"155 714 OFFCURVE",
"30 572 OFFCURVE",
"30 350 CURVE SMOOTH",
"30 240 OFFCURVE",
"61 150 OFFCURVE",
"117 75 CURVE",
"52 -30 LINE",
"146 -30 LINE",
"180 31 LINE",
"228 0 OFFCURVE",
"275 -12 OFFCURVE",
"326 -12 CURVE SMOOTH"
);
},
{
closed = 1;
nodes = (
"477 548 LINE",
"508 493 OFFCURVE",
"519 415 OFFCURVE",
"519 352 CURVE SMOOTH",
"519 196 OFFCURVE",
"455 76 OFFCURVE",
"327 76 CURVE SMOOTH",
"295 76 OFFCURVE",
"267 83 OFFCURVE",
"233 105 CURVE"
);
},
{
closed = 1;
nodes = (
"326 625 LINE",
"357 625 OFFCURVE",
"383 618 OFFCURVE",
"416 597 CURVE",
"174 156 LINE",
"144 231 OFFCURVE",
"134 288 OFFCURVE",
"134 349 CURVE SMOOTH",
"134 505 OFFCURVE",
"198 625 OFFCURVE",
"326 625 CURVE SMOOTH"
);
}
);
width = 653;
},
{
layerId = "3AF73D1F-32CE-4CF3-BC01-E4A23F7DE30A";
paths = (
{
closed = 1;
nodes = (
"327 -14 LINE",
"499 -14 OFFCURVE",
"623 130 OFFCURVE",
"623 350 CURVE SMOOTH",
"623 460 OFFCURVE",
"592 552 OFFCURVE",
"543 615 CURVE",
"605 716 LINE",
"474 716 LINE",
"455 680 LINE",
"421 702 OFFCURVE",
"375 714 OFFCURVE",
"327 714 CURVE SMOOTH",
"155 714 OFFCURVE",
"30 570 OFFCURVE",
"30 350 CURVE SMOOTH",
"30 241 OFFCURVE",
"60 151 OFFCURVE",
"108 87 CURVE",
"35 -31 LINE",
"165 -31 LINE",
"194 22 LINE",
"229 -1 OFFCURVE",
"276 -14 OFFCURVE",
"327 -14 CURVE SMOOTH"
);
},
{
closed = 1;
nodes = (
"467 502 LINE",
"481 461 OFFCURVE",
"491 409 OFFCURVE",
"491 350 CURVE SMOOTH",
"491 210 OFFCURVE",
"435 109 OFFCURVE",
"327 109 CURVE SMOOTH",
"299 109 OFFCURVE",
"275 115 OFFCURVE",
"263 126 CURVE"
);
},
{
closed = 1;
nodes = (
"327 591 LINE",
"352 591 OFFCURVE",
"375 585 OFFCURVE",
"386 575 CURVE",
"184 202 LINE",
"171 242 OFFCURVE",
"162 293 OFFCURVE",
"162 350 CURVE SMOOTH",
"162 490 OFFCURVE",
"218 591 OFFCURVE",
"327 591 CURVE SMOOTH"
);
}
);
width = 653;
}
);
leftKerningGroup = O;
rightKerningGroup = O;
unicode = 00D8;
},
{
glyphname = P;
lastChange = "2016-08-23 12:44:07 +0000";
layers = (
{
background = {
paths = (
{
closed = 1;
nodes = (
"343 245 LINE SMOOTH",
"436 245 OFFCURVE",
"559 300 OFFCURVE",
"559 482 CURVE SMOOTH",
"559 670 OFFCURVE",
"466 700 OFFCURVE",
"265 700 CURVE SMOOTH",
"77 700 LINE",
"77 0 LINE",
"177 0 LINE",
"177 245 LINE"
);
},
{
closed = 1;
nodes = (
"297 615 LINE SMOOTH",
"420 615 OFFCURVE",
"460 578 OFFCURVE",
"460 478 CURVE SMOOTH",
"460 384 OFFCURVE",
"422 330 OFFCURVE",
"325 330 CURVE SMOOTH",
"177 330 LINE",
"177 615 LINE"
);
}
);
};
layerId = UUID0;
paths = (
{
closed = 1;
nodes = (
"291 245 LINE SMOOTH",
"373 245 OFFCURVE",
"487 300 OFFCURVE",
"487 482 CURVE SMOOTH",
"487 670 OFFCURVE",
"392 700 OFFCURVE",
"257 700 CURVE SMOOTH",
"74 700 LINE",
"74 0 LINE",
"170 0 LINE",
"170 245 LINE"
);
},
{
closed = 1;
nodes = (
"261 615 LINE SMOOTH",
"361 615 OFFCURVE",
"391 578 OFFCURVE",
"391 478 CURVE SMOOTH",
"391 384 OFFCURVE",
"358 330 OFFCURVE",
"276 330 CURVE SMOOTH",
"170 330 LINE",
"170 615 LINE"
);
}
);
width = 505;
},
{
background = {
paths = (
{
closed = 1;
nodes = (
"264 230 LINE SMOOTH",
"480 230 OFFCURVE",
"575 288 OFFCURVE",
"575 478 CURVE SMOOTH",
"575 670 OFFCURVE",
"469 700 OFFCURVE",
"275 700 CURVE SMOOTH",
"77 700 LINE",
"77 0 LINE",
"205 0 LINE",
"205 230 LINE"
);
},
{
closed = 1;
nodes = (
"310 593 LINE SMOOTH",
"417 593 OFFCURVE",
"445 557 OFFCURVE",
"445 477 CURVE SMOOTH",
"445 382 OFFCURVE",
"406 350 OFFCURVE",
"313 350 CURVE SMOOTH",
"205 350 LINE",
"205 593 LINE"
);
}
);
};
layerId = "3AF73D1F-32CE-4CF3-BC01-E4A23F7DE30A";
paths = (
{
closed = 1;
nodes = (
"278 230 LINE SMOOTH",
"365 230 OFFCURVE",
"499 277 OFFCURVE",
"499 478 CURVE SMOOTH",
"499 670 OFFCURVE",
"411 700 OFFCURVE",
"221 700 CURVE SMOOTH",
"60 700 LINE",
"60 0 LINE",
"180 0 LINE",
"180 230 LINE"
);
},
{
closed = 1;
nodes = (
"270 593 LINE SMOOTH",
"356 593 OFFCURVE",
"376 557 OFFCURVE",
"376 477 CURVE SMOOTH",
"376 382 OFFCURVE",
"342 350 OFFCURVE",
"264 350 CURVE SMOOTH",
"180 350 LINE",
"180 593 LINE"
);
}
);
width = 519;
}
);
leftKerningGroup = I;
unicode = 0050;
},
{
glyphname = P.sc;
lastChange = "2016-08-23 12:44:07 +0000";
layers = (
{
background = {
paths = (
{
closed = 1;
nodes = (
"343 245 LINE SMOOTH",
"436 245 OFFCURVE",
"559 300 OFFCURVE",
"559 482 CURVE SMOOTH",
"559 670 OFFCURVE",
"466 700 OFFCURVE",
"265 700 CURVE SMOOTH",
"77 700 LINE",
"77 0 LINE",
"177 0 LINE",
"177 245 LINE"
);
},
{
closed = 1;
nodes = (
"297 615 LINE SMOOTH",
"420 615 OFFCURVE",
"460 578 OFFCURVE",
"460 478 CURVE SMOOTH",
"460 384 OFFCURVE",
"422 330 OFFCURVE",
"325 330 CURVE SMOOTH",
"177 330 LINE",
"177 615 LINE"
);
}
);
};
layerId = UUID0;
paths = (
{
closed = 1;
nodes = (
"273 188 LINE SMOOTH",
"345 188 OFFCURVE",
"451 228 OFFCURVE",
"451 384 CURVE SMOOTH",
"451 536 OFFCURVE",
"372 560 OFFCURVE",
"235 560 CURVE SMOOTH",
"85 560 LINE",
"85 0 LINE",
"177 0 LINE",
"177 188 LINE"
);
},
{
closed = 1;
nodes = (
"255 481 LINE SMOOTH",
"336 481 OFFCURVE",
"358 452 OFFCURVE",
"358 382 CURVE SMOOTH",
"358 306 OFFCURVE",
"330 274 OFFCURVE",
"260 274 CURVE SMOOTH",
"177 274 LINE",
"177 481 LINE"
);
}
);
width = 493;
},
{
background = {
paths = (
{
closed = 1;
nodes = (
"264 230 LINE SMOOTH",
"480 230 OFFCURVE",
"575 288 OFFCURVE",
"575 478 CURVE SMOOTH",
"575 670 OFFCURVE",
"469 700 OFFCURVE",
"275 700 CURVE SMOOTH",
"77 700 LINE",
"77 0 LINE",
"205 0 LINE",
"205 230 LINE"
);
},
{
closed = 1;
nodes = (
"310 593 LINE SMOOTH",
"417 593 OFFCURVE",
"445 557 OFFCURVE",
"445 477 CURVE SMOOTH",
"445 382 OFFCURVE",
"406 350 OFFCURVE",
"313 350 CURVE SMOOTH",
"205 350 LINE",
"205 593 LINE"
);
}
);
};
layerId = "3AF73D1F-32CE-4CF3-BC01-E4A23F7DE30A";
paths = (
{
closed = 1;
nodes = (
"271 184 LINE SMOOTH",
"350 184 OFFCURVE",
"476 220 OFFCURVE",
"476 395 CURVE SMOOTH",
"476 556 OFFCURVE",
"398 581 OFFCURVE",
"214 581 CURVE SMOOTH",
"76 581 LINE",
"76 0 LINE",
"191 0 LINE",
"191 184 LINE"
);
},
{
closed = 1;
nodes = (
"270 482 LINE SMOOTH",
"344 482 OFFCURVE",
"359 453 OFFCURVE",
"359 395 CURVE SMOOTH",
"359 316 OFFCURVE",
"328 299 OFFCURVE",
"258 299 CURVE SMOOTH",
"191 299 LINE",
"191 482 LINE"
);
}
);
width = 520;
}
);
},
{
glyphname = Q;
lastChange = "2016-08-23 12:44:07 +0000";
layers = (
{
layerId = UUID0;
paths = (
{
closed = 1;
nodes = (
"616 62 LINE",
"564 111 LINE",
"604 187 OFFCURVE",
"623 263 OFFCURVE",
"623 350 CURVE SMOOTH",
"623 572 OFFCURVE",
"499 714 OFFCURVE",
"327 714 CURVE SMOOTH",
"155 714 OFFCURVE",
"30 572 OFFCURVE",
"30 350 CURVE SMOOTH",
"30 128 OFFCURVE",
"155 -14 OFFCURVE",
"327 -14 CURVE SMOOTH",
"393 -14 OFFCURVE",
"454 8 OFFCURVE",
"507 57 CURVE",
"565 3 LINE"
);
},
{
closed = 1;
nodes = (
"327 628 LINE",
"457 628 OFFCURVE",
"526 506 OFFCURVE",
"526 350 CURVE SMOOTH",
"526 294 OFFCURVE",
"521 233 OFFCURVE",
"492 164 CURVE",
"408 257 LINE",
"356 196 LINE",
"438 112 LINE",
"406 79 OFFCURVE",
"363 72 OFFCURVE",
"327 72 CURVE SMOOTH",
"197 72 OFFCURVE",
"132 194 OFFCURVE",
"132 350 CURVE SMOOTH",
"132 506 OFFCURVE",
"197 628 OFFCURVE",
"327 628 CURVE SMOOTH"
);
}
);
width = 653;
},
{
layerId = "3AF73D1F-32CE-4CF3-BC01-E4A23F7DE30A";
paths = (
{
closed = 1;
nodes = (
"629 79 LINE",
"575 130 LINE",
"604 189 OFFCURVE",
"623 264 OFFCURVE",
"623 350 CURVE SMOOTH",
"623 570 OFFCURVE",
"499 714 OFFCURVE",
"327 714 CURVE SMOOTH",
"155 714 OFFCURVE",
"30 570 OFFCURVE",
"30 350 CURVE SMOOTH",
"30 130 OFFCURVE",
"155 -14 OFFCURVE",
"327 -14 CURVE SMOOTH",
"393 -14 OFFCURVE",
"453 7 OFFCURVE",
"495 47 CURVE",
"556 -10 LINE"
);
},
{
closed = 1;
nodes = (
"327 591 LINE",
"434 591 OFFCURVE",
"486 490 OFFCURVE",
"486 350 CURVE SMOOTH",
"486 300 OFFCURVE",
"476 255 OFFCURVE",
"470 218 CURVE",
"401 292 LINE",
"329 203 LINE",
"394 132 LINE",
"376 117 OFFCURVE",
"358 109 OFFCURVE",
"327 109 CURVE SMOOTH",
"219 109 OFFCURVE",
"164 210 OFFCURVE",
"164 350 CURVE SMOOTH",
"164 490 OFFCURVE",
"219 591 OFFCURVE",
"327 591 CURVE SMOOTH"
);
}
);
width = 654;
}
);
leftKerningGroup = O;
rightKerningGroup = O;
unicode = 0051;
},
{
glyphname = Q.sc;
lastChange = "2016-08-23 12:44:07 +0000";
layers = (
{
layerId = UUID0;
paths = (
{
closed = 1;
nodes = (
"562 58 LINE",
"516 99 LINE",
"547 151 OFFCURVE",
"564 211 OFFCURVE",
"564 280 CURVE SMOOTH",
"564 457 OFFCURVE",
"456 571 OFFCURVE",
"308 571 CURVE SMOOTH",
"160 571 OFFCURVE",
"52 457 OFFCURVE",
"52 280 CURVE SMOOTH",
"52 103 OFFCURVE",
"160 -11 OFFCURVE",
"308 -11 CURVE SMOOTH",
"365 -11 OFFCURVE",
"417 6 OFFCURVE",
"459 40 CURVE",
"510 -4 LINE"
);
},
{
closed = 1;
nodes = (
"308 483 LINE",
"412 483 OFFCURVE",
"465 397 OFFCURVE",
"465 280 CURVE SMOOTH",
"465 238 OFFCURVE",
"460 198 OFFCURVE",
"443 159 CURVE",
"375 224 LINE",
"324 160 LINE",
"388 100 LINE",
"365 83 OFFCURVE",
"337 77 OFFCURVE",
"308 77 CURVE SMOOTH",
"204 77 OFFCURVE",
"152 163 OFFCURVE",
"152 280 CURVE SMOOTH",
"152 397 OFFCURVE",
"204 483 OFFCURVE",
"308 483 CURVE SMOOTH"
);
}
);
width = 616;
},
{
layerId = "3AF73D1F-32CE-4CF3-BC01-E4A23F7DE30A";
paths = (
{
closed = 1;
nodes = (
"591 73 LINE",
"542 116 LINE",
"565 158 OFFCURVE",
"582 220 OFFCURVE",
"582 291 CURVE SMOOTH",
"582 472 OFFCURVE",
"472 593 OFFCURVE",
"319 593 CURVE SMOOTH",
"165 593 OFFCURVE",
"53 472 OFFCURVE",
"53 291 CURVE SMOOTH",
"53 109 OFFCURVE",
"165 -12 OFFCURVE",
"319 -12 CURVE SMOOTH",
"377 -12 OFFCURVE",
"431 5 OFFCURVE",
"465 35 CURVE",
"521 -14 LINE"
);
},
{
closed = 1;
nodes = (
"319 474 LINE",
"408 474 OFFCURVE",
"449 400 OFFCURVE",
"449 291 CURVE SMOOTH",
"449 252 OFFCURVE",
"440 222 OFFCURVE",
"440 205 CURVE",
"382 258 LINE",
"311 172 LINE",
"365 119 LINE",
"354 114 OFFCURVE",
"345 107 OFFCURVE",
"319 107 CURVE SMOOTH",
"228 107 OFFCURVE",
"181 181 OFFCURVE",
"181 291 CURVE SMOOTH",
"181 400 OFFCURVE",
"228 474 OFFCURVE",
"319 474 CURVE SMOOTH"
);
}
);
width = 635;
}
);
},
{
glyphname = R;
lastChange = "2016-08-23 12:44:07 +0000";
layers = (
{
layerId = UUID0;
paths = (
{
closed = 1;
nodes = (
"518 0 LINE",
"380 298 LINE",
"444 336 OFFCURVE",
"486 409 OFFCURVE",
"486 495 CURVE SMOOTH",
"486 652 OFFCURVE",
"400 700 OFFCURVE",
"279 700 CURVE SMOOTH",
"73 700 LINE",
"73 0 LINE",
"169 0 LINE",
"169 273 LINE",
"289 273 LINE",
"419 0 LINE"
);
},
{
closed = 1;
nodes = (
"268 623 LINE SMOOTH",
"355 623 OFFCURVE",
"389 576 OFFCURVE",
"389 495 CURVE SMOOTH",
"389 397 OFFCURVE",
"346 365 OFFCURVE",
"278 365 CURVE SMOOTH",
"169 365 LINE",
"169 623 LINE"
);
}
);
width = 541;
},
{
layerId = "3AF73D1F-32CE-4CF3-BC01-E4A23F7DE30A";
paths = (
{
closed = 1;
nodes = (
"534 0 LINE",
"400 294 LINE",
"451 335 OFFCURVE",
"499 390 OFFCURVE",
"499 498 CURVE SMOOTH",
"499 650 OFFCURVE",
"404 700 OFFCURVE",
"292 700 CURVE SMOOTH",
"61 700 LINE",
"61 0 LINE",
"181 0 LINE",
"181 260 LINE",
"287 260 LINE",
"408 0 LINE"
);
},
{
closed = 1;
nodes = (
"257 593 LINE SMOOTH",
"357 593 OFFCURVE",
"371 554 OFFCURVE",
"371 489 CURVE SMOOTH",
"371 426 OFFCURVE",
"365 380 OFFCURVE",
"241 380 CURVE SMOOTH",
"181 380 LINE",
"181 593 LINE"
);
}
);
width = 537;
}
);
leftKerningGroup = I;
unicode = 0052;
},
{
glyphname = R.sc;
lastChange = "2016-08-23 12:44:07 +0000";
layers = (
{
layerId = UUID0;
paths = (
{
closed = 1;
nodes = (
"478 0 LINE",
"360 236 LINE",
"411 268 OFFCURVE",
"449 317 OFFCURVE",
"449 398 CURVE SMOOTH",
"449 521 OFFCURVE",
"372 560 OFFCURVE",
"271 560 CURVE SMOOTH",
"84 560 LINE",
"84 0 LINE",
"176 0 LINE",
"176 212 LINE",
"274 212 LINE",
"383 0 LINE"
);
},
{
closed = 1;
nodes = (
"252 483 LINE SMOOTH",
"332 483 OFFCURVE",
"354 450 OFFCURVE",
"354 393 CURVE SMOOTH",
"354 332 OFFCURVE",
"331 300 OFFCURVE",
"252 300 CURVE SMOOTH",
"176 300 LINE",
"176 483 LINE"
);
}
);
width = 516;
},
{
layerId = "3AF73D1F-32CE-4CF3-BC01-E4A23F7DE30A";
paths = (
{
closed = 1;
nodes = (
"508 0 LINE",
"389 242 LINE",
"432 278 OFFCURVE",
"475 315 OFFCURVE",
"475 415 CURVE SMOOTH",
"475 539 OFFCURVE",
"389 581 OFFCURVE",
"292 581 CURVE SMOOTH",
"78 581 LINE",
"78 0 LINE",
"193 0 LINE",
"193 210 LINE",
"283 210 LINE",
"388 0 LINE"
);
},
{
closed = 1;
nodes = (
"253 479 LINE SMOOTH",
"346 479 OFFCURVE",
"352 450 OFFCURVE",
"352 403 CURVE SMOOTH",
"352 367 OFFCURVE",
"358 322 OFFCURVE",
"232 322 CURVE SMOOTH",
"193 322 LINE",
"193 479 LINE"
);
}
);
width = 531;
}
);
},
{
glyphname = S;
lastChange = "2016-08-23 12:44:07 +0000";
layers = (
{
layerId = UUID0;
paths = (
{
closed = 1;
nodes = (
"240 -14 LINE",
"412 -14 OFFCURVE",
"474 56 OFFCURVE",
"474 185 CURVE SMOOTH",
"474 319 OFFCURVE",
"372 359 OFFCURVE",
"258 407 CURVE SMOOTH",
"191 436 OFFCURVE",
"132 459 OFFCURVE",
"132 523 CURVE SMOOTH",
"132 585 OFFCURVE",
"190 628 OFFCURVE",
"255 628 CURVE SMOOTH",
"307 628 OFFCURVE",
"361 612 OFFCURVE",
"428 569 CURVE",
"440 666 LINE",
"400 693 OFFCURVE",
"321 714 OFFCURVE",
"249 714 CURVE SMOOTH",
"108 714 OFFCURVE",
"33 632 OFFCURVE",
"33 511 CURVE SMOOTH",
"33 404 OFFCURVE",
"113 370 OFFCURVE",
"222 317 CURVE SMOOTH",
"311 273 OFFCURVE",
"371 250 OFFCURVE",
"371 181 CURVE SMOOTH",
"371 113 OFFCURVE",
"321 72 OFFCURVE",
"243 72 CURVE SMOOTH",
"164 72 OFFCURVE",
"97 98 OFFCURVE",
"54 142 CURVE",
"42 31 LINE",
"83 4 OFFCURVE",
"158 -14 OFFCURVE",
"240 -14 CURVE SMOOTH"
);
}
);
width = 499;
},
{
layerId = "3AF73D1F-32CE-4CF3-BC01-E4A23F7DE30A";
paths = (
{
closed = 1;
nodes = (
"242 -14 LINE",
"468 -14 OFFCURVE",
"474 110 OFFCURVE",
"474 190 CURVE SMOOTH",
"474 345 OFFCURVE",
"350 385 OFFCURVE",
"272 416 CURVE SMOOTH",
"209 441 OFFCURVE",
"154 462 OFFCURVE",
"154 518 CURVE SMOOTH",
"154 578 OFFCURVE",
"222 592 OFFCURVE",
"255 592 CURVE SMOOTH",
"316 592 OFFCURVE",
"371 570 OFFCURVE",
"433 529 CURVE",
"444 660 LINE",
"420 684 OFFCURVE",
"342 714 OFFCURVE",
"252 714 CURVE SMOOTH",
"74 714 OFFCURVE",
"33 598 OFFCURVE",
"33 503 CURVE SMOOTH",
"33 379 OFFCURVE",
"138 342 OFFCURVE",
"203 310 CURVE SMOOTH",
"264 280 OFFCURVE",
"337 256 OFFCURVE",
"337 185 CURVE SMOOTH",
"337 128 OFFCURVE",
"299 109 OFFCURVE",
"244 109 CURVE SMOOTH",
"145 109 OFFCURVE",
"80 147 OFFCURVE",
"55 181 CURVE",
"41 37 LINE",
"71 11 OFFCURVE",
"144 -14 OFFCURVE",
"242 -14 CURVE SMOOTH"
);
}
);
width = 499;
}
);
leftKerningGroup = S;
rightKerningGroup = S;
unicode = 0053;
},
{
glyphname = S.sc;
lastChange = "2016-08-23 12:44:07 +0000";
layers = (
{
layerId = UUID0;
paths = (
{
closed = 1;
nodes = (
"234 -11 LINE",
"409 -11 OFFCURVE",
"434 87 OFFCURVE",
"434 149 CURVE SMOOTH",
"434 272 OFFCURVE",
"335 303 OFFCURVE",
"253 331 CURVE SMOOTH",
"196 350 OFFCURVE",
"147 369 OFFCURVE",
"147 416 CURVE SMOOTH",
"147 468 OFFCURVE",
"203 484 OFFCURVE",
"246 484 CURVE SMOOTH",
"296 484 OFFCURVE",
"343 464 OFFCURVE",
"397 434 CURVE",
"407 530 LINE",
"379 548 OFFCURVE",
"312 571 OFFCURVE",
"242 571 CURVE SMOOTH",
"101 571 OFFCURVE",
"54 478 OFFCURVE",
"54 406 CURVE SMOOTH",
"54 307 OFFCURVE",
"134 279 OFFCURVE",
"210 251 CURVE SMOOTH",
"275 227 OFFCURVE",
"333 206 OFFCURVE",
"333 147 CURVE SMOOTH",
"333 95 OFFCURVE",
"292 77 OFFCURVE",
"236 77 CURVE SMOOTH",
"159 77 OFFCURVE",
"102 106 OFFCURVE",
"72 135 CURVE",
"61 28 LINE",
"91 8 OFFCURVE",
"155 -11 OFFCURVE",
"234 -11 CURVE SMOOTH"
);
}
);
width = 482;
},
{
layerId = "3AF73D1F-32CE-4CF3-BC01-E4A23F7DE30A";
paths = (
{
closed = 1;
nodes = (
"242 -12 LINE",
"419 -12 OFFCURVE",
"448 93 OFFCURVE",
"448 162 CURVE SMOOTH",
"448 290 OFFCURVE",
"348 325 OFFCURVE",
"273 350 CURVE SMOOTH",
"219 368 OFFCURVE",
"170 384 OFFCURVE",
"170 427 CURVE SMOOTH",
"170 471 OFFCURVE",
"220 475 OFFCURVE",
"251 475 CURVE SMOOTH",
"301 475 OFFCURVE",
"350 460 OFFCURVE",
"411 423 CURVE",
"423 545 LINE",
"398 566 OFFCURVE",
"326 593 OFFCURVE",
"250 593 CURVE SMOOTH",
"107 593 OFFCURVE",
"55 495 OFFCURVE",
"55 415 CURVE SMOOTH",
"55 309 OFFCURVE",
"134 279 OFFCURVE",
"201 252 CURVE SMOOTH",
"258 229 OFFCURVE",
"317 211 OFFCURVE",
"317 156 CURVE SMOOTH",
"317 118 OFFCURVE",
"296 107 OFFCURVE",
"245 107 CURVE SMOOTH",
"159 107 OFFCURVE",
"99 138 OFFCURVE",
"74 170 CURVE",
"62 33 LINE",
"92 10 OFFCURVE",
"158 -12 OFFCURVE",
"242 -12 CURVE SMOOTH"
);
}
);
width = 497;
}
);
},
{
glyphname = T;
lastChange = "2016-08-23 12:44:07 +0000";
layers = (
{
layerId = UUID0;
paths = (
{
closed = 1;
nodes = (
"458 614 LINE",
"458 700 LINE",
"18 700 LINE",
"18 614 LINE",
"191 614 LINE",
"191 0 LINE",
"285 0 LINE",
"285 614 LINE"
);
}
);
width = 476;
},
{
layerId = "3AF73D1F-32CE-4CF3-BC01-E4A23F7DE30A";
paths = (
{
closed = 1;
nodes = (
"467 576 LINE",
"467 700 LINE",
"9 700 LINE",
"9 576 LINE",
"177 576 LINE",
"177 0 LINE",
"299 0 LINE",
"299 576 LINE"
);
}
);
width = 476;
}
);
unicode = 0054;
},
{
glyphname = T.sc;
lastChange = "2016-08-23 12:44:07 +0000";
layers = (
{
layerId = UUID0;
paths = (
{
closed = 1;
nodes = (
"424 472 LINE",
"424 560 LINE",
"38 560 LINE",
"38 472 LINE",
"185 472 LINE",
"185 0 LINE",
"277 0 LINE",
"277 472 LINE"
);
}
);
width = 462;
},
{
layerId = "3AF73D1F-32CE-4CF3-BC01-E4A23F7DE30A";
paths = (
{
closed = 1;
nodes = (
"446 461 LINE",
"446 581 LINE",
"32 581 LINE",
"32 461 LINE",
"180 461 LINE",
"180 0 LINE",
"298 0 LINE",
"298 461 LINE"
);
}
);
width = 477;
}
);
},
{
glyphname = Thorn;
lastChange = "2016-08-23 12:44:07 +0000";
layers = (
{
layerId = UUID0;
paths = (
{
closed = 1;
nodes = (
"291 125 LINE SMOOTH",
"373 125 OFFCURVE",
"487 180 OFFCURVE",
"487 362 CURVE SMOOTH",
"487 550 OFFCURVE",
"392 580 OFFCURVE",
"257 580 CURVE",
"170 580 LINE",
"170 700 LINE",
"74 700 LINE",
"74 0 LINE",
"170 0 LINE",
"170 125 LINE"
);
},
{
closed = 1;
nodes = (
"261 495 LINE SMOOTH",
"361 495 OFFCURVE",
"391 458 OFFCURVE",
"391 358 CURVE SMOOTH",
"391 264 OFFCURVE",
"358 210 OFFCURVE",
"276 210 CURVE SMOOTH",
"170 210 LINE",
"170 495 LINE"
);
}
);
width = 505;
},
{
layerId = "3AF73D1F-32CE-4CF3-BC01-E4A23F7DE30A";
paths = (
{
closed = 1;
nodes = (
"278 114 LINE SMOOTH",
"365 114 OFFCURVE",
"499 161 OFFCURVE",
"499 362 CURVE SMOOTH",
"499 554 OFFCURVE",
"411 584 OFFCURVE",
"221 584 CURVE",
"180 584 LINE",
"180 700 LINE",
"60 700 LINE",
"60 0 LINE",
"180 0 LINE",
"180 114 LINE"
);
},
{
closed = 1;
nodes = (
"270 477 LINE SMOOTH",
"356 477 OFFCURVE",
"376 441 OFFCURVE",
"376 361 CURVE SMOOTH",
"376 266 OFFCURVE",
"342 234 OFFCURVE",
"264 234 CURVE SMOOTH",
"180 234 LINE",
"180 477 LINE"
);
}
);
width = 519;
}
);
leftKerningGroup = I;
unicode = 00DE;
},
{
glyphname = U;
lastChange = "2016-08-23 12:44:07 +0000";
layers = (
{
layerId = UUID0;
paths = (
{
closed = 1;
nodes = (
"308 -14 LINE",
"478 -14 OFFCURVE",
"558 105 OFFCURVE",
"558 297 CURVE SMOOTH",
"558 700 LINE",
"464 700 LINE",
"464 343 LINE SMOOTH",
"464 206 OFFCURVE",
"440 72 OFFCURVE",
"308 72 CURVE SMOOTH",
"177 72 OFFCURVE",
"153 205 OFFCURVE",
"153 343 CURVE SMOOTH",
"153 700 LINE",
"59 700 LINE",
"59 297 LINE SMOOTH",
"59 105 OFFCURVE",
"139 -14 OFFCURVE",
"308 -14 CURVE SMOOTH"
);
}
);
width = 617;
},
{
layerId = "3AF73D1F-32CE-4CF3-BC01-E4A23F7DE30A";
paths = (
{
closed = 1;
nodes = (
"308 -14 LINE",
"478 -14 OFFCURVE",
"558 110 OFFCURVE",
"558 300 CURVE SMOOTH",
"558 700 LINE",
"435 700 LINE",
"435 343 LINE SMOOTH",
"435 213 OFFCURVE",
"413 109 OFFCURVE",
"308 109 CURVE SMOOTH",
"204 109 OFFCURVE",
"181 213 OFFCURVE",
"181 343 CURVE SMOOTH",
"181 700 LINE",
"59 700 LINE",
"59 300 LINE SMOOTH",
"59 110 OFFCURVE",
"139 -14 OFFCURVE",
"308 -14 CURVE SMOOTH"
);
}
);
width = 617;
}
);
leftKerningGroup = U;
rightKerningGroup = U;
unicode = 0055;
},
{
glyphname = U.sc;
lastChange = "2016-08-23 12:44:07 +0000";
layers = (
{
layerId = UUID0;
paths = (
{
closed = 1;
nodes = (
"292 -11 LINE",
"438 -11 OFFCURVE",
"507 87 OFFCURVE",
"507 239 CURVE SMOOTH",
"507 560 LINE",
"416 560 LINE",
"416 274 LINE SMOOTH",
"416 168 OFFCURVE",
"396 77 OFFCURVE",
"292 77 CURVE SMOOTH",
"188 77 OFFCURVE",
"168 168 OFFCURVE",
"168 274 CURVE SMOOTH",
"168 560 LINE",
"77 560 LINE",
"77 239 LINE SMOOTH",
"77 87 OFFCURVE",
"146 -11 OFFCURVE",
"292 -11 CURVE SMOOTH"
);
}
);
width = 584;
},
{
layerId = "3AF73D1F-32CE-4CF3-BC01-E4A23F7DE30A";
paths = (
{
closed = 1;
nodes = (
"301 -12 LINE",
"454 -12 OFFCURVE",
"524 94 OFFCURVE",
"524 250 CURVE SMOOTH",
"524 581 LINE",
"407 581 LINE",
"407 285 LINE SMOOTH",
"407 180 OFFCURVE",
"388 107 OFFCURVE",
"301 107 CURVE SMOOTH",
"215 107 OFFCURVE",
"196 180 OFFCURVE",
"196 285 CURVE SMOOTH",
"196 581 LINE",
"79 581 LINE",
"79 250 LINE SMOOTH",
"79 94 OFFCURVE",
"151 -12 OFFCURVE",
"301 -12 CURVE SMOOTH"
);
}
);
width = 603;
}
);
},
{
glyphname = V;
lastChange = "2016-08-23 12:44:07 +0000";
layers = (
{
layerId = UUID0;
paths = (
{
closed = 1;
nodes = (
"559 700 LINE",
"462 700 LINE",
"284 109 LINE",
"104 700 LINE",
"6 700 LINE",
"231 0 LINE",
"337 0 LINE"
);
}
);
width = 566;
},
{
layerId = "3AF73D1F-32CE-4CF3-BC01-E4A23F7DE30A";
paths = (
{
closed = 1;
nodes = (
"566 700 LINE",
"441 700 LINE",
"284 169 LINE",
"124 700 LINE",
"-3 700 LINE",
"208 0 LINE",
"363 0 LINE"
);
}
);
width = 565;
}
);
unicode = 0056;
},
{
glyphname = V.sc;
lastChange = "2016-08-23 12:44:07 +0000";
layers = (
{
layerId = UUID0;
paths = (
{
closed = 1;
nodes = (
"511 560 LINE",
"417 560 LINE",
"271 118 LINE",
"123 560 LINE",
"28 560 LINE",
"217 0 LINE",
"326 0 LINE"
);
}
);
width = 540;
},
{
layerId = "3AF73D1F-32CE-4CF3-BC01-E4A23F7DE30A";
paths = (
{
closed = 1;
nodes = (
"533 581 LINE",
"414 581 LINE",
"280 167 LINE",
"142 581 LINE",
"21 581 LINE",
"206 0 LINE",
"357 0 LINE"
);
}
);
width = 556;
}
);
},
{
glyphname = W;
lastChange = "2016-08-23 12:44:07 +0000";
layers = (
{
layerId = UUID0;
paths = (
{
closed = 1;
nodes = (
"823 700 LINE",
"726 700 LINE",
"600 119 LINE",
"454 686 LINE",
"378 686 LINE",
"235 118 LINE",
"107 700 LINE",
"9 700 LINE",
"178 0 LINE",
"274 0 LINE",
"415 553 LINE",
"554 0 LINE",
"647 0 LINE"
);
}
);
width = 827;
},
{
layerId = "3AF73D1F-32CE-4CF3-BC01-E4A23F7DE30A";
paths = (
{
closed = 1;
nodes = (
"823 700 LINE",
"697 700 LINE",
"589 216 LINE",
"455 700 LINE",
"378 700 LINE",
"250 203 LINE",
"136 700 LINE",
"9 700 LINE",
"179 0 LINE",
"289 0 LINE",
"416 467 LINE",
"547 0 LINE",
"647 0 LINE"
);
}
);
width = 831;
}
);
unicode = 0057;
},
{
glyphname = W.sc;
lastChange = "2016-08-23 12:44:07 +0000";
layers = (
{
layerId = UUID0;
paths = (
{
closed = 1;
nodes = (
"736 560 LINE",
"642 560 LINE",
"540 142 LINE",
"418 556 LINE",
"352 556 LINE",
"235 135 LINE",
"129 560 LINE",
"34 560 LINE",
"180 0 LINE",
"268 0 LINE",
"385 404 LINE",
"501 0 LINE",
"585 0 LINE"
);
}
);
width = 766;
},
{
layerId = "3AF73D1F-32CE-4CF3-BC01-E4A23F7DE30A";
paths = (
{
closed = 1;
nodes = (
"762 581 LINE",
"642 581 LINE",
"550 227 LINE",
"433 587 LINE",
"364 587 LINE",
"255 211 LINE",
"156 581 LINE",
"35 581 LINE",
"187 0 LINE",
"289 0 LINE",
"399 340 LINE",
"514 0 LINE",
"605 0 LINE"
);
}
);
width = 795;
}
);
},
{
glyphname = X;
lastChange = "2016-08-23 12:44:07 +0000";
layers = (
{
layerId = UUID0;
paths = (
{
closed = 1;
nodes = (
"528 0 LINE",
"315 361 LINE",
"523 700 LINE",
"420 700 LINE",
"270 427 LINE",
"121 700 LINE",
"13 700 LINE",
"215 349 LINE",
"9 0 LINE",
"112 0 LINE",
"263 286 LINE",
"425 0 LINE"
);
}
);
width = 547;
},
{
layerId = "3AF73D1F-32CE-4CF3-BC01-E4A23F7DE30A";
paths = (
{
closed = 1;
nodes = (
"543 0 LINE",
"335 363 LINE",
"526 700 LINE",
"382 700 LINE",
"272 454 LINE",
"139 700 LINE",
"-2 700 LINE",
"201 349 LINE",
"-16 0 LINE",
"128 0 LINE",
"263 257 LINE",
"397 0 LINE"
);
}
);
width = 518;
}
);
unicode = 0058;
},
{
glyphname = X.sc;
lastChange = "2016-08-23 12:44:07 +0000";
layers = (
{
layerId = UUID0;
paths = (
{
closed = 1;
nodes = (
"487 0 LINE",
"305 290 LINE",
"478 560 LINE",
"375 560 LINE",
"259 355 LINE",
"137 560 LINE",
"32 560 LINE",
"207 279 LINE",
"25 0 LINE",
"128 0 LINE",
"253 214 LINE",
"383 0 LINE"
);
}
);
width = 513;
},
{
layerId = "3AF73D1F-32CE-4CF3-BC01-E4A23F7DE30A";
paths = (
{
closed = 1;
nodes = (
"515 0 LINE",
"331 302 LINE",
"497 581 LINE",
"358 581 LINE",
"270 389 LINE",
"157 581 LINE",
"21 581 LINE",
"202 290 LINE",
"6 0 LINE",
"145 0 LINE",
"262 200 LINE",
"374 0 LINE"
);
}
);
width = 507;
}
);
},
{
glyphname = Y;
lastChange = "2016-08-23 12:44:07 +0000";
layers = (
{
layerId = UUID0;
paths = (
{
closed = 1;
nodes = (
"505 700 LINE",
"406 700 LINE",
"252 409 LINE",
"98 700 LINE",
"-1 700 LINE",
"205 323 LINE",
"205 0 LINE",
"300 0 LINE",
"300 323 LINE"
);
}
);
width = 517;
},
{
layerId = "3AF73D1F-32CE-4CF3-BC01-E4A23F7DE30A";
paths = (
{
closed = 1;
nodes = (
"522 700 LINE",
"392 700 LINE",
"252 424 LINE",
"111 700 LINE",
"-19 700 LINE",
"191 310 LINE",
"191 0 LINE",
"312 0 LINE",
"312 310 LINE"
);
}
);
width = 494;
}
);
leftKerningGroup = Y;
rightKerningGroup = Y;
unicode = 0059;
},
{
glyphname = Y.sc;
lastChange = "2016-08-23 12:44:07 +0000";
layers = (
{
layerId = UUID0;
paths = (
{
closed = 1;
nodes = (
"467 560 LINE",
"371 560 LINE",
"243 335 LINE",
"115 560 LINE",
"18 560 LINE",
"197 252 LINE",
"197 0 LINE",
"288 0 LINE",
"288 252 LINE"
);
}
);
width = 488;
},
{
layerId = "3AF73D1F-32CE-4CF3-BC01-E4A23F7DE30A";
paths = (
{
closed = 1;
nodes = (
"496 581 LINE",
"372 581 LINE",
"251 359 LINE",
"129 581 LINE",
"4 581 LINE",
"193 251 LINE",
"193 0 LINE",
"307 0 LINE",
"307 251 LINE"
);
}
);
width = 486;
}
);
},
{
glyphname = Z;
lastChange = "2016-08-23 12:44:07 +0000";
layers = (
{
layerId = UUID0;
paths = (
{
closed = 1;
nodes = (
"465 700 LINE",
"46 700 LINE",
"46 614 LINE",
"311 614 LINE",
"7 0 LINE",
"427 0 LINE",
"427 86 LINE",
"161 86 LINE"
);
}
);
width = 480;
},
{
layerId = "3AF73D1F-32CE-4CF3-BC01-E4A23F7DE30A";
paths = (
{
closed = 1;
nodes = (
"465 700 LINE",
"46 700 LINE",
"46 576 LINE",
"264 576 LINE",
"7 0 LINE",
"427 0 LINE",
"427 124 LINE",
"209 124 LINE"
);
}
);
width = 463;
}
);
leftKerningGroup = Z;
rightKerningGroup = Z;
unicode = 005A;
},
{
glyphname = Z.sc;
lastChange = "2016-08-23 12:44:07 +0000";
layers = (
{
layerId = UUID0;
paths = (
{
closed = 1;
nodes = (
"427 560 LINE",
"65 560 LINE",
"65 472 LINE",
"277 472 LINE",
"32 0 LINE",
"394 0 LINE",
"394 88 LINE",
"182 88 LINE"
);
}
);
width = 459;
},
{
layerId = "3AF73D1F-32CE-4CF3-BC01-E4A23F7DE30A";
paths = (
{
closed = 1;
nodes = (
"441 581 LINE",
"67 581 LINE",
"67 461 LINE",
"249 461 LINE",
"32 0 LINE",
"406 0 LINE",
"406 120 LINE",
"225 120 LINE"
);
}
);
width = 460;
}
);
},
{
glyphname = a;
lastChange = "2016-08-23 12:44:07 +0000";
layers = (
{
layerId = UUID0;
paths = (
{
closed = 1;
nodes = (
"416 62 LINE",
"405 62 LINE SMOOTH",
"367 62 OFFCURVE",
"362 95 OFFCURVE",
"362 165 CURVE SMOOTH",
"362 265 LINE SMOOTH",
"362 442 OFFCURVE",
"312 500 OFFCURVE",
"210 500 CURVE SMOOTH",
"155 500 OFFCURVE",
"103 479 OFFCURVE",
"61 449 CURVE",
"72 376 LINE",
"117 412 OFFCURVE",
"151 420 OFFCURVE",
"186 420 CURVE SMOOTH",
"243 420 OFFCURVE",
"271 400 OFFCURVE",
"272 307 CURVE",
"175 305 OFFCURVE",
"24 270 OFFCURVE",
"24 132 CURVE SMOOTH",
"24 50 OFFCURVE",
"77 -10 OFFCURVE",
"152 -10 CURVE SMOOTH",
"205 -10 OFFCURVE",
"251 19 OFFCURVE",
"282 62 CURVE",
"299 16 OFFCURVE",
"321 -10 OFFCURVE",
"385 -10 CURVE SMOOTH",
"405 -10 LINE"
);
},
{
closed = 1;
nodes = (
"272 128 LINE",
"248 88 OFFCURVE",
"211 62 OFFCURVE",
"179 62 CURVE SMOOTH",
"139 62 OFFCURVE",
"117 84 OFFCURVE",
"117 137 CURVE SMOOTH",
"117 210 OFFCURVE",
"175 240 OFFCURVE",
"272 245 CURVE"
);
}
);
width = 434;
},
{
layerId = "3AF73D1F-32CE-4CF3-BC01-E4A23F7DE30A";
paths = (
{
closed = 1;
nodes = (
"419 92 LINE",
"403 92 LINE SMOOTH",
"378 92 OFFCURVE",
"370 97 OFFCURVE",
"370 172 CURVE SMOOTH",
"370 307 LINE SMOOTH",
"370 452 OFFCURVE",
"303 508 OFFCURVE",
"211 508 CURVE SMOOTH",
"159 508 OFFCURVE",
"108 493 OFFCURVE",
"49 464 CURVE",
"57 363 LINE",
"103 389 OFFCURVE",
"136 401 OFFCURVE",
"178 401 CURVE SMOOTH",
"231 401 OFFCURVE",
"246 376 OFFCURVE",
"249 319 CURVE",
"180 316 OFFCURVE",
"12 281 OFFCURVE",
"12 140 CURVE SMOOTH",
"12 45 OFFCURVE",
"70 -10 OFFCURVE",
"134 -10 CURVE SMOOTH",
"185 -10 OFFCURVE",
"240 11 OFFCURVE",
"267 48 CURVE",
"283 13 OFFCURVE",
"322 -10 OFFCURVE",
"358 -10 CURVE SMOOTH",
"411 -10 LINE"
);
},
{
closed = 1;
nodes = (
"250 121 LINE",
"229 96 OFFCURVE",
"201 85 OFFCURVE",
"192 85 CURVE SMOOTH",
"151 85 OFFCURVE",
"138 104 OFFCURVE",
"138 145 CURVE SMOOTH",
"138 204 OFFCURVE",
"217 232 OFFCURVE",
"250 235 CURVE"
);
}
);
width = 423;
}
);
leftKerningGroup = a;
rightKerningGroup = a;
unicode = 0061;
},
{
glyphname = acute;
lastChange = "2016-08-23 12:44:07 +0000";
layers = (
{
layerId = UUID0;
paths = (
{
closed = 1;
nodes = (
"211 660 LINE",
"211 732 LINE",
"50 637 LINE",
"50 596 LINE"
);
}
);
width = 261;
},
{
layerId = "3AF73D1F-32CE-4CF3-BC01-E4A23F7DE30A";
paths = (
{
closed = 1;
nodes = (
"211 646 LINE",
"211 750 LINE",
"50 659 LINE",
"50 585 LINE"
);
}
);
width = 261;
}
);
unicode = 00B4;
},
{
glyphname = ae;
lastChange = "2016-08-23 12:44:07 +0000";
layers = (
{
layerId = UUID0;
paths = (
{
closed = 1;
nodes = (
"654 245 LINE",
"656 261 OFFCURVE",
"659 279 OFFCURVE",
"659 300 CURVE SMOOTH",
"659 429 OFFCURVE",
"591 500 OFFCURVE",
"492 500 CURVE SMOOTH",
"423 500 OFFCURVE",
"356 469 OFFCURVE",
"336 380 CURVE",
"318 481 OFFCURVE",
"252 500 OFFCURVE",
"202 500 CURVE SMOOTH",
"158 500 OFFCURVE",
"109 487 OFFCURVE",
"59 461 CURVE",
"67 391 LINE",
"108 410 OFFCURVE",
"140 420 OFFCURVE",
"177 420 CURVE SMOOTH",
"239 420 OFFCURVE",
"262 387 OFFCURVE",
"269 307 CURVE",
"173 301 OFFCURVE",
"17 270 OFFCURVE",
"17 118 CURVE SMOOTH",
"17 38 OFFCURVE",
"63 -14 OFFCURVE",
"151 -14 CURVE SMOOTH",
"231 -14 OFFCURVE",
"292 25 OFFCURVE",
"325 103 CURVE",
"355 22 OFFCURVE",
"414 -10 OFFCURVE",
"497 -10 CURVE SMOOTH",
"556 -10 OFFCURVE",
"600 8 OFFCURVE",
"639 30 CURVE",
"628 99 LINE",
"586 76 OFFCURVE",
"546 62 OFFCURVE",
"506 62 CURVE SMOOTH",
"434 62 OFFCURVE",
"377 122 OFFCURVE",
"372 245 CURVE"
);
},
{
closed = 1;
nodes = (
"488 420 LINE SMOOTH",
"548 420 OFFCURVE",
"576 386 OFFCURVE",
"576 307 CURVE",
"377 307 LINE",
"391 387 OFFCURVE",
"432 420 OFFCURVE",
"488 420 CURVE SMOOTH"
);
},
{
closed = 1;
nodes = (
"276 245 LINE",
"277 227 OFFCURVE",
"277 211 OFFCURVE",
"277 198 CURVE SMOOTH",
"277 97 OFFCURVE",
"219 62 OFFCURVE",
"170 62 CURVE SMOOTH",
"137 62 OFFCURVE",
"110 79 OFFCURVE",
"110 126 CURVE SMOOTH",
"110 215 OFFCURVE",
"205 245 OFFCURVE",
"276 245 CURVE"
);
}
);
width = 683;
},
{
layerId = "3AF73D1F-32CE-4CF3-BC01-E4A23F7DE30A";
paths = (
{
closed = 1;
nodes = (
"650 223 LINE",
"656 247 OFFCURVE",
"659 268 OFFCURVE",
"659 293 CURVE SMOOTH",
"659 424 OFFCURVE",
"586 508 OFFCURVE",
"486 508 CURVE SMOOTH",
"408 508 OFFCURVE",
"351 462 OFFCURVE",
"342 419 CURVE",
"319 488 OFFCURVE",
"292 508 OFFCURVE",
"215 508 CURVE SMOOTH",
"158 508 OFFCURVE",
"103 493 OFFCURVE",
"50 464 CURVE",
"61 363 LINE",
"110 389 OFFCURVE",
"144 401 OFFCURVE",
"184 401 CURVE SMOOTH",
"238 401 OFFCURVE",
"253 375 OFFCURVE",
"252 314 CURVE",
"175 309 OFFCURVE",
"17 281 OFFCURVE",
"17 127 CURVE SMOOTH",
"17 40 OFFCURVE",
"71 -15 OFFCURVE",
"163 -15 CURVE SMOOTH",
"244 -15 OFFCURVE",
"284 28 OFFCURVE",
"325 84 CURVE",
"349 28 OFFCURVE",
"407 -10 OFFCURVE",
"497 -10 CURVE SMOOTH",
"558 -10 OFFCURVE",
"612 8 OFFCURVE",
"640 28 CURVE",
"639 133 LINE",
"609 111 OFFCURVE",
"539 92 OFFCURVE",
"499 92 CURVE SMOOTH",
"454 92 OFFCURVE",
"402 130 OFFCURVE",
"385 223 CURVE"
);
},
{
closed = 1;
nodes = (
"482 406 LINE SMOOTH",
"542 406 OFFCURVE",
"554 352 OFFCURVE",
"554 307 CURVE",
"385 307 LINE",
"392 365 OFFCURVE",
"432 406 OFFCURVE",
"482 406 CURVE SMOOTH"
);
},
{
closed = 1;
nodes = (
"259 230 LINE",
"260 219 OFFCURVE",
"260 213 OFFCURVE",
"260 202 CURVE SMOOTH",
"260 122 OFFCURVE",
"219 81 OFFCURVE",
"188 81 CURVE SMOOTH",
"164 81 OFFCURVE",
"143 103 OFFCURVE",
"143 138 CURVE SMOOTH",
"143 204 OFFCURVE",
"211 229 OFFCURVE",
"259 230 CURVE"
);
}
);
width = 683;
}
);
leftKerningGroup = a;
rightKerningGroup = e;
unicode = 00E6;
},
{
glyphname = ampersand;
lastChange = "2016-08-23 12:44:07 +0000";
layers = (
{
layerId = UUID0;
paths = (
{
closed = 1;
nodes = (
"520 0 LINE",
"438 100 LINE",
"480 184 OFFCURVE",
"487 292 OFFCURVE",
"488 351 CURVE",
"405 351 LINE",
"404 309 OFFCURVE",
"400 197 OFFCURVE",
"382 161 CURVE",
"237 356 LINE",
"302 406 OFFCURVE",
"370 480 OFFCURVE",
"370 577 CURVE SMOOTH",
"370 648 OFFCURVE",
"327 703 OFFCURVE",
"241 703 CURVE SMOOTH",
"150 703 OFFCURVE",
"70 641 OFFCURVE",
"70 536 CURVE SMOOTH",
"70 490 OFFCURVE",
"92 437 OFFCURVE",
"135 366 CURVE",
"67 303 OFFCURVE",
"28 239 OFFCURVE",
"28 162 CURVE SMOOTH",
"28 60 OFFCURVE",
"87 -23 OFFCURVE",
"228 -23 CURVE SMOOTH",
"296 -23 OFFCURVE",
"343 -6 OFFCURVE",
"389 46 CURVE",
"422 0 LINE"
);
},
{
closed = 1;
nodes = (
"233 634 LINE",
"269 634 OFFCURVE",
"293 607 OFFCURVE",
"293 559 CURVE SMOOTH",
"293 498 OFFCURVE",
"255 467 OFFCURVE",
"199 406 CURVE",
"165 461 OFFCURVE",
"155 504 OFFCURVE",
"155 534 CURVE SMOOTH",
"155 601 OFFCURVE",
"191 634 OFFCURVE",
"233 634 CURVE SMOOTH"
);
},
{
closed = 1;
nodes = (
"343 105 LINE",
"319 69 OFFCURVE",
"286 45 OFFCURVE",
"235 45 CURVE SMOOTH",
"149 45 OFFCURVE",
"118 101 OFFCURVE",
"118 169 CURVE SMOOTH",
"118 228 OFFCURVE",
"142 280 OFFCURVE",
"177 313 CURVE"
);
}
);
width = 540;
},
{
layerId = "3AF73D1F-32CE-4CF3-BC01-E4A23F7DE30A";
paths = (
{
closed = 1;
nodes = (
"550 0 LINE",
"453 120 LINE",
"485 200 OFFCURVE",
"490 295 OFFCURVE",
"489 352 CURVE",
"373 352 LINE",
"372 309 OFFCURVE",
"375 258 OFFCURVE",
"375 211 CURVE",
"273 371 LINE",
"331 422 OFFCURVE",
"387 472 OFFCURVE",
"387 560 CURVE SMOOTH",
"387 645 OFFCURVE",
"333 703 OFFCURVE",
"244 703 CURVE SMOOTH",
"155 703 OFFCURVE",
"67 642 OFFCURVE",
"67 538 CURVE SMOOTH",
"67 475 OFFCURVE",
"104 417 OFFCURVE",
"131 367 CURVE",
"84 319 OFFCURVE",
"28 260 OFFCURVE",
"28 168 CURVE SMOOTH",
"28 68 OFFCURVE",
"91 -24 OFFCURVE",
"228 -24 CURVE SMOOTH",
"300 -24 OFFCURVE",
"353 -1 OFFCURVE",
"385 34 CURVE",
"407 0 LINE"
);
},
{
closed = 1;
nodes = (
"242 604 LINE",
"266 604 OFFCURVE",
"281 589 OFFCURVE",
"281 546 CURVE SMOOTH",
"281 500 OFFCURVE",
"254 466 OFFCURVE",
"223 432 CURVE",
"202 471 OFFCURVE",
"187 500 OFFCURVE",
"187 533 CURVE SMOOTH",
"187 580 OFFCURVE",
"208 604 OFFCURVE",
"242 604 CURVE SMOOTH"
);
},
{
closed = 1;
nodes = (
"324 105 LINE",
"306 84 OFFCURVE",
"282 71 OFFCURVE",
"249 71 CURVE SMOOTH",
"167 71 OFFCURVE",
"155 127 OFFCURVE",
"155 179 CURVE SMOOTH",
"155 229 OFFCURVE",
"168 267 OFFCURVE",
"188 300 CURVE"
);
}
);
width = 540;
}
);
unicode = 0026;
},
{
glyphname = asciicircum;
lastChange = "2016-08-23 12:44:07 +0000";
layers = (
{
layerId = UUID0;
paths = (
{
closed = 1;
nodes = (
"396 437 LINE",
"396 543 LINE",
"219 759 LINE",
"42 543 LINE",
"42 437 LINE",
"219 653 LINE"
);
}
);
width = 439;
},
{
layerId = "3AF73D1F-32CE-4CF3-BC01-E4A23F7DE30A";
paths = (
{
closed = 1;
nodes = (
"396 400 LINE",
"396 547 LINE",
"219 759 LINE",
"42 547 LINE",
"42 400 LINE",
"219 612 LINE"
);
}
);
width = 439;
}
);
unicode = 005E;
},
{
glyphname = asciitilde;
lastChange = "2016-08-23 12:44:07 +0000";
layers = (
{
layerId = UUID0;
paths = (
{
closed = 1;
nodes = (
"285 179 LINE SMOOTH",
"335 179 OFFCURVE",
"371 215 OFFCURVE",
"381 273 CURVE",
"337 282 LINE",
"327 250 OFFCURVE",
"309 231 OFFCURVE",
"282 231 CURVE SMOOTH",
"251 231 OFFCURVE",
"212 280 OFFCURVE",
"169 280 CURVE SMOOTH",
"132 280 OFFCURVE",
"84 256 OFFCURVE",
"73 190 CURVE",
"121 181 LINE",
"128 211 OFFCURVE",
"144 230 OFFCURVE",
"174 230 CURVE SMOOTH",
"203 230 OFFCURVE",
"247 179 OFFCURVE",
"285 179 CURVE SMOOTH"
);
}
);
width = 396;
},
{
layerId = "3AF73D1F-32CE-4CF3-BC01-E4A23F7DE30A";
paths = (
{
closed = 1;
nodes = (
"288 176 LINE SMOOTH",
"353 176 OFFCURVE",
"389 228 OFFCURVE",
"394 278 CURVE",
"313 298 LINE",
"314 278 OFFCURVE",
"294 251 OFFCURVE",
"268 251 CURVE SMOOTH",
"234 251 OFFCURVE",
"233 293 OFFCURVE",
"175 293 CURVE SMOOTH",
"120 293 OFFCURVE",
"62 258 OFFCURVE",
"59 191 CURVE",
"148 171 LINE",
"149 191 OFFCURVE",
"158 218 OFFCURVE",
"181 218 CURVE SMOOTH",
"215 218 OFFCURVE",
"235 176 OFFCURVE",
"288 176 CURVE SMOOTH"
);
}
);
width = 397;
}
);
unicode = 007E;
},
{
glyphname = asterisk;
lastChange = "2016-08-23 12:44:07 +0000";
layers = (
{
layerId = UUID0;
paths = (
{
closed = 1;
nodes = (
"275 427 LINE",
"316 459 LINE",
"216 574 LINE",
"352 637 LINE",
"324 679 LINE",
"201 593 LINE",
"222 749 LINE",
"165 749 LINE",
"184 593 LINE",
"62 679 LINE",
"34 638 LINE",
"170 573 LINE",
"73 456 LINE",
"113 424 LINE",
"194 560 LINE"
);
}
);
width = 386;
},
{
layerId = "3AF73D1F-32CE-4CF3-BC01-E4A23F7DE30A";
paths = (
{
closed = 1;
nodes = (
"262 412 LINE",
"332 477 LINE",
"226 567 LINE",
"363 617 LINE",
"314 699 LINE",
"204 592 LINE",
"243 749 LINE",
"144 749 LINE",
"182 592 LINE",
"73 699 LINE",
"24 617 LINE",
"166 565 LINE",
"57 474 LINE",
"127 409 LINE",
"196 549 LINE"
);
}
);
width = 387;
}
);
unicode = 002A;
},
{
glyphname = at;
lastChange = "2016-08-23 12:44:07 +0000";
layers = (
{
layerId = UUID0;
paths = (
{
closed = 1;
nodes = (
"462 379 LINE",
"440 272 OFFCURVE",
"414 204 OFFCURVE",
"414 145 CURVE SMOOTH",
"414 100 OFFCURVE",
"430 94 OFFCURVE",
"451 94 CURVE SMOOTH",
"540 94 OFFCURVE",
"573 199 OFFCURVE",
"573 300 CURVE SMOOTH",
"573 454 OFFCURVE",
"494 553 OFFCURVE",
"359 553 CURVE SMOOTH",
"186 553 OFFCURVE",
"35 388 OFFCURVE",
"35 170 CURVE SMOOTH",
"35 8 OFFCURVE",
"118 -87 OFFCURVE",
"248 -87 CURVE SMOOTH",
"368 -87 OFFCURVE",
"476 -8 OFFCURVE",
"530 106 CURVE",
"503 73 OFFCURVE",
"450 42 OFFCURVE",
"419 42 CURVE SMOOTH",
"380 42 OFFCURVE",
"369 89 OFFCURVE",
"369 121 CURVE SMOOTH",
"369 136 OFFCURVE",
"371 149 OFFCURVE",
"371 156 CURVE",
"334 81 OFFCURVE",
"266 40 OFFCURVE",
"216 40 CURVE SMOOTH",
"159 40 OFFCURVE",
"138 95 OFFCURVE",
"138 153 CURVE SMOOTH",
"138 289 OFFCURVE",
"250 432 OFFCURVE",
"358 432 CURVE SMOOTH",
"405 432 OFFCURVE",
"440 405 OFFCURVE",
"462 379 CURVE"
);
},
{
closed = 1;
nodes = (
"365 371 LINE SMOOTH",
"302 371 OFFCURVE",
"207 282 OFFCURVE",
"207 173 CURVE SMOOTH",
"207 135 OFFCURVE",
"218 106 OFFCURVE",
"245 106 CURVE SMOOTH",
"302 106 OFFCURVE",
"388 242 OFFCURVE",
"404 349 CURVE",
"397 370 OFFCURVE",
"375 371 OFFCURVE",
"365 371 CURVE SMOOTH"
);
}
);
width = 607;
},
{
layerId = "3AF73D1F-32CE-4CF3-BC01-E4A23F7DE30A";
paths = (
{
closed = 1;
nodes = (
"462 379 LINE",
"440 272 OFFCURVE",
"414 204 OFFCURVE",
"414 145 CURVE SMOOTH",
"414 100 OFFCURVE",
"430 94 OFFCURVE",
"451 94 CURVE SMOOTH",
"540 94 OFFCURVE",
"573 199 OFFCURVE",
"573 300 CURVE SMOOTH",
"573 454 OFFCURVE",
"494 553 OFFCURVE",
"359 553 CURVE SMOOTH",
"186 553 OFFCURVE",
"35 388 OFFCURVE",
"35 170 CURVE SMOOTH",
"35 8 OFFCURVE",
"118 -87 OFFCURVE",
"248 -87 CURVE SMOOTH",
"368 -87 OFFCURVE",
"476 -8 OFFCURVE",
"530 106 CURVE",
"503 73 OFFCURVE",
"450 42 OFFCURVE",
"419 42 CURVE SMOOTH",
"380 42 OFFCURVE",
"369 89 OFFCURVE",
"369 121 CURVE SMOOTH",
"369 136 OFFCURVE",
"371 149 OFFCURVE",
"371 156 CURVE",
"334 81 OFFCURVE",
"266 40 OFFCURVE",
"216 40 CURVE SMOOTH",
"159 40 OFFCURVE",
"138 95 OFFCURVE",
"138 153 CURVE SMOOTH",
"138 289 OFFCURVE",
"250 432 OFFCURVE",
"358 432 CURVE SMOOTH",
"405 432 OFFCURVE",
"440 405 OFFCURVE",
"462 379 CURVE"
);
},
{
closed = 1;
nodes = (
"365 371 LINE SMOOTH",
"302 371 OFFCURVE",
"207 282 OFFCURVE",
"207 173 CURVE SMOOTH",
"207 135 OFFCURVE",
"218 106 OFFCURVE",
"245 106 CURVE SMOOTH",
"302 106 OFFCURVE",
"388 242 OFFCURVE",
"404 349 CURVE",
"397 370 OFFCURVE",
"375 371 OFFCURVE",
"365 371 CURVE SMOOTH"
);
}
);
width = 607;
}
);
unicode = 0040;
},
{
glyphname = b;
lastChange = "2016-08-23 12:44:07 +0000";
layers = (
{
layerId = UUID0;
paths = (
{
closed = 1;
nodes = (
"257 -10 LINE SMOOTH",
"377 -10 OFFCURVE",
"456 102 OFFCURVE",
"456 245 CURVE SMOOTH",
"456 379 OFFCURVE",
"384 500 OFFCURVE",
"258 500 CURVE SMOOTH",
"217 500 OFFCURVE",
"172 488 OFFCURVE",
"140 437 CURVE",
"140 750 LINE",
"50 750 LINE",
"50 0 LINE",
"132 0 LINE",
"137 62 LINE",
"169 14 OFFCURVE",
"215 -10 OFFCURVE",
"257 -10 CURVE SMOOTH"
);
},
{
closed = 1;
nodes = (
"249 420 LINE SMOOTH",
"321 420 OFFCURVE",
"365 345 OFFCURVE",
"365 245 CURVE SMOOTH",
"365 149 OFFCURVE",
"321 70 OFFCURVE",
"249 70 CURVE SMOOTH",
"185 70 OFFCURVE",
"135 122 OFFCURVE",
"135 245 CURVE SMOOTH",
"135 363 OFFCURVE",
"185 420 OFFCURVE",
"249 420 CURVE SMOOTH"
);
}
);
width = 492;
},
{
layerId = "3AF73D1F-32CE-4CF3-BC01-E4A23F7DE30A";
paths = (
{
closed = 1;
nodes = (
"257 -10 LINE SMOOTH",
"408 -10 OFFCURVE",
"477 109 OFFCURVE",
"477 249 CURVE SMOOTH",
"477 389 OFFCURVE",
"403 508 OFFCURVE",
"257 508 CURVE SMOOTH",
"209 508 OFFCURVE",
"193 496 OFFCURVE",
"169 475 CURVE",
"169 750 LINE",
"50 750 LINE",
"50 0 LINE",
"163 0 LINE",
"162 28 LINE",
"191 4 OFFCURVE",
"206 -10 OFFCURVE",
"257 -10 CURVE SMOOTH"
);
},
{
closed = 1;
nodes = (
"251 406 LINE SMOOTH",
"318 406 OFFCURVE",
"354 342 OFFCURVE",
"354 249 CURVE SMOOTH",
"354 156 OFFCURVE",
"318 92 OFFCURVE",
"251 92 CURVE SMOOTH",
"179 92 OFFCURVE",
"164 156 OFFCURVE",
"164 249 CURVE SMOOTH",
"164 342 OFFCURVE",
"179 406 OFFCURVE",
"251 406 CURVE SMOOTH"
);
}
);
width = 493;
}
);
leftKerningGroup = h;
rightKerningGroup = b;
unicode = 0062;
},
{
glyphname = backslash;
lastChange = "2016-08-23 12:44:07 +0000";
layers = (
{
layerId = UUID0;
paths = (
{
closed = 1;
nodes = (
"450 -85 LINE",
"130 700 LINE",
"35 700 LINE",
"355 -85 LINE"
);
}
);
width = 473;
},
{
layerId = "3AF73D1F-32CE-4CF3-BC01-E4A23F7DE30A";
paths = (
{
closed = 1;
nodes = (
"463 -85 LINE",
"153 700 LINE",
"23 700 LINE",
"332 -85 LINE"
);
}
);
width = 474;
}
);
unicode = 005C;
},
{
glyphname = bar;
lastChange = "2016-08-23 12:44:07 +0000";
layers = (
{
layerId = UUID0;
paths = (
{
closed = 1;
nodes = (
"135 -209 LINE",
"135 750 LINE",
"55 750 LINE",
"55 -209 LINE"
);
}
);
width = 190;
},
{
layerId = "3AF73D1F-32CE-4CF3-BC01-E4A23F7DE30A";
paths = (
{
closed = 1;
nodes = (
"141 -210 LINE",
"141 750 LINE",
"51 750 LINE",
"51 -210 LINE"
);
}
);
width = 191;
}
);
unicode = 007C;
},
{
glyphname = braceleft;
lastChange = "2016-08-23 12:44:07 +0000";
layers = (
{
layerId = UUID0;
paths = (
{
closed = 1;
nodes = (
"78 14 LINE",
"78 -79 OFFCURVE",
"127 -130 OFFCURVE",
"263 -135 CURVE",
"263 -66 LINE",
"153 -62 OFFCURVE",
"150 -24 OFFCURVE",
"150 105 CURVE SMOOTH",
"150 139 OFFCURVE",
"152 170 OFFCURVE",
"152 199 CURVE SMOOTH",
"152 239 OFFCURVE",
"145 266 OFFCURVE",
"92 307 CURVE",
"145 349 OFFCURVE",
"152 381 OFFCURVE",
"152 424 CURVE SMOOTH",
"152 452 OFFCURVE",
"150 483 OFFCURVE",
"150 510 CURVE SMOOTH",
"150 639 OFFCURVE",
"153 677 OFFCURVE",
"263 681 CURVE",
"263 750 LINE",
"123 745 OFFCURVE",
"78 690 OFFCURVE",
"78 600 CURVE SMOOTH",
"78 560 OFFCURVE",
"85 503 OFFCURVE",
"85 456 CURVE SMOOTH",
"85 383 OFFCURVE",
"66 341 OFFCURVE",
"19 307 CURVE",
"70 272 OFFCURVE",
"85 227 OFFCURVE",
"85 159 CURVE SMOOTH",
"85 111 OFFCURVE",
"78 54 OFFCURVE",
"78 14 CURVE SMOOTH"
);
}
);
width = 273;
},
{
layerId = "3AF73D1F-32CE-4CF3-BC01-E4A23F7DE30A";
paths = (
{
closed = 1;
nodes = (
"75 29 LINE",
"75 -82 OFFCURVE",
"126 -136 OFFCURVE",
"264 -136 CURVE",
"264 -27 LINE",
"167 -27 OFFCURVE",
"168 -10 OFFCURVE",
"168 115 CURVE SMOOTH",
"168 147 OFFCURVE",
"171 177 OFFCURVE",
"171 204 CURVE SMOOTH",
"171 246 OFFCURVE",
"164 281 OFFCURVE",
"139 307 CURVE",
"164 334 OFFCURVE",
"171 375 OFFCURVE",
"171 418 CURVE SMOOTH",
"171 445 OFFCURVE",
"168 474 OFFCURVE",
"168 500 CURVE SMOOTH",
"168 624 OFFCURVE",
"167 641 OFFCURVE",
"264 641 CURVE",
"264 750 LINE",
"121 750 OFFCURVE",
"75 691 OFFCURVE",
"75 585 CURVE SMOOTH",
"75 547 OFFCURVE",
"80 493 OFFCURVE",
"80 449 CURVE SMOOTH",
"80 372 OFFCURVE",
"61 339 OFFCURVE",
"6 307 CURVE",
"64 274 OFFCURVE",
"80 237 OFFCURVE",
"80 166 CURVE SMOOTH",
"80 121 OFFCURVE",
"75 67 OFFCURVE",
"75 29 CURVE SMOOTH"
);
}
);
width = 274;
}
);
unicode = 007B;
},
{
glyphname = braceright;
lastChange = "2016-08-23 12:44:07 +0000";
layers = (
{
layerId = UUID0;
paths = (
{
closed = 1;
nodes = (
"204 14 LINE",
"204 -79 OFFCURVE",
"155 -130 OFFCURVE",
"19 -135 CURVE",
"19 -66 LINE",
"129 -62 OFFCURVE",
"133 -24 OFFCURVE",
"133 105 CURVE SMOOTH",
"133 139 OFFCURVE",
"130 170 OFFCURVE",
"130 199 CURVE SMOOTH",
"130 239 OFFCURVE",
"137 266 OFFCURVE",
"190 307 CURVE",
"137 349 OFFCURVE",
"130 381 OFFCURVE",
"130 424 CURVE SMOOTH",
"130 452 OFFCURVE",
"133 483 OFFCURVE",
"133 510 CURVE SMOOTH",
"133 639 OFFCURVE",
"129 677 OFFCURVE",
"19 681 CURVE",
"19 750 LINE",
"160 745 OFFCURVE",
"204 690 OFFCURVE",
"204 600 CURVE SMOOTH",
"204 560 OFFCURVE",
"198 503 OFFCURVE",
"198 456 CURVE SMOOTH",
"198 383 OFFCURVE",
"216 341 OFFCURVE",
"263 307 CURVE",
"213 272 OFFCURVE",
"198 227 OFFCURVE",
"198 159 CURVE SMOOTH",
"198 111 OFFCURVE",
"204 54 OFFCURVE",
"204 14 CURVE SMOOTH"
);
}
);
width = 273;
},
{
layerId = "3AF73D1F-32CE-4CF3-BC01-E4A23F7DE30A";
paths = (
{
closed = 1;
nodes = (
"195 29 LINE",
"195 -82 OFFCURVE",
"143 -136 OFFCURVE",
"6 -136 CURVE",
"6 -27 LINE",
"102 -27 OFFCURVE",
"101 -10 OFFCURVE",
"101 115 CURVE SMOOTH",
"101 147 OFFCURVE",
"99 177 OFFCURVE",
"99 204 CURVE SMOOTH",
"99 246 OFFCURVE",
"106 281 OFFCURVE",
"131 307 CURVE",
"106 334 OFFCURVE",
"99 375 OFFCURVE",
"99 418 CURVE SMOOTH",
"99 445 OFFCURVE",
"101 474 OFFCURVE",
"101 500 CURVE SMOOTH",
"101 624 OFFCURVE",
"102 641 OFFCURVE",
"6 641 CURVE",
"6 750 LINE",
"149 750 OFFCURVE",
"195 691 OFFCURVE",
"195 585 CURVE SMOOTH",
"195 547 OFFCURVE",
"189 493 OFFCURVE",
"189 449 CURVE SMOOTH",
"189 372 OFFCURVE",
"209 339 OFFCURVE",
"264 307 CURVE",
"205 274 OFFCURVE",
"189 237 OFFCURVE",
"189 166 CURVE SMOOTH",
"189 121 OFFCURVE",
"195 67 OFFCURVE",
"195 29 CURVE SMOOTH"
);
}
);
width = 274;
}
);
unicode = 007D;
},
{
glyphname = bracketleft;
lastChange = "2016-08-23 12:44:07 +0000";
layers = (
{
layerId = UUID0;
paths = (
{
closed = 1;
nodes = (
"279 -135 LINE",
"279 -67 LINE",
"140 -67 LINE",
"140 682 LINE",
"279 682 LINE",
"279 750 LINE",
"58 750 LINE",
"58 -135 LINE"
);
}
);
width = 288;
},
{
layerId = "3AF73D1F-32CE-4CF3-BC01-E4A23F7DE30A";
paths = (
{
closed = 1;
nodes = (
"279 -136 LINE",
"279 -27 LINE",
"166 -27 LINE",
"166 641 LINE",
"279 641 LINE",
"279 750 LINE",
"58 750 LINE",
"58 -136 LINE"
);
}
);
width = 288;
}
);
unicode = 005B;
},
{
glyphname = bracketright;
lastChange = "2016-08-23 12:44:07 +0000";
layers = (
{
layerId = UUID0;
paths = (
{
closed = 1;
nodes = (
"235 -135 LINE",
"235 750 LINE",
"14 750 LINE",
"14 666 LINE",
"153 666 LINE",
"153 -51 LINE",
"14 -51 LINE",
"14 -135 LINE"
);
}
);
width = 293;
},
{
layerId = "3AF73D1F-32CE-4CF3-BC01-E4A23F7DE30A";
paths = (
{
closed = 1;
nodes = (
"235 -136 LINE",
"235 750 LINE",
"14 750 LINE",
"14 626 LINE",
"127 626 LINE",
"127 -12 LINE",
"14 -12 LINE",
"14 -136 LINE"
);
}
);
width = 293;
}
);
unicode = 005D;
},
{
glyphname = brokenbar;
lastChange = "2016-08-23 12:44:07 +0000";
layers = (
{
layerId = UUID0;
paths = (
{
closed = 1;
nodes = (
"134 308 LINE",
"134 750 LINE",
"58 750 LINE",
"58 308 LINE"
);
},
{
closed = 1;
nodes = (
"134 -210 LINE",
"134 163 LINE",
"58 163 LINE",
"58 -210 LINE"
);
}
);
width = 192;
},
{
layerId = "3AF73D1F-32CE-4CF3-BC01-E4A23F7DE30A";
paths = (
{
closed = 1;
nodes = (
"134 284 LINE",
"134 750 LINE",
"58 750 LINE",
"58 284 LINE"
);
},
{
closed = 1;
nodes = (
"134 -210 LINE",
"134 190 LINE",
"58 190 LINE",
"58 -210 LINE"
);
}
);
width = 192;
}
);
unicode = 00A6;
},
{
glyphname = bullet;
lastChange = "2016-08-23 12:44:07 +0000";
layers = (
{
layerId = UUID0;
paths = (
{
closed = 1;
nodes = (
"128 169 LINE",
"179 169 OFFCURVE",
"221 218 OFFCURVE",
"221 278 CURVE SMOOTH",
"221 338 OFFCURVE",
"179 387 OFFCURVE",
"128 387 CURVE SMOOTH",
"76 387 OFFCURVE",
"34 338 OFFCURVE",
"34 278 CURVE SMOOTH",
"34 218 OFFCURVE",
"76 169 OFFCURVE",
"128 169 CURVE SMOOTH"
);
}
);
width = 255;
},
{
layerId = "3AF73D1F-32CE-4CF3-BC01-E4A23F7DE30A";
paths = (
{
closed = 1;
nodes = (
"128 169 LINE",
"179 169 OFFCURVE",
"221 218 OFFCURVE",
"221 278 CURVE SMOOTH",
"221 338 OFFCURVE",
"179 387 OFFCURVE",
"128 387 CURVE SMOOTH",
"76 387 OFFCURVE",
"34 338 OFFCURVE",
"34 278 CURVE SMOOTH",
"34 218 OFFCURVE",
"76 169 OFFCURVE",
"128 169 CURVE SMOOTH"
);
}
);
width = 255;
}
);
unicode = 2022;
},
{
glyphname = c;
lastChange = "2016-08-23 12:44:07 +0000";
layers = (
{
layerId = UUID0;
paths = (
{
closed = 1;
nodes = (
"233 -10 LINE",
"302 -10 OFFCURVE",
"336 8 OFFCURVE",
"362 27 CURVE",
"352 99 LINE",
"318 80 OFFCURVE",
"282 69 OFFCURVE",
"242 69 CURVE SMOOTH",
"158 69 OFFCURVE",
"116 139 OFFCURVE",
"116 246 CURVE SMOOTH",
"116 355 OFFCURVE",
"158 420 OFFCURVE",
"242 420 CURVE SMOOTH",
"282 420 OFFCURVE",
"317 409 OFFCURVE",
"352 390 CURVE",
"362 471 LINE",
"336 487 OFFCURVE",
"299 500 OFFCURVE",
"233 500 CURVE SMOOTH",
"94 500 OFFCURVE",
"24 389 OFFCURVE",
"24 246 CURVE SMOOTH",
"24 109 OFFCURVE",
"94 -10 OFFCURVE",
"233 -10 CURVE SMOOTH"
);
}
);
width = 385;
},
{
layerId = "3AF73D1F-32CE-4CF3-BC01-E4A23F7DE30A";
paths = (
{
closed = 1;
nodes = (
"233 -10 LINE",
"302 -10 OFFCURVE",
"333 7 OFFCURVE",
"362 27 CURVE",
"353 133 LINE",
"317 106 OFFCURVE",
"284 92 OFFCURVE",
"242 92 CURVE SMOOTH",
"184 92 OFFCURVE",
"146 156 OFFCURVE",
"146 249 CURVE SMOOTH",
"146 342 OFFCURVE",
"184 406 OFFCURVE",
"242 406 CURVE SMOOTH",
"284 406 OFFCURVE",
"317 392 OFFCURVE",
"353 365 CURVE",
"362 471 LINE",
"333 491 OFFCURVE",
"304 508 OFFCURVE",
"233 508 CURVE SMOOTH",
"96 508 OFFCURVE",
"24 389 OFFCURVE",
"24 249 CURVE SMOOTH",
"24 109 OFFCURVE",
"96 -10 OFFCURVE",
"233 -10 CURVE SMOOTH"
);
}
);
width = 385;
}
);
leftKerningGroup = o;
rightKerningGroup = c;
unicode = 0063;
},
{
glyphname = caron;
lastChange = "2016-08-23 12:44:07 +0000";
layers = (
{
layerId = UUID0;
paths = (
{
closed = 1;
nodes = (
"318 699 LINE",
"318 740 LINE",
"191 664 LINE",
"65 740 LINE",
"65 699 LINE",
"191 600 LINE"
);
}
);
width = 383;
},
{
layerId = "3AF73D1F-32CE-4CF3-BC01-E4A23F7DE30A";
paths = (
{
closed = 1;
nodes = (
"318 676 LINE",
"318 750 LINE",
"191 679 LINE",
"65 750 LINE",
"65 676 LINE",
"191 585 LINE"
);
}
);
width = 383;
}
);
unicode = 02C7;
},
{
glyphname = cedilla;
lastChange = "2016-08-23 12:44:07 +0000";
layers = (
{
layerId = UUID0;
paths = (
{
closed = 1;
nodes = (
"248 -54 LINE",
"177 -60 LINE",
"118 -192 LINE",
"168 -187 LINE"
);
}
);
width = 261;
},
{
layerId = "3AF73D1F-32CE-4CF3-BC01-E4A23F7DE30A";
paths = (
{
closed = 1;
nodes = (
"269 -52 LINE",
"166 -61 LINE",
"105 -194 LINE",
"179 -185 LINE"
);
}
);
width = 260;
}
);
unicode = 00B8;
},
{
glyphname = cent;
lastChange = "2016-08-23 12:44:07 +0000";
layers = (
{
background = {
paths = (
{
closed = 1;
nodes = (
"303 87 LINE",
"370 91 OFFCURVE",
"401 104 OFFCURVE",
"426 119 CURVE",
"418 197 LINE",
"378 176 OFFCURVE",
"338 165 OFFCURVE",
"291 165 CURVE SMOOTH",
"195 165 OFFCURVE",
"130 238 OFFCURVE",
"130 347 CURVE SMOOTH",
"130 448 OFFCURVE",
"187 531 OFFCURVE",
"291 531 CURVE SMOOTH",
"338 531 OFFCURVE",
"378 519 OFFCURVE",
"418 498 CURVE",
"426 576 LINE",
"395 595 OFFCURVE",
"360 604 OFFCURVE",
"303 608 CURVE",
"319 748 LINE",
"229 748 LINE",
"246 606 LINE",
"108 587 OFFCURVE",
"34 476 OFFCURVE",
"34 347 CURVE SMOOTH",
"34 205 OFFCURVE",
"119 107 OFFCURVE",
"246 89 CURVE",
"229 -31 LINE",
"319 -31 LINE"
);
}
);
};
layerId = UUID0;
paths = (
{
closed = 1;
nodes = (
"268 87 LINE",
"320 91 OFFCURVE",
"345 104 OFFCURVE",
"366 119 CURVE",
"359 197 LINE",
"324 176 OFFCURVE",
"288 165 OFFCURVE",
"253 165 CURVE SMOOTH",
"170 165 OFFCURVE",
"123 238 OFFCURVE",
"123 347 CURVE SMOOTH",
"123 448 OFFCURVE",
"166 531 OFFCURVE",
"252 531 CURVE SMOOTH",
"288 531 OFFCURVE",
"324 519 OFFCURVE",
"359 498 CURVE",
"366 576 LINE",
"341 595 OFFCURVE",
"312 604 OFFCURVE",
"262 608 CURVE",
"276 748 LINE",
"192 748 LINE",
"207 606 LINE",
"92 587 OFFCURVE",
"29 478 OFFCURVE",
"29 346 CURVE SMOOTH",
"29 202 OFFCURVE",
"99 106 OFFCURVE",
"207 89 CURVE",
"192 -31 LINE",
"276 -31 LINE"
);
}
);
width = 407;
},
{
background = {
paths = (
{
closed = 1;
nodes = (
"304 89 LINE",
"366 93 OFFCURVE",
"399 108 OFFCURVE",
"427 126 CURVE",
"416 232 LINE",
"375 205 OFFCURVE",
"335 191 OFFCURVE",
"287 191 CURVE SMOOTH",
"207 191 OFFCURVE",
"161 255 OFFCURVE",
"161 348 CURVE SMOOTH",
"161 441 OFFCURVE",
"207 505 OFFCURVE",
"287 505 CURVE SMOOTH",
"335 505 OFFCURVE",
"375 491 OFFCURVE",
"416 464 CURVE",
"427 570 LINE",
"398 588 OFFCURVE",
"365 603 OFFCURVE",
"302 606 CURVE",
"319 748 LINE",
"223 748 LINE",
"241 605 LINE",
"105 588 OFFCURVE",
"34 477 OFFCURVE",
"34 348 CURVE SMOOTH",
"34 219 OFFCURVE",
"104 109 OFFCURVE",
"239 91 CURVE",
"223 -32 LINE",
"319 -32 LINE"
);
}
);
};
layerId = "3AF73D1F-32CE-4CF3-BC01-E4A23F7DE30A";
paths = (
{
closed = 1;
nodes = (
"262 89 LINE",
"313 93 OFFCURVE",
"341 108 OFFCURVE",
"367 126 CURVE",
"357 232 LINE",
"321 205 OFFCURVE",
"285 191 OFFCURVE",
"249 191 CURVE SMOOTH",
"181 191 OFFCURVE",
"150 255 OFFCURVE",
"150 348 CURVE SMOOTH",
"150 441 OFFCURVE",
"183 505 OFFCURVE",
"250 505 CURVE SMOOTH",
"285 505 OFFCURVE",
"321 491 OFFCURVE",
"357 464 CURVE",
"367 570 LINE",
"343 588 OFFCURVE",
"318 603 OFFCURVE",
"266 606 CURVE",
"280 748 LINE",
"182 748 LINE",
"195 605 LINE",
"90 586 OFFCURVE",
"29 477 OFFCURVE",
"29 347 CURVE SMOOTH",
"29 219 OFFCURVE",
"82 109 OFFCURVE",
"195 91 CURVE",
"182 -32 LINE",
"280 -32 LINE"
);
}
);
width = 407;
}
);
unicode = 00A2;
},
{
glyphname = circumflex;
lastChange = "2016-08-23 12:44:07 +0000";
layers = (
{
layerId = UUID0;
paths = (
{
closed = 1;
nodes = (
"318 603 LINE",
"318 639 LINE",
"191 745 LINE",
"65 639 LINE",
"65 603 LINE",
"191 685 LINE"
);
}
);
width = 383;
},
{
layerId = "3AF73D1F-32CE-4CF3-BC01-E4A23F7DE30A";
paths = (
{
closed = 1;
nodes = (
"318 585 LINE",
"318 659 LINE",
"191 750 LINE",
"65 659 LINE",
"65 585 LINE",
"191 656 LINE"
);
}
);
width = 383;
}
);
unicode = 02C6;
},
{
glyphname = colon;
lastChange = "2016-08-23 12:44:07 +0000";
layers = (
{
layerId = UUID0;
paths = (
{
closed = 1;
nodes = (
"158 354 LINE",
"158 440 LINE",
"68 440 LINE",
"68 354 LINE"
);
},
{
closed = 1;
nodes = (
"158 0 LINE",
"158 86 LINE",
"68 86 LINE",
"68 0 LINE"
);
}
);
width = 226;
},
{
layerId = "3AF73D1F-32CE-4CF3-BC01-E4A23F7DE30A";
paths = (
{
closed = 1;
nodes = (
"172 310 LINE",
"172 440 LINE",
"53 440 LINE",
"53 310 LINE"
);
},
{
closed = 1;
nodes = (
"172 0 LINE",
"172 130 LINE",
"53 130 LINE",
"53 0 LINE"
);
}
);
width = 225;
}
);
unicode = 003A;
},
{
glyphname = comma;
lastChange = "2016-08-23 12:44:07 +0000";
layers = (
{
layerId = UUID0;
paths = (
{
closed = 1;
nodes = (
"149 0 LINE",
"149 86 LINE",
"55 86 LINE",
"55 0 LINE",
"83 -9 LINE",
"54 -96 LINE",
"75 -109 LINE"
);
}
);
width = 203;
},
{
layerId = "3AF73D1F-32CE-4CF3-BC01-E4A23F7DE30A";
paths = (
{
closed = 1;
nodes = (
"159 0 LINE",
"159 130 LINE",
"43 130 LINE",
"43 0 LINE",
"71 -10 LINE",
"43 -96 LINE",
"67 -110 LINE"
);
}
);
width = 203;
}
);
unicode = 002C;
},
{
glyphname = copyright;
lastChange = "2016-08-23 12:44:07 +0000";
layers = (
{
layerId = UUID0;
paths = (
{
closed = 1;
nodes = (
"301 37 LINE",
"456 37 OFFCURVE",
"568 167 OFFCURVE",
"568 365 CURVE SMOOTH",
"568 564 OFFCURVE",
"456 693 OFFCURVE",
"301 693 CURVE SMOOTH",
"147 693 OFFCURVE",
"34 564 OFFCURVE",
"34 365 CURVE SMOOTH",
"34 167 OFFCURVE",
"147 37 OFFCURVE",
"301 37 CURVE SMOOTH"
);
},
{
closed = 1;
nodes = (
"301 648 LINE",
"444 648 OFFCURVE",
"514 525 OFFCURVE",
"514 365 CURVE SMOOTH",
"514 205 OFFCURVE",
"444 81 OFFCURVE",
"301 81 CURVE SMOOTH",
"158 81 OFFCURVE",
"88 205 OFFCURVE",
"88 365 CURVE SMOOTH",
"88 525 OFFCURVE",
"158 648 OFFCURVE",
"301 648 CURVE SMOOTH"
);
},
{
closed = 1;
nodes = (
"309 197 LINE",
"337 197 OFFCURVE",
"368 204 OFFCURVE",
"391 217 CURVE",
"383 276 LINE",
"359 264 OFFCURVE",
"335 256 OFFCURVE",
"309 256 CURVE SMOOTH",
"261 256 OFFCURVE",
"237 303 OFFCURVE",
"237 363 CURVE SMOOTH",
"237 425 OFFCURVE",
"261 470 OFFCURVE",
"309 470 CURVE SMOOTH",
"335 470 OFFCURVE",
"359 462 OFFCURVE",
"383 451 CURVE",
"391 511 LINE",
"368 522 OFFCURVE",
"337 530 OFFCURVE",
"309 530 CURVE SMOOTH",
"228 530 OFFCURVE",
"171 465 OFFCURVE",
"171 363 CURVE SMOOTH",
"171 262 OFFCURVE",
"229 197 OFFCURVE",
"309 197 CURVE SMOOTH"
);
}
);
width = 602;
},
{
layerId = "3AF73D1F-32CE-4CF3-BC01-E4A23F7DE30A";
paths = (
{
closed = 1;
nodes = (
"301 37 LINE",
"456 37 OFFCURVE",
"568 168 OFFCURVE",
"568 365 CURVE SMOOTH",
"568 563 OFFCURVE",
"456 693 OFFCURVE",
"301 693 CURVE SMOOTH",
"147 693 OFFCURVE",
"34 563 OFFCURVE",
"34 365 CURVE SMOOTH",
"34 168 OFFCURVE",
"147 37 OFFCURVE",
"301 37 CURVE SMOOTH"
);
},
{
closed = 1;
nodes = (
"301 623 LINE",
"429 623 OFFCURVE",
"493 513 OFFCURVE",
"493 365 CURVE SMOOTH",
"493 217 OFFCURVE",
"429 106 OFFCURVE",
"301 106 CURVE SMOOTH",
"173 106 OFFCURVE",
"110 217 OFFCURVE",
"110 365 CURVE SMOOTH",
"110 513 OFFCURVE",
"173 623 OFFCURVE",
"301 623 CURVE SMOOTH"
);
},
{
closed = 1;
nodes = (
"308 190 LINE",
"340 190 OFFCURVE",
"375 199 OFFCURVE",
"400 215 CURVE",
"390 299 LINE",
"362 284 OFFCURVE",
"338 274 OFFCURVE",
"308 274 CURVE SMOOTH",
"273 274 OFFCURVE",
"252 310 OFFCURVE",
"252 363 CURVE SMOOTH",
"252 418 OFFCURVE",
"273 452 OFFCURVE",
"308 452 CURVE SMOOTH",
"338 452 OFFCURVE",
"362 442 OFFCURVE",
"390 429 CURVE",
"400 514 LINE",
"375 527 OFFCURVE",
"341 537 OFFCURVE",
"308 537 CURVE SMOOTH",
"224 537 OFFCURVE",
"165 468 OFFCURVE",
"165 363 CURVE SMOOTH",
"165 259 OFFCURVE",
"225 190 OFFCURVE",
"308 190 CURVE SMOOTH"
);
}
);
width = 602;
}
);
unicode = 00A9;
},
{
glyphname = currency;
lastChange = "2016-08-23 12:44:07 +0000";
layers = (
{
layerId = UUID0;
paths = (
{
closed = 1;
nodes = (
"480 53 LINE",
"414 154 LINE",
"458 214 OFFCURVE",
"478 278 OFFCURVE",
"478 348 CURVE SMOOTH",
"478 417 OFFCURVE",
"459 481 OFFCURVE",
"415 540 CURVE",
"480 643 LINE",
"445 667 LINE",
"378 563 LINE",
"339 591 OFFCURVE",
"303 602 OFFCURVE",
"261 602 CURVE SMOOTH",
"219 602 OFFCURVE",
"183 591 OFFCURVE",
"144 564 CURVE",
"79 667 LINE",
"43 643 LINE",
"108 541 LINE",
"64 482 OFFCURVE",
"44 418 OFFCURVE",
"44 348 CURVE SMOOTH",
"44 278 OFFCURVE",
"64 214 OFFCURVE",
"107 155 CURVE",
"43 53 LINE",
"79 29 LINE",
"145 132 LINE",
"183 104 OFFCURVE",
"219 94 OFFCURVE",
"261 94 CURVE SMOOTH",
"303 94 OFFCURVE",
"339 104 OFFCURVE",
"378 132 CURVE",
"444 29 LINE"
);
},
{
closed = 1;
nodes = (
"261 540 LINE",
"343 540 OFFCURVE",
"388 455 OFFCURVE",
"388 348 CURVE SMOOTH",
"388 241 OFFCURVE",
"343 156 OFFCURVE",
"261 156 CURVE SMOOTH",
"179 156 OFFCURVE",
"135 241 OFFCURVE",
"135 348 CURVE SMOOTH",
"135 455 OFFCURVE",
"179 540 OFFCURVE",
"261 540 CURVE SMOOTH"
);
}
);
width = 523;
},
{
layerId = "3AF73D1F-32CE-4CF3-BC01-E4A23F7DE30A";
paths = (
{
closed = 1;
nodes = (
"488 69 LINE",
"426 166 LINE",
"458 213 OFFCURVE",
"479 278 OFFCURVE",
"479 348 CURVE SMOOTH",
"479 417 OFFCURVE",
"459 482 OFFCURVE",
"427 529 CURVE",
"488 627 LINE",
"425 677 LINE",
"362 577 LINE",
"338 596 OFFCURVE",
"302 607 OFFCURVE",
"261 607 CURVE SMOOTH",
"220 607 OFFCURVE",
"184 596 OFFCURVE",
"161 578 CURVE",
"98 677 LINE",
"35 627 LINE",
"96 530 LINE",
"63 483 OFFCURVE",
"43 418 OFFCURVE",
"43 348 CURVE SMOOTH",
"43 278 OFFCURVE",
"63 213 OFFCURVE",
"95 166 CURVE",
"35 69 LINE",
"98 19 LINE",
"160 118 LINE",
"184 99 OFFCURVE",
"220 89 OFFCURVE",
"261 89 CURVE SMOOTH",
"302 89 OFFCURVE",
"338 99 OFFCURVE",
"362 118 CURVE",
"425 19 LINE"
);
},
{
closed = 1;
nodes = (
"261 505 LINE",
"320 505 OFFCURVE",
"356 441 OFFCURVE",
"356 348 CURVE SMOOTH",
"356 255 OFFCURVE",
"320 191 OFFCURVE",
"261 191 CURVE SMOOTH",
"202 191 OFFCURVE",
"166 255 OFFCURVE",
"166 348 CURVE SMOOTH",
"166 441 OFFCURVE",
"202 505 OFFCURVE",
"261 505 CURVE SMOOTH"
);
}
);
width = 523;
}
);
unicode = 00A4;
},
{
glyphname = d;
lastChange = "2016-08-23 12:44:07 +0000";
layers = (
{
layerId = UUID0;
paths = (
{
closed = 1;
nodes = (
"437 0 LINE",
"437 750 LINE",
"348 750 LINE",
"348 438 LINE",
"315 489 OFFCURVE",
"271 500 OFFCURVE",
"231 500 CURVE SMOOTH",
"105 500 OFFCURVE",
"31 379 OFFCURVE",
"31 245 CURVE SMOOTH",
"31 102 OFFCURVE",
"111 -10 OFFCURVE",
"231 -10 CURVE SMOOTH",
"272 -10 OFFCURVE",
"319 14 OFFCURVE",
"350 62 CURVE",
"355 0 LINE"
);
},
{
closed = 1;
nodes = (
"237 420 LINE",
"302 420 OFFCURVE",
"355 360 OFFCURVE",
"355 242 CURVE SMOOTH",
"355 119 OFFCURVE",
"302 70 OFFCURVE",
"237 70 CURVE SMOOTH",
"165 70 OFFCURVE",
"123 149 OFFCURVE",
"123 245 CURVE SMOOTH",
"123 345 OFFCURVE",
"165 420 OFFCURVE",
"237 420 CURVE SMOOTH"
);
}
);
width = 492;
},
{
layerId = "3AF73D1F-32CE-4CF3-BC01-E4A23F7DE30A";
paths = (
{
closed = 1;
nodes = (
"446 0 LINE",
"446 750 LINE",
"326 750 LINE",
"326 475 LINE",
"302 496 OFFCURVE",
"284 508 OFFCURVE",
"238 508 CURVE SMOOTH",
"92 508 OFFCURVE",
"19 389 OFFCURVE",
"19 249 CURVE SMOOTH",
"19 109 OFFCURVE",
"87 -10 OFFCURVE",
"238 -10 CURVE SMOOTH",
"288 -10 OFFCURVE",
"303 4 OFFCURVE",
"332 28 CURVE",
"331 0 LINE"
);
},
{
closed = 1;
nodes = (
"245 406 LINE",
"317 406 OFFCURVE",
"330 342 OFFCURVE",
"330 249 CURVE SMOOTH",
"330 156 OFFCURVE",
"317 92 OFFCURVE",
"245 92 CURVE SMOOTH",
"179 92 OFFCURVE",
"141 156 OFFCURVE",
"141 249 CURVE SMOOTH",
"141 342 OFFCURVE",
"179 406 OFFCURVE",
"245 406 CURVE SMOOTH"
);
}
);
width = 492;
}
);
leftKerningGroup = o;
unicode = 0064;
},
{
glyphname = dagger;
lastChange = "2016-08-23 12:44:07 +0000";
layers = (
{
layerId = UUID0;
paths = (
{
closed = 1;
nodes = (
"335 373 LINE",
"335 458 LINE",
"210 427 LINE",
"238 607 LINE",
"129 607 LINE",
"156 427 LINE",
"31 458 LINE",
"31 373 LINE",
"157 403 LINE",
"126 252 LINE",
"153 0 LINE",
"214 0 LINE",
"240 252 LINE",
"209 403 LINE"
);
}
);
width = 366;
},
{
layerId = "3AF73D1F-32CE-4CF3-BC01-E4A23F7DE30A";
paths = (
{
closed = 1;
nodes = (
"335 349 LINE",
"335 481 LINE",
"232 454 LINE",
"255 607 LINE",
"111 607 LINE",
"134 454 LINE",
"31 481 LINE",
"31 349 LINE",
"134 375 LINE",
"113 257 LINE",
"139 0 LINE",
"228 0 LINE",
"253 257 LINE",
"233 375 LINE"
);
}
);
width = 366;
}
);
unicode = 2020;
},
{
glyphname = daggerdbl;
lastChange = "2016-08-23 12:44:07 +0000";
layers = (
{
layerId = UUID0;
paths = (
{
closed = 1;
nodes = (
"345 88 LINE",
"345 172 LINE",
"218 142 LINE",
"250 274 LINE",
"218 407 LINE",
"345 377 LINE",
"345 461 LINE",
"220 431 LINE",
"248 607 LINE",
"139 607 LINE",
"166 431 LINE",
"41 461 LINE",
"41 377 LINE",
"168 407 LINE",
"136 274 LINE",
"168 142 LINE",
"41 172 LINE",
"41 88 LINE",
"166 118 LINE",
"139 -59 LINE",
"248 -59 LINE",
"220 118 LINE"
);
}
);
width = 386;
},
{
layerId = "3AF73D1F-32CE-4CF3-BC01-E4A23F7DE30A";
paths = (
{
closed = 1;
nodes = (
"345 67 LINE",
"345 199 LINE",
"244 173 LINE",
"263 274 LINE",
"244 375 LINE",
"345 349 LINE",
"345 481 LINE",
"242 454 LINE",
"265 607 LINE",
"121 607 LINE",
"144 454 LINE",
"41 481 LINE",
"41 349 LINE",
"143 375 LINE",
"123 274 LINE",
"143 173 LINE",
"41 199 LINE",
"41 67 LINE",
"144 94 LINE",
"121 -59 LINE",
"265 -59 LINE",
"242 94 LINE"
);
}
);
width = 386;
}
);
unicode = 2021;
},
{
glyphname = degree;
lastChange = "2016-08-23 12:44:07 +0000";
layers = (
{
layerId = UUID0;
paths = (
{
closed = 1;
nodes = (
"140 482 LINE",
"212 482 OFFCURVE",
"254 542 OFFCURVE",
"254 618 CURVE SMOOTH",
"254 694 OFFCURVE",
"212 755 OFFCURVE",
"140 755 CURVE SMOOTH",
"68 755 OFFCURVE",
"26 694 OFFCURVE",
"26 618 CURVE SMOOTH",
"26 542 OFFCURVE",
"68 482 OFFCURVE",
"140 482 CURVE SMOOTH"
);
},
{
closed = 1;
nodes = (
"140 729 LINE",
"185 729 OFFCURVE",
"207 672 OFFCURVE",
"207 618 CURVE SMOOTH",
"207 563 OFFCURVE",
"185 508 OFFCURVE",
"140 508 CURVE SMOOTH",
"97 508 OFFCURVE",
"72 562 OFFCURVE",
"72 618 CURVE SMOOTH",
"72 673 OFFCURVE",
"96 729 OFFCURVE",
"140 729 CURVE SMOOTH"
);
}
);
width = 280;
},
{
layerId = "3AF73D1F-32CE-4CF3-BC01-E4A23F7DE30A";
paths = (
{
closed = 1;
nodes = (
"140 482 LINE",
"212 482 OFFCURVE",
"254 544 OFFCURVE",
"254 618 CURVE SMOOTH",
"254 692 OFFCURVE",
"212 755 OFFCURVE",
"140 755 CURVE SMOOTH",
"68 755 OFFCURVE",
"26 692 OFFCURVE",
"26 618 CURVE SMOOTH",
"26 544 OFFCURVE",
"68 482 OFFCURVE",
"140 482 CURVE SMOOTH"
);
},
{
closed = 1;
nodes = (
"140 704 LINE",
"169 704 OFFCURVE",
"186 669 OFFCURVE",
"186 618 CURVE SMOOTH",
"186 567 OFFCURVE",
"169 533 OFFCURVE",
"140 533 CURVE SMOOTH",
"111 533 OFFCURVE",
"93 567 OFFCURVE",
"93 618 CURVE SMOOTH",
"93 669 OFFCURVE",
"112 704 OFFCURVE",
"140 704 CURVE SMOOTH"
);
}
);
width = 280;
}
);
unicode = 00B0;
},
{
glyphname = dieresis;
lastChange = "2016-08-23 12:44:07 +0000";
layers = (
{
layerId = UUID0;
paths = (
{
closed = 1;
nodes = (
"288 600 LINE",
"288 700 LINE",
"218 700 LINE",
"218 600 LINE"
);
},
{
closed = 1;
nodes = (
"145 600 LINE",
"145 700 LINE",
"75 700 LINE",
"75 600 LINE"
);
}
);
width = 363;
},
{
layerId = "3AF73D1F-32CE-4CF3-BC01-E4A23F7DE30A";
paths = (
{
closed = 1;
nodes = (
"288 594 LINE",
"288 700 LINE",
"195 700 LINE",
"195 594 LINE"
);
},
{
closed = 1;
nodes = (
"168 594 LINE",
"168 700 LINE",
"75 700 LINE",
"75 594 LINE"
);
}
);
width = 363;
}
);
unicode = 00A8;
},
{
glyphname = divide;
lastChange = "2016-08-23 12:44:07 +0000";
layers = (
{
layerId = UUID0;
paths = (
{
closed = 1;
nodes = (
"277 440 LINE",
"277 534 LINE",
"188 534 LINE",
"188 440 LINE"
);
},
{
closed = 1;
nodes = (
"434 245 LINE",
"434 319 LINE",
"38 319 LINE",
"38 245 LINE"
);
},
{
closed = 1;
nodes = (
"277 20 LINE",
"277 114 LINE",
"188 114 LINE",
"188 20 LINE"
);
}
);
width = 472;
},
{
layerId = "3AF73D1F-32CE-4CF3-BC01-E4A23F7DE30A";
paths = (
{
closed = 1;
nodes = (
"292 404 LINE",
"292 534 LINE",
"173 534 LINE",
"173 404 LINE"
);
},
{
closed = 1;
nodes = (
"434 230 LINE",
"434 324 LINE",
"38 324 LINE",
"38 230 LINE"
);
},
{
closed = 1;
nodes = (
"292 20 LINE",
"292 150 LINE",
"173 150 LINE",
"173 20 LINE"
);
}
);
width = 472;
}
);
unicode = 00F7;
},
{
glyphname = dollar;
lastChange = "2016-08-23 12:44:07 +0000";
layers = (
{
layerId = UUID0;
paths = (
{
closed = 1;
nodes = (
"246 82 LINE",
"388 96 OFFCURVE",
"412 180 OFFCURVE",
"412 234 CURVE SMOOTH",
"412 432 OFFCURVE",
"129 379 OFFCURVE",
"129 488 CURVE SMOOTH",
"129 533 OFFCURVE",
"182 546 OFFCURVE",
"230 546 CURVE SMOOTH",
"272 546 OFFCURVE",
"328 524 OFFCURVE",
"376 498 CURVE",
"384 594 LINE",
"360 610 OFFCURVE",
"305 627 OFFCURVE",
"246 631 CURVE",
"260 748 LINE",
"177 748 LINE",
"191 631 LINE",
"70 618 OFFCURVE",
"32 540 OFFCURVE",
"32 476 CURVE SMOOTH",
"32 309 OFFCURVE",
"304 350 OFFCURVE",
"304 233 CURVE SMOOTH",
"304 184 OFFCURVE",
"268 170 OFFCURVE",
"213 170 CURVE SMOOTH",
"139 170 OFFCURVE",
"83 197 OFFCURVE",
"52 228 CURVE",
"40 119 LINE",
"67 102 OFFCURVE",
"122 85 OFFCURVE",
"191 81 CURVE",
"177 -32 LINE",
"260 -32 LINE"
);
}
);
width = 445;
},
{
layerId = "3AF73D1F-32CE-4CF3-BC01-E4A23F7DE30A";
paths = (
{
closed = 1;
nodes = (
"259 80 LINE",
"397 94 OFFCURVE",
"423 180 OFFCURVE",
"423 237 CURVE SMOOTH",
"423 438 OFFCURVE",
"142 388 OFFCURVE",
"142 485 CURVE SMOOTH",
"142 526 OFFCURVE",
"193 533 OFFCURVE",
"235 533 CURVE SMOOTH",
"278 533 OFFCURVE",
"337 510 OFFCURVE",
"385 481 CURVE",
"395 594 LINE",
"371 610 OFFCURVE",
"315 629 OFFCURVE",
"259 633 CURVE",
"273 748 LINE",
"175 748 LINE",
"188 633 LINE",
"71 620 OFFCURVE",
"32 540 OFFCURVE",
"32 473 CURVE SMOOTH",
"32 304 OFFCURVE",
"302 340 OFFCURVE",
"302 236 CURVE SMOOTH",
"302 197 OFFCURVE",
"273 183 OFFCURVE",
"217 183 CURVE SMOOTH",
"140 183 OFFCURVE",
"82 214 OFFCURVE",
"55 246 CURVE",
"38 119 LINE",
"66 100 OFFCURVE",
"123 83 OFFCURVE",
"188 79 CURVE",
"175 -32 LINE",
"273 -32 LINE"
);
}
);
width = 456;
}
);
unicode = 0024;
},
{
glyphname = dotlessi;
lastChange = "2016-08-23 12:44:07 +0000";
layers = (
{
layerId = UUID0;
paths = (
{
closed = 1;
nodes = (
"148 0 LINE",
"148 490 LINE",
"58 490 LINE",
"58 0 LINE"
);
}
);
width = 206;
},
{
layerId = "3AF73D1F-32CE-4CF3-BC01-E4A23F7DE30A";
paths = (
{
closed = 1;
nodes = (
"163 0 LINE",
"163 500 LINE",
"44 500 LINE",
"44 0 LINE"
);
}
);
width = 207;
}
);
leftKerningGroup = i;
rightKerningGroup = i;
unicode = 0131;
},
{
glyphname = dotlessj;
lastChange = "2016-08-23 12:44:07 +0000";
layers = (
{
layerId = UUID0;
paths = (
{
closed = 1;
nodes = (
"40 -237 LINE SMOOTH",
"97 -228 OFFCURVE",
"148 -201 OFFCURVE",
"148 -107 CURVE SMOOTH",
"148 490 LINE",
"58 490 LINE",
"58 -73 LINE SMOOTH",
"58 -152 OFFCURVE",
"49 -167 OFFCURVE",
"0 -173 CURVE",
"9 -242 LINE"
);
}
);
width = 206;
},
{
layerId = "3AF73D1F-32CE-4CF3-BC01-E4A23F7DE30A";
paths = (
{
closed = 1;
nodes = (
"51 -242 LINE SMOOTH",
"142 -242 OFFCURVE",
"163 -183 OFFCURVE",
"163 -111 CURVE SMOOTH",
"163 500 LINE",
"44 500 LINE",
"44 -60 LINE SMOOTH",
"44 -139 OFFCURVE",
"40 -140 OFFCURVE",
"-3 -140 CURVE",
"7 -242 LINE"
);
}
);
width = 207;
}
);
unicode = 0237;
},
{
glyphname = e;
lastChange = "2016-08-23 12:44:07 +0000";
layers = (
{
layerId = UUID0;
paths = (
{
closed = 1;
nodes = (
"413 245 LINE",
"417 262 OFFCURVE",
"418 279 OFFCURVE",
"418 293 CURVE SMOOTH",
"418 425 OFFCURVE",
"340 500 OFFCURVE",
"233 500 CURVE SMOOTH",
"102 500 OFFCURVE",
"27 386 OFFCURVE",
"27 249 CURVE SMOOTH",
"27 108 OFFCURVE",
"105 -10 OFFCURVE",
"257 -10 CURVE SMOOTH",
"318 -10 OFFCURVE",
"366 11 OFFCURVE",
"399 28 CURVE",
"391 99 LINE",
"354 79 OFFCURVE",
"304 70 OFFCURVE",
"265 70 CURVE SMOOTH",
"195 70 OFFCURVE",
"131 109 OFFCURVE",
"119 245 CURVE"
);
},
{
closed = 1;
nodes = (
"234 420 LINE SMOOTH",
"299 420 OFFCURVE",
"326 376 OFFCURVE",
"326 307 CURVE",
"125 307 LINE",
"138 378 OFFCURVE",
"171 420 OFFCURVE",
"234 420 CURVE SMOOTH"
);
}
);
width = 439;
},
{
layerId = "3AF73D1F-32CE-4CF3-BC01-E4A23F7DE30A";
paths = (
{
closed = 1;
nodes = (
"413 223 LINE",
"418 247 OFFCURVE",
"421 269 OFFCURVE",
"421 291 CURVE SMOOTH",
"421 423 OFFCURVE",
"338 508 OFFCURVE",
"228 508 CURVE SMOOTH",
"95 508 OFFCURVE",
"22 388 OFFCURVE",
"22 249 CURVE SMOOTH",
"22 109 OFFCURVE",
"99 -10 OFFCURVE",
"257 -10 CURVE SMOOTH",
"318 -10 OFFCURVE",
"369 8 OFFCURVE",
"402 28 CURVE",
"399 133 LINE",
"365 111 OFFCURVE",
"303 92 OFFCURVE",
"262 92 CURVE SMOOTH",
"215 92 OFFCURVE",
"159 130 OFFCURVE",
"147 223 CURVE"
);
},
{
closed = 1;
nodes = (
"234 406 LINE SMOOTH",
"286 406 OFFCURVE",
"300 352 OFFCURVE",
"300 307 CURVE",
"147 307 LINE",
"155 364 OFFCURVE",
"185 406 OFFCURVE",
"234 406 CURVE SMOOTH"
);
}
);
width = 446;
}
);
leftKerningGroup = o;
rightKerningGroup = e;
unicode = 0065;
},
{
glyphname = eight;
lastChange = "2016-08-23 12:44:07 +0000";
layers = (
{
layerId = UUID0;
paths = (
{
closed = 1;
nodes = (
"249 -14 LINE",
"402 -14 OFFCURVE",
"467 103 OFFCURVE",
"467 198 CURVE SMOOTH",
"467 293 OFFCURVE",
"424 350 OFFCURVE",
"345 387 CURVE",
"407 447 OFFCURVE",
"434 481 OFFCURVE",
"434 555 CURVE SMOOTH",
"434 631 OFFCURVE",
"392 713 OFFCURVE",
"260 713 CURVE SMOOTH",
"122 713 OFFCURVE",
"81 624 OFFCURVE",
"81 540 CURVE SMOOTH",
"81 484 OFFCURVE",
"98 432 OFFCURVE",
"152 376 CURVE",
"68 318 OFFCURVE",
"46 248 OFFCURVE",
"46 189 CURVE SMOOTH",
"46 93 OFFCURVE",
"105 -14 OFFCURVE",
"249 -14 CURVE SMOOTH"
);
},
{
closed = 1;
nodes = (
"256 628 LINE",
"316 628 OFFCURVE",
"344 597 OFFCURVE",
"344 545 CURVE SMOOTH",
"344 495 OFFCURVE",
"318 445 OFFCURVE",
"252 421 CURVE",
"193 446 OFFCURVE",
"164 488 OFFCURVE",
"164 534 CURVE SMOOTH",
"164 593 OFFCURVE",
"195 628 OFFCURVE",
"256 628 CURVE SMOOTH"
);
},
{
closed = 1;
nodes = (
"259 338 LINE",
"319 319 OFFCURVE",
"372 271 OFFCURVE",
"372 199 CURVE SMOOTH",
"372 124 OFFCURVE",
"323 72 OFFCURVE",
"253 72 CURVE SMOOTH",
"184 72 OFFCURVE",
"142 110 OFFCURVE",
"142 189 CURVE SMOOTH",
"142 275 OFFCURVE",
"195 322 OFFCURVE",
"259 338 CURVE"
);
}
);
width = 513;
},
{
layerId = "3AF73D1F-32CE-4CF3-BC01-E4A23F7DE30A";
paths = (
{
closed = 1;
nodes = (
"247 -14 LINE",
"402 -14 OFFCURVE",
"467 104 OFFCURVE",
"467 204 CURVE SMOOTH",
"467 287 OFFCURVE",
"422 353 OFFCURVE",
"373 386 CURVE",
"407 431 OFFCURVE",
"435 484 OFFCURVE",
"435 552 CURVE SMOOTH",
"435 637 OFFCURVE",
"390 714 OFFCURVE",
"260 714 CURVE SMOOTH",
"123 714 OFFCURVE",
"79 628 OFFCURVE",
"79 537 CURVE SMOOTH",
"79 481 OFFCURVE",
"94 417 OFFCURVE",
"129 377 CURVE",
"70 318 OFFCURVE",
"46 248 OFFCURVE",
"46 185 CURVE SMOOTH",
"46 83 OFFCURVE",
"110 -14 OFFCURVE",
"247 -14 CURVE SMOOTH"
);
},
{
closed = 1;
nodes = (
"256 614 LINE",
"313 614 OFFCURVE",
"325 574 OFFCURVE",
"325 530 CURVE SMOOTH",
"325 486 OFFCURVE",
"311 445 OFFCURVE",
"252 425 CURVE",
"187 445 OFFCURVE",
"184 486 OFFCURVE",
"184 525 CURVE SMOOTH",
"184 573 OFFCURVE",
"198 614 OFFCURVE",
"256 614 CURVE SMOOTH"
);
},
{
closed = 1;
nodes = (
"260 332 LINE",
"306 318 OFFCURVE",
"350 275 OFFCURVE",
"350 200 CURVE SMOOTH",
"350 133 OFFCURVE",
"318 88 OFFCURVE",
"252 88 CURVE SMOOTH",
"194 88 OFFCURVE",
"158 127 OFFCURVE",
"158 195 CURVE SMOOTH",
"158 276 OFFCURVE",
"214 322 OFFCURVE",
"260 332 CURVE"
);
}
);
width = 513;
}
);
unicode = 0038;
},
{
glyphname = eightinferior;
lastChange = "2016-08-23 12:44:07 +0000";
layers = (
{
layerId = UUID0;
paths = (
{
closed = 1;
nodes = (
"169 -8 LINE",
"258 -8 OFFCURVE",
"296 56 OFFCURVE",
"296 111 CURVE SMOOTH",
"296 154 OFFCURVE",
"270 191 OFFCURVE",
"243 208 CURVE",
"262 231 OFFCURVE",
"278 262 OFFCURVE",
"278 298 CURVE SMOOTH",
"278 345 OFFCURVE",
"252 386 OFFCURVE",
"176 386 CURVE SMOOTH",
"97 386 OFFCURVE",
"71 339 OFFCURVE",
"71 290 CURVE SMOOTH",
"71 259 OFFCURVE",
"80 224 OFFCURVE",
"99 204 CURVE",
"66 172 OFFCURVE",
"52 134 OFFCURVE",
"52 100 CURVE SMOOTH",
"52 44 OFFCURVE",
"90 -8 OFFCURVE",
"169 -8 CURVE SMOOTH"
);
},
{
closed = 1;
nodes = (
"174 330 LINE",
"207 330 OFFCURVE",
"212 308 OFFCURVE",
"212 285 CURVE SMOOTH",
"212 262 OFFCURVE",
"206 240 OFFCURVE",
"172 230 CURVE",
"134 240 OFFCURVE",
"134 262 OFFCURVE",
"134 283 CURVE SMOOTH",
"134 308 OFFCURVE",
"140 330 OFFCURVE",
"174 330 CURVE SMOOTH"
);
},
{
closed = 1;
nodes = (
"176 179 LINE",
"202 172 OFFCURVE",
"226 149 OFFCURVE",
"226 108 CURVE SMOOTH",
"226 73 OFFCURVE",
"210 49 OFFCURVE",
"171 49 CURVE SMOOTH",
"139 49 OFFCURVE",
"118 70 OFFCURVE",
"118 106 CURVE SMOOTH",
"118 149 OFFCURVE",
"151 174 OFFCURVE",
"176 179 CURVE"
);
}
);
width = 348;
},
{
layerId = "3AF73D1F-32CE-4CF3-BC01-E4A23F7DE30A";
paths = (
{
closed = 1;
nodes = (
"168 -8 LINE",
"258 -8 OFFCURVE",
"296 57 OFFCURVE",
"296 115 CURVE SMOOTH",
"296 150 OFFCURVE",
"268 193 OFFCURVE",
"265 208 CURVE",
"262 219 OFFCURVE",
"279 264 OFFCURVE",
"279 296 CURVE SMOOTH",
"279 349 OFFCURVE",
"250 386 OFFCURVE",
"176 386 CURVE SMOOTH",
"97 386 OFFCURVE",
"69 342 OFFCURVE",
"69 287 CURVE SMOOTH",
"69 257 OFFCURVE",
"76 213 OFFCURVE",
"80 204 CURVE",
"67 172 OFFCURVE",
"52 134 OFFCURVE",
"52 97 CURVE SMOOTH",
"52 36 OFFCURVE",
"93 -8 OFFCURVE",
"168 -8 CURVE SMOOTH"
);
},
{
closed = 1;
nodes = (
"174 320 LINE",
"204 320 OFFCURVE",
"197 291 OFFCURVE",
"197 274 CURVE SMOOTH",
"197 255 OFFCURVE",
"200 240 OFFCURVE",
"172 233 CURVE",
"129 239 OFFCURVE",
"150 261 OFFCURVE",
"150 276 CURVE SMOOTH",
"150 293 OFFCURVE",
"142 320 OFFCURVE",
"174 320 CURVE SMOOTH"
);
},
{
closed = 1;
nodes = (
"177 174 LINE",
"191 171 OFFCURVE",
"209 152 OFFCURVE",
"209 109 CURVE SMOOTH",
"209 79 OFFCURVE",
"206 61 OFFCURVE",
"170 61 CURVE SMOOTH",
"147 61 OFFCURVE",
"130 83 OFFCURVE",
"130 110 CURVE SMOOTH",
"130 150 OFFCURVE",
"166 174 OFFCURVE",
"177 174 CURVE"
);
}
);
width = 348;
}
);
unicode = 2088;
},
{
glyphname = eightsuperior;
lastChange = "2016-08-23 12:44:07 +0000";
layers = (
{
layerId = UUID0;
paths = (
{
closed = 1;
nodes = (
"169 312 LINE",
"258 312 OFFCURVE",
"296 376 OFFCURVE",
"296 431 CURVE SMOOTH",
"296 474 OFFCURVE",
"270 511 OFFCURVE",
"243 528 CURVE",
"262 551 OFFCURVE",
"278 582 OFFCURVE",
"278 618 CURVE SMOOTH",
"278 665 OFFCURVE",
"252 706 OFFCURVE",
"176 706 CURVE SMOOTH",
"97 706 OFFCURVE",
"71 659 OFFCURVE",
"71 610 CURVE SMOOTH",
"71 579 OFFCURVE",
"80 544 OFFCURVE",
"99 524 CURVE",
"66 492 OFFCURVE",
"52 454 OFFCURVE",
"52 420 CURVE SMOOTH",
"52 364 OFFCURVE",
"90 312 OFFCURVE",
"169 312 CURVE SMOOTH"
);
},
{
closed = 1;
nodes = (
"174 650 LINE",
"207 650 OFFCURVE",
"212 628 OFFCURVE",
"212 605 CURVE SMOOTH",
"212 582 OFFCURVE",
"206 560 OFFCURVE",
"172 550 CURVE",
"134 560 OFFCURVE",
"134 582 OFFCURVE",
"134 603 CURVE SMOOTH",
"134 628 OFFCURVE",
"140 650 OFFCURVE",
"174 650 CURVE SMOOTH"
);
},
{
closed = 1;
nodes = (
"176 499 LINE",
"202 492 OFFCURVE",
"226 469 OFFCURVE",
"226 428 CURVE SMOOTH",
"226 393 OFFCURVE",
"210 369 OFFCURVE",
"171 369 CURVE SMOOTH",
"139 369 OFFCURVE",
"118 390 OFFCURVE",
"118 426 CURVE SMOOTH",
"118 469 OFFCURVE",
"151 494 OFFCURVE",
"176 499 CURVE"
);
}
);
width = 348;
},
{
layerId = "3AF73D1F-32CE-4CF3-BC01-E4A23F7DE30A";
paths = (
{
closed = 1;
nodes = (
"168 312 LINE",
"258 312 OFFCURVE",
"296 377 OFFCURVE",
"296 435 CURVE SMOOTH",
"296 470 OFFCURVE",
"268 513 OFFCURVE",
"265 528 CURVE",
"262 539 OFFCURVE",
"279 584 OFFCURVE",
"279 616 CURVE SMOOTH",
"279 669 OFFCURVE",
"250 706 OFFCURVE",
"176 706 CURVE SMOOTH",
"97 706 OFFCURVE",
"69 662 OFFCURVE",
"69 607 CURVE SMOOTH",
"69 577 OFFCURVE",
"76 533 OFFCURVE",
"80 524 CURVE",
"67 492 OFFCURVE",
"52 454 OFFCURVE",
"52 417 CURVE SMOOTH",
"52 356 OFFCURVE",
"93 312 OFFCURVE",
"168 312 CURVE SMOOTH"
);
},
{
closed = 1;
nodes = (
"174 640 LINE",
"204 640 OFFCURVE",
"197 611 OFFCURVE",
"197 594 CURVE SMOOTH",
"197 575 OFFCURVE",
"200 560 OFFCURVE",
"172 553 CURVE",
"129 559 OFFCURVE",
"150 581 OFFCURVE",
"150 596 CURVE SMOOTH",
"150 613 OFFCURVE",
"142 640 OFFCURVE",
"174 640 CURVE SMOOTH"
);
},
{
closed = 1;
nodes = (
"177 494 LINE",
"191 491 OFFCURVE",
"209 472 OFFCURVE",
"209 429 CURVE SMOOTH",
"209 399 OFFCURVE",
"206 381 OFFCURVE",
"170 381 CURVE SMOOTH",
"147 381 OFFCURVE",
"130 403 OFFCURVE",
"130 430 CURVE SMOOTH",
"130 470 OFFCURVE",
"166 494 OFFCURVE",
"177 494 CURVE"
);
}
);
width = 348;
}
);
unicode = 2078;
},
{
glyphname = ellipsis;
lastChange = "2016-08-23 12:44:07 +0000";
layers = (
{
layerId = UUID0;
paths = (
{
closed = 1;
nodes = (
"148 0 LINE",
"148 86 LINE",
"58 86 LINE",
"58 0 LINE"
);
},
{
closed = 1;
nodes = (
"351 0 LINE",
"351 86 LINE",
"261 86 LINE",
"261 0 LINE"
);
},
{
closed = 1;
nodes = (
"554 0 LINE",
"554 86 LINE",
"464 86 LINE",
"464 0 LINE"
);
}
);
width = 609;
},
{
layerId = "3AF73D1F-32CE-4CF3-BC01-E4A23F7DE30A";
paths = (
{
closed = 1;
nodes = (
"160 0 LINE",
"160 130 LINE",
"41 130 LINE",
"41 0 LINE"
);
},
{
closed = 1;
nodes = (
"363 0 LINE",
"363 130 LINE",
"244 130 LINE",
"244 0 LINE"
);
},
{
closed = 1;
nodes = (
"566 0 LINE",
"566 130 LINE",
"447 130 LINE",
"447 0 LINE"
);
}
);
width = 609;
}
);
leftKerningGroup = period;
unicode = 2026;
},
{
glyphname = emdash;
lastChange = "2016-08-23 12:44:07 +0000";
layers = (
{
layerId = UUID0;
paths = (
{
closed = 1;
nodes = (
"455 238 LINE",
"455 324 LINE",
"42 324 LINE",
"42 238 LINE"
);
}
);
width = 497;
},
{
layerId = "3AF73D1F-32CE-4CF3-BC01-E4A23F7DE30A";
paths = (
{
closed = 1;
nodes = (
"455 230 LINE",
"455 324 LINE",
"42 324 LINE",
"42 230 LINE"
);
}
);
width = 497;
}
);
leftKerningGroup = hyphen;
rightKerningGroup = hyphen;
unicode = 2014;
},
{
glyphname = endash;
lastChange = "2016-08-23 12:44:07 +0000";
layers = (
{
layerId = UUID0;
paths = (
{
closed = 1;
nodes = (
"376 238 LINE",
"376 324 LINE",
"42 324 LINE",
"42 238 LINE"
);
}
);
width = 418;
},
{
layerId = "3AF73D1F-32CE-4CF3-BC01-E4A23F7DE30A";
paths = (
{
closed = 1;
nodes = (
"376 230 LINE",
"376 324 LINE",
"42 324 LINE",
"42 230 LINE"
);
}
);
width = 418;
}
);
leftKerningGroup = hyphen;
rightKerningGroup = hyphen;
unicode = 2013;
},
{
glyphname = equal;
lastChange = "2016-08-23 12:44:07 +0000";
layers = (
{
layerId = UUID0;
paths = (
{
closed = 1;
nodes = (
"370 318 LINE",
"370 394 LINE",
"52 394 LINE",
"52 318 LINE"
);
},
{
closed = 1;
nodes = (
"370 160 LINE",
"370 236 LINE",
"52 236 LINE",
"52 160 LINE"
);
}
);
width = 422;
},
{
layerId = "3AF73D1F-32CE-4CF3-BC01-E4A23F7DE30A";
paths = (
{
closed = 1;
nodes = (
"370 310 LINE",
"370 404 LINE",
"52 404 LINE",
"52 310 LINE"
);
},
{
closed = 1;
nodes = (
"370 150 LINE",
"370 244 LINE",
"52 244 LINE",
"52 150 LINE"
);
}
);
width = 422;
}
);
unicode = 003D;
},
{
glyphname = eth;
lastChange = "2016-08-23 12:44:07 +0000";
layers = (
{
layerId = UUID0;
paths = (
{
closed = 1;
nodes = (
"209 -12 LINE",
"295 -12 OFFCURVE",
"409 42 OFFCURVE",
"409 257 CURVE SMOOTH",
"409 394 OFFCURVE",
"361 535 OFFCURVE",
"291 614 CURVE",
"316 648 OFFCURVE",
"333 670 OFFCURVE",
"351 698 CURVE",
"303 710 LINE",
"290 689 OFFCURVE",
"276 672 OFFCURVE",
"254 646 CURVE",
"210 685 OFFCURVE",
"164 701 OFFCURVE",
"127 701 CURVE",
"96 659 LINE",
"131 654 OFFCURVE",
"167 640 OFFCURVE",
"199 605 CURVE",
"158 570 OFFCURVE",
"122 558 OFFCURVE",
"92 553 CURVE",
"121 498 LINE",
"162 504 OFFCURVE",
"201 524 OFFCURVE",
"241 560 CURVE",
"275 524 OFFCURVE",
"303 429 OFFCURVE",
"308 371 CURVE",
"288 395 OFFCURVE",
"253 426 OFFCURVE",
"199 426 CURVE SMOOTH",
"75 426 OFFCURVE",
"17 302 OFFCURVE",
"17 201 CURVE SMOOTH",
"17 78 OFFCURVE",
"100 -12 OFFCURVE",
"209 -12 CURVE SMOOTH"
);
},
{
closed = 1;
nodes = (
"211 343 LINE SMOOTH",
"274 343 OFFCURVE",
"310 287 OFFCURVE",
"310 208 CURVE SMOOTH",
"310 129 OFFCURVE",
"267 71 OFFCURVE",
"212 71 CURVE SMOOTH",
"146 71 OFFCURVE",
"109 134 OFFCURVE",
"109 210 CURVE SMOOTH",
"109 279 OFFCURVE",
"145 343 OFFCURVE",
"211 343 CURVE SMOOTH"
);
}
);
width = 440;
},
{
layerId = "3AF73D1F-32CE-4CF3-BC01-E4A23F7DE30A";
paths = (
{
closed = 1;
nodes = (
"214 -13 LINE",
"305 -13 OFFCURVE",
"410 45 OFFCURVE",
"410 258 CURVE SMOOTH",
"410 397 OFFCURVE",
"365 520 OFFCURVE",
"304 601 CURVE",
"324 629 OFFCURVE",
"344 661 OFFCURVE",
"364 695 CURVE",
"298 711 LINE",
"287 690 OFFCURVE",
"268 669 OFFCURVE",
"251 649 CURVE",
"215 682 OFFCURVE",
"174 700 OFFCURVE",
"128 701 CURVE",
"89 648 LINE",
"125 641 OFFCURVE",
"161 628 OFFCURVE",
"190 598 CURVE",
"158 571 OFFCURVE",
"118 554 OFFCURVE",
"90 554 CURVE",
"126 481 LINE",
"171 486 OFFCURVE",
"211 507 OFFCURVE",
"243 538 CURVE",
"268 516 OFFCURVE",
"293 424 OFFCURVE",
"295 387 CURVE",
"270 408 OFFCURVE",
"244 426 OFFCURVE",
"201 426 CURVE SMOOTH",
"82 426 OFFCURVE",
"18 313 OFFCURVE",
"18 205 CURVE SMOOTH",
"18 78 OFFCURVE",
"103 -13 OFFCURVE",
"214 -13 CURVE SMOOTH"
);
},
{
closed = 1;
nodes = (
"211 329 LINE SMOOTH",
"274 329 OFFCURVE",
"304 283 OFFCURVE",
"304 207 CURVE SMOOTH",
"304 122 OFFCURVE",
"255 88 OFFCURVE",
"215 88 CURVE SMOOTH",
"151 88 OFFCURVE",
"126 152 OFFCURVE",
"126 220 CURVE SMOOTH",
"126 270 OFFCURVE",
"151 329 OFFCURVE",
"211 329 CURVE SMOOTH"
);
}
);
width = 441;
}
);
unicode = 00F0;
},
{
glyphname = exclam;
lastChange = "2016-08-23 12:44:07 +0000";
layers = (
{
layerId = UUID0;
paths = (
{
closed = 1;
nodes = (
"162 750 LINE",
"55 750 LINE",
"77 200 LINE",
"139 200 LINE"
);
},
{
closed = 1;
nodes = (
"152 0 LINE",
"152 86 LINE",
"65 86 LINE",
"65 0 LINE"
);
}
);
width = 217;
},
{
layerId = "3AF73D1F-32CE-4CF3-BC01-E4A23F7DE30A";
paths = (
{
closed = 1;
nodes = (
"162 750 LINE",
"55 750 LINE",
"69 200 LINE",
"149 200 LINE"
);
},
{
closed = 1;
nodes = (
"169 0 LINE",
"169 124 LINE",
"48 124 LINE",
"48 0 LINE"
);
}
);
width = 217;
}
);
unicode = 0021;
},
{
glyphname = exclamdown;
lastChange = "2016-08-23 12:44:07 +0000";
layers = (
{
layerId = UUID0;
paths = (
{
closed = 1;
nodes = (
"55 -250 LINE",
"162 -250 LINE",
"139 300 LINE",
"77 300 LINE"
);
},
{
closed = 1;
nodes = (
"65 500 LINE",
"65 414 LINE",
"152 414 LINE",
"152 500 LINE"
);
}
);
width = 217;
},
{
layerId = "3AF73D1F-32CE-4CF3-BC01-E4A23F7DE30A";
paths = (
{
closed = 1;
nodes = (
"55 -250 LINE",
"162 -250 LINE",
"149 300 LINE",
"69 300 LINE"
);
},
{
closed = 1;
nodes = (
"48 500 LINE",
"48 376 LINE",
"169 376 LINE",
"169 500 LINE"
);
}
);
width = 217;
}
);
unicode = 00A1;
},
{
glyphname = f;
lastChange = "2016-08-23 12:44:07 +0000";
layers = (
{
layerId = UUID0;
paths = (
{
closed = 1;
nodes = (
"277 420 LINE",
"277 490 LINE",
"172 490 LINE",
"172 550 LINE SMOOTH",
"172 650 OFFCURVE",
"177 670 OFFCURVE",
"214 670 CURVE SMOOTH",
"226 670 OFFCURVE",
"244 668 OFFCURVE",
"263 661 CURVE",
"274 737 LINE",
"250 745 OFFCURVE",
"235 750 OFFCURVE",
"182 750 CURVE SMOOTH",
"116 750 OFFCURVE",
"82 693 OFFCURVE",
"82 614 CURVE SMOOTH",
"82 490 LINE",
"24 490 LINE",
"14 420 LINE",
"82 420 LINE",
"82 0 LINE",
"172 0 LINE",
"172 420 LINE"
);
}
);
width = 292;
},
{
layerId = "3AF73D1F-32CE-4CF3-BC01-E4A23F7DE30A";
paths = (
{
closed = 1;
nodes = (
"278 398 LINE",
"278 500 LINE",
"191 500 LINE",
"191 568 LINE SMOOTH",
"191 629 OFFCURVE",
"199 646 OFFCURVE",
"227 646 CURVE SMOOTH",
"230 646 OFFCURVE",
"251 646 OFFCURVE",
"270 641 CURVE",
"279 744 LINE",
"247 747 OFFCURVE",
"237 750 OFFCURVE",
"177 750 CURVE SMOOTH",
"105 750 OFFCURVE",
"72 684 OFFCURVE",
"72 619 CURVE SMOOTH",
"72 500 LINE",
"25 500 LINE",
"16 398 LINE",
"72 398 LINE",
"72 0 LINE",
"191 0 LINE",
"191 398 LINE"
);
}
);
width = 293;
}
);
leftKerningGroup = f;
unicode = 0066;
},
{
glyphname = five;
lastChange = "2016-08-23 12:44:07 +0000";
layers = (
{
layerId = UUID0;
paths = (
{
closed = 1;
nodes = (
"193 -14 LINE",
"309 -14 OFFCURVE",
"420 83 OFFCURVE",
"420 236 CURVE SMOOTH",
"420 374 OFFCURVE",
"348 438 OFFCURVE",
"168 440 CURVE",
"184 614 LINE",
"377 614 LINE",
"386 700 LINE",
"112 700 LINE",
"75 355 LINE",
"156 355 LINE SMOOTH",
"284 355 OFFCURVE",
"323 315 OFFCURVE",
"323 232 CURVE SMOOTH",
"323 138 OFFCURVE",
"261 72 OFFCURVE",
"191 72 CURVE SMOOTH",
"147 72 OFFCURVE",
"98 89 OFFCURVE",
"65 114 CURVE",
"43 25 LINE",
"52 9 OFFCURVE",
"128 -14 OFFCURVE",
"193 -14 CURVE SMOOTH"
);
}
);
width = 462;
},
{
layerId = "3AF73D1F-32CE-4CF3-BC01-E4A23F7DE30A";
paths = (
{
closed = 1;
nodes = (
"204 -13 LINE",
"311 -13 OFFCURVE",
"418 68 OFFCURVE",
"418 231 CURVE SMOOTH",
"418 374 OFFCURVE",
"344 437 OFFCURVE",
"187 439 CURVE",
"200 576 LINE",
"375 576 LINE",
"388 700 LINE",
"110 700 LINE",
"72 332 LINE",
"172 332 LINE SMOOTH",
"293 332 OFFCURVE",
"304 283 OFFCURVE",
"304 226 CURVE SMOOTH",
"304 137 OFFCURVE",
"251 107 OFFCURVE",
"200 107 CURVE SMOOTH",
"141 107 OFFCURVE",
"93 131 OFFCURVE",
"70 159 CURVE",
"42 43 LINE",
"41 26 OFFCURVE",
"120 -13 OFFCURVE",
"204 -13 CURVE SMOOTH"
);
}
);
width = 461;
}
);
unicode = 0035;
},
{
glyphname = fiveinferior;
lastChange = "2016-08-23 12:44:07 +0000";
layers = (
{
layerId = UUID0;
paths = (
{
closed = 1;
nodes = (
"144 -7 LINE",
"206 -7 OFFCURVE",
"268 35 OFFCURVE",
"268 124 CURVE SMOOTH",
"268 202 OFFCURVE",
"225 236 OFFCURVE",
"135 237 CURVE",
"143 308 LINE",
"243 308 LINE",
"250 378 LINE",
"89 378 LINE",
"67 177 LINE",
"126 177 LINE SMOOTH",
"196 177 OFFCURVE",
"200 150 OFFCURVE",
"200 122 CURVE SMOOTH",
"200 74 OFFCURVE",
"170 61 OFFCURVE",
"142 61 CURVE SMOOTH",
"107 61 OFFCURVE",
"79 74 OFFCURVE",
"66 90 CURVE",
"49 25 LINE",
"48 16 OFFCURVE",
"94 -7 OFFCURVE",
"144 -7 CURVE SMOOTH"
);
}
);
width = 318;
},
{
layerId = "3AF73D1F-32CE-4CF3-BC01-E4A23F7DE30A";
paths = (
{
closed = 1;
nodes = (
"154 -6 LINE",
"208 -6 OFFCURVE",
"268 24 OFFCURVE",
"268 121 CURVE SMOOTH",
"268 202 OFFCURVE",
"223 235 OFFCURVE",
"152 236 CURVE",
"157 279 LINE",
"243 279 LINE",
"252 378 LINE",
"90 378 LINE",
"66 160 LINE",
"140 160 LINE SMOOTH",
"204 160 OFFCURVE",
"187 126 OFFCURVE",
"187 117 CURVE SMOOTH",
"187 73 OFFCURVE",
"163 87 OFFCURVE",
"150 87 CURVE SMOOTH",
"104 87 OFFCURVE",
"76 106 OFFCURVE",
"71 124 CURVE",
"49 38 LINE",
"41 28 OFFCURVE",
"89 -6 OFFCURVE",
"154 -6 CURVE SMOOTH"
);
}
);
width = 319;
}
);
unicode = 2085;
},
{
glyphname = fivesuperior;
lastChange = "2016-08-23 12:44:07 +0000";
layers = (
{
layerId = UUID0;
paths = (
{
closed = 1;
nodes = (
"144 313 LINE",
"206 313 OFFCURVE",
"268 355 OFFCURVE",
"268 444 CURVE SMOOTH",
"268 522 OFFCURVE",
"225 556 OFFCURVE",
"135 557 CURVE",
"143 628 LINE",
"243 628 LINE",
"250 698 LINE",
"89 698 LINE",
"67 497 LINE",
"126 497 LINE SMOOTH",
"196 497 OFFCURVE",
"200 470 OFFCURVE",
"200 442 CURVE SMOOTH",
"200 394 OFFCURVE",
"170 381 OFFCURVE",
"142 381 CURVE SMOOTH",
"107 381 OFFCURVE",
"79 394 OFFCURVE",
"66 410 CURVE",
"49 345 LINE",
"48 336 OFFCURVE",
"94 313 OFFCURVE",
"144 313 CURVE SMOOTH"
);
}
);
width = 318;
},
{
layerId = "3AF73D1F-32CE-4CF3-BC01-E4A23F7DE30A";
paths = (
{
closed = 1;
nodes = (
"154 314 LINE",
"208 314 OFFCURVE",
"268 344 OFFCURVE",
"268 441 CURVE SMOOTH",
"268 522 OFFCURVE",
"223 555 OFFCURVE",
"152 556 CURVE",
"157 599 LINE",
"243 599 LINE",
"252 698 LINE",
"90 698 LINE",
"66 480 LINE",
"140 480 LINE SMOOTH",
"204 480 OFFCURVE",
"187 446 OFFCURVE",
"187 437 CURVE SMOOTH",
"187 393 OFFCURVE",
"163 407 OFFCURVE",
"150 407 CURVE SMOOTH",
"104 407 OFFCURVE",
"76 426 OFFCURVE",
"71 444 CURVE",
"49 358 LINE",
"41 348 OFFCURVE",
"89 314 OFFCURVE",
"154 314 CURVE SMOOTH"
);
}
);
width = 319;
}
);
unicode = 2075;
},
{
glyphname = florin;
lastChange = "2016-08-23 12:44:07 +0000";
layers = (
{
layerId = UUID0;
paths = (
{
closed = 1;
nodes = (
"329 703 LINE",
"312 709 OFFCURVE",
"295 714 OFFCURVE",
"278 714 CURVE SMOOTH",
"199 714 OFFCURVE",
"131 656 OFFCURVE",
"119 551 CURVE SMOOTH",
"112 490 LINE",
"35 490 LINE",
"28 434 LINE",
"103 434 LINE",
"38 -77 LINE SMOOTH",
"30 -142 OFFCURVE",
"11 -170 OFFCURVE",
"-22 -178 CURVE",
"-8 -241 LINE",
"9 -241 LINE SMOOTH",
"35 -241 OFFCURVE",
"92 -213 OFFCURVE",
"109 -92 CURVE SMOOTH",
"180 434 LINE",
"304 434 LINE",
"310 490 LINE",
"190 490 LINE",
"205 608 OFFCURVE",
"225 656 OFFCURVE",
"288 656 CURVE SMOOTH",
"298 656 OFFCURVE",
"311 654 OFFCURVE",
"322 648 CURVE"
);
}
);
width = 310;
},
{
layerId = "3AF73D1F-32CE-4CF3-BC01-E4A23F7DE30A";
paths = (
{
closed = 1;
nodes = (
"331 702 LINE",
"308 710 OFFCURVE",
"286 714 OFFCURVE",
"264 714 CURVE SMOOTH",
"182 714 OFFCURVE",
"118 648 OFFCURVE",
"104 539 CURVE SMOOTH",
"99 500 LINE",
"35 500 LINE",
"27 418 LINE",
"88 418 LINE",
"31 -60 LINE SMOOTH",
"23 -129 OFFCURVE",
"6 -140 OFFCURVE",
"-27 -140 CURVE",
"-7 -242 LINE",
"26 -242 LINE SMOOTH",
"62 -242 OFFCURVE",
"117 -202 OFFCURVE",
"133 -81 CURVE SMOOTH",
"197 418 LINE",
"303 418 LINE",
"311 500 LINE",
"210 500 LINE",
"219 586 OFFCURVE",
"233 615 OFFCURVE",
"273 615 CURVE SMOOTH",
"287 615 OFFCURVE",
"301 612 OFFCURVE",
"320 608 CURVE"
);
}
);
width = 310;
}
);
unicode = 0192;
},
{
glyphname = four;
lastChange = "2016-08-23 12:44:07 +0000";
layers = (
{
layerId = UUID0;
paths = (
{
closed = 1;
nodes = (
"444 190 LINE",
"444 276 LINE",
"371 276 LINE",
"371 700 LINE",
"293 700 LINE",
"16 190 LINE",
"275 190 LINE",
"275 0 LINE",
"371 0 LINE",
"371 190 LINE"
);
},
{
closed = 1;
nodes = (
"275 276 LINE",
"153 276 LINE",
"275 530 LINE"
);
}
);
width = 500;
},
{
layerId = "3AF73D1F-32CE-4CF3-BC01-E4A23F7DE30A";
paths = (
{
closed = 1;
nodes = (
"455 190 LINE",
"455 294 LINE",
"382 294 LINE",
"382 700 LINE",
"280 700 LINE",
"3 190 LINE",
"262 190 LINE",
"262 0 LINE",
"382 0 LINE",
"382 190 LINE"
);
},
{
closed = 1;
nodes = (
"262 294 LINE",
"162 294 LINE",
"262 504 LINE"
);
}
);
width = 499;
}
);
unicode = 0034;
},
{
glyphname = fourinferior;
lastChange = "2016-08-23 12:44:07 +0000";
layers = (
{
layerId = UUID0;
paths = (
{
closed = 1;
nodes = (
"291 103 LINE",
"291 160 LINE",
"249 160 LINE",
"249 378 LINE",
"188 378 LINE",
"27 103 LINE",
"177 103 LINE",
"177 0 LINE",
"249 0 LINE",
"249 103 LINE"
);
},
{
closed = 1;
nodes = (
"177 160 LINE",
"121 160 LINE",
"177 270 LINE"
);
}
);
width = 341;
},
{
layerId = "3AF73D1F-32CE-4CF3-BC01-E4A23F7DE30A";
paths = (
{
closed = 1;
nodes = (
"300 103 LINE",
"300 174 LINE",
"258 174 LINE",
"258 378 LINE",
"178 378 LINE",
"17 103 LINE",
"168 103 LINE",
"168 0 LINE",
"258 0 LINE",
"258 103 LINE"
);
},
{
closed = 1;
nodes = (
"168 174 LINE",
"128 174 LINE",
"168 250 LINE"
);
}
);
width = 341;
}
);
unicode = 2084;
},
{
glyphname = foursuperior;
lastChange = "2016-08-23 12:44:07 +0000";
layers = (
{
layerId = UUID0;
paths = (
{
closed = 1;
nodes = (
"291 423 LINE",
"291 480 LINE",
"249 480 LINE",
"249 698 LINE",
"188 698 LINE",
"27 423 LINE",
"177 423 LINE",
"177 320 LINE",
"249 320 LINE",
"249 423 LINE"
);
},
{
closed = 1;
nodes = (
"177 480 LINE",
"121 480 LINE",
"177 590 LINE"
);
}
);
width = 341;
},
{
layerId = "3AF73D1F-32CE-4CF3-BC01-E4A23F7DE30A";
paths = (
{
closed = 1;
nodes = (
"300 423 LINE",
"300 494 LINE",
"258 494 LINE",
"258 698 LINE",
"178 698 LINE",
"17 423 LINE",
"168 423 LINE",
"168 320 LINE",
"258 320 LINE",
"258 423 LINE"
);
},
{
closed = 1;
nodes = (
"168 494 LINE",
"128 494 LINE",
"168 570 LINE"
);
}
);
width = 341;
}
);
unicode = 2074;
},
{
glyphname = g;
lastChange = "2016-08-23 12:44:07 +0000";
layers = (
{
layerId = UUID0;
paths = (
{
closed = 1;
nodes = (
"220 -250 LINE",
"357 -250 OFFCURVE",
"430 -175 OFFCURVE",
"430 -96 CURVE SMOOTH",
"430 0 OFFCURVE",
"321 26 OFFCURVE",
"257 40 CURVE SMOOTH",
"169 59 OFFCURVE",
"136 67 OFFCURVE",
"136 92 CURVE SMOOTH",
"136 104 OFFCURVE",
"143 114 OFFCURVE",
"152 122 CURVE",
"169 116 OFFCURVE",
"188 113 OFFCURVE",
"206 113 CURVE SMOOTH",
"317 113 OFFCURVE",
"378 209 OFFCURVE",
"378 308 CURVE SMOOTH",
"378 344 OFFCURVE",
"370 382 OFFCURVE",
"345 425 CURVE",
"359 430 OFFCURVE",
"378 432 OFFCURVE",
"384 432 CURVE SMOOTH",
"411 432 LINE",
"420 492 LINE",
"404 492 LINE SMOOTH",
"363 492 OFFCURVE",
"328 480 OFFCURVE",
"306 464 CURVE",
"275 489 OFFCURVE",
"242 500 OFFCURVE",
"203 500 CURVE SMOOTH",
"91 500 OFFCURVE",
"30 411 OFFCURVE",
"30 303 CURVE SMOOTH",
"30 253 OFFCURVE",
"47 194 OFFCURVE",
"100 143 CURVE",
"64 121 OFFCURVE",
"53 87 OFFCURVE",
"53 70 CURVE SMOOTH",
"53 55 OFFCURVE",
"63 28 OFFCURVE",
"94 8 CURVE",
"36 -19 OFFCURVE",
"21 -75 OFFCURVE",
"21 -102 CURVE SMOOTH",
"21 -167 OFFCURVE",
"76 -250 OFFCURVE",
"220 -250 CURVE SMOOTH"
);
},
{
closed = 1;
nodes = (
"203 428 LINE",
"259 428 OFFCURVE",
"295 386 OFFCURVE",
"295 309 CURVE SMOOTH",
"295 238 OFFCURVE",
"263 182 OFFCURVE",
"204 182 CURVE SMOOTH",
"148 182 OFFCURVE",
"113 229 OFFCURVE",
"113 306 CURVE SMOOTH",
"113 377 OFFCURVE",
"144 428 OFFCURVE",
"203 428 CURVE SMOOTH"
);
},
{
closed = 1;
nodes = (
"231 -32 LINE SMOOTH",
"298 -32 OFFCURVE",
"344 -67 OFFCURVE",
"344 -102 CURVE SMOOTH",
"344 -140 OFFCURVE",
"298 -180 OFFCURVE",
"220 -180 CURVE SMOOTH",
"144 -180 OFFCURVE",
"101 -145 OFFCURVE",
"101 -100 CURVE SMOOTH",
"101 -65 OFFCURVE",
"129 -28 OFFCURVE",
"165 -14 CURVE",
"179 -16 OFFCURVE",
"224 -32 OFFCURVE",
"231 -32 CURVE SMOOTH"
);
}
);
width = 432;
},
{
layerId = "3AF73D1F-32CE-4CF3-BC01-E4A23F7DE30A";
paths = (
{
closed = 1;
nodes = (
"227 -250 LINE",
"356 -250 OFFCURVE",
"430 -186 OFFCURVE",
"430 -89 CURVE SMOOTH",
"430 32 OFFCURVE",
"315 52 OFFCURVE",
"256 62 CURVE SMOOTH",
"198 71 OFFCURVE",
"159 79 OFFCURVE",
"159 103 CURVE SMOOTH",
"159 110 OFFCURVE",
"160 116 OFFCURVE",
"163 119 CURVE",
"177 116 OFFCURVE",
"188 114 OFFCURVE",
"203 114 CURVE SMOOTH",
"316 114 OFFCURVE",
"378 204 OFFCURVE",
"378 311 CURVE SMOOTH",
"378 351 OFFCURVE",
"369 390 OFFCURVE",
"358 421 CURVE",
"363 422 OFFCURVE",
"366 422 OFFCURVE",
"371 422 CURVE SMOOTH",
"417 422 LINE",
"423 500 LINE",
"387 500 LINE SMOOTH",
"347 500 OFFCURVE",
"313 489 OFFCURVE",
"299 478 CURVE",
"277 497 OFFCURVE",
"244 508 OFFCURVE",
"205 508 CURVE SMOOTH",
"92 508 OFFCURVE",
"30 418 OFFCURVE",
"30 311 CURVE SMOOTH",
"30 245 OFFCURVE",
"57 186 OFFCURVE",
"93 150 CURVE",
"70 134 OFFCURVE",
"53 113 OFFCURVE",
"53 82 CURVE SMOOTH",
"53 49 OFFCURVE",
"72 27 OFFCURVE",
"90 10 CURVE",
"53 -18 OFFCURVE",
"21 -54 OFFCURVE",
"21 -102 CURVE SMOOTH",
"21 -176 OFFCURVE",
"85 -250 OFFCURVE",
"227 -250 CURVE SMOOTH"
);
},
{
closed = 1;
nodes = (
"205 417 LINE",
"253 417 OFFCURVE",
"273 375 OFFCURVE",
"273 311 CURVE SMOOTH",
"273 247 OFFCURVE",
"250 205 OFFCURVE",
"204 205 CURVE SMOOTH",
"155 205 OFFCURVE",
"134 247 OFFCURVE",
"134 311 CURVE SMOOTH",
"134 375 OFFCURVE",
"158 417 OFFCURVE",
"205 417 CURVE SMOOTH"
);
},
{
closed = 1;
nodes = (
"213 -30 LINE SMOOTH",
"258 -36 OFFCURVE",
"328 -46 OFFCURVE",
"328 -94 CURVE SMOOTH",
"328 -137 OFFCURVE",
"275 -162 OFFCURVE",
"218 -162 CURVE SMOOTH",
"153 -162 OFFCURVE",
"116 -134 OFFCURVE",
"116 -90 CURVE SMOOTH",
"116 -52 OFFCURVE",
"144 -33 OFFCURVE",
"172 -21 CURVE",
"195 -25 OFFCURVE",
"192 -27 OFFCURVE",
"213 -30 CURVE SMOOTH"
);
}
);
width = 432;
}
);
unicode = 0067;
},
{
glyphname = germandbls;
lastChange = "2016-08-23 12:44:07 +0000";
layers = (
{
layerId = UUID0;
paths = (
{
closed = 1;
nodes = (
"277 -10 LINE",
"376 -10 OFFCURVE",
"468 32 OFFCURVE",
"468 143 CURVE SMOOTH",
"468 278 OFFCURVE",
"339 345 OFFCURVE",
"339 378 CURVE SMOOTH",
"339 405 OFFCURVE",
"415 466 OFFCURVE",
"415 586 CURVE SMOOTH",
"415 705 OFFCURVE",
"332 750 OFFCURVE",
"250 750 CURVE SMOOTH",
"158 750 OFFCURVE",
"79 688 OFFCURVE",
"79 577 CURVE SMOOTH",
"79 490 LINE",
"21 490 LINE",
"11 420 LINE",
"79 420 LINE",
"79 -136 LINE",
"169 -136 LINE",
"169 548 LINE SMOOTH",
"169 643 OFFCURVE",
"195 670 OFFCURVE",
"249 670 CURVE SMOOTH",
"290 670 OFFCURVE",
"327 653 OFFCURVE",
"327 584 CURVE SMOOTH",
"327 480 OFFCURVE",
"241 419 OFFCURVE",
"241 371 CURVE SMOOTH",
"241 311 OFFCURVE",
"377 253 OFFCURVE",
"377 142 CURVE SMOOTH",
"377 71 OFFCURVE",
"324 70 OFFCURVE",
"231 70 CURVE",
"231 -7 LINE",
"246 -8 OFFCURVE",
"259 -10 OFFCURVE",
"277 -10 CURVE SMOOTH"
);
}
);
width = 488;
},
{
layerId = "3AF73D1F-32CE-4CF3-BC01-E4A23F7DE30A";
paths = (
{
closed = 1;
nodes = (
"279 -10 LINE",
"382 -10 OFFCURVE",
"468 33 OFFCURVE",
"468 155 CURVE SMOOTH",
"468 294 OFFCURVE",
"362 327 OFFCURVE",
"362 367 CURVE SMOOTH",
"362 397 OFFCURVE",
"419 453 OFFCURVE",
"419 562 CURVE SMOOTH",
"419 697 OFFCURVE",
"331 750 OFFCURVE",
"247 750 CURVE SMOOTH",
"159 750 OFFCURVE",
"74 675 OFFCURVE",
"74 555 CURVE SMOOTH",
"74 500 LINE",
"27 500 LINE",
"18 398 LINE",
"74 398 LINE",
"74 -136 LINE",
"193 -136 LINE",
"193 560 LINE SMOOTH",
"193 609 OFFCURVE",
"213 646 OFFCURVE",
"246 646 CURVE SMOOTH",
"274 646 OFFCURVE",
"307 622 OFFCURVE",
"307 556 CURVE SMOOTH",
"307 457 OFFCURVE",
"238 415 OFFCURVE",
"238 360 CURVE SMOOTH",
"238 291 OFFCURVE",
"346 262 OFFCURVE",
"346 156 CURVE SMOOTH",
"346 92 OFFCURVE",
"307 92 OFFCURVE",
"224 92 CURVE",
"224 -5 LINE",
"245 -9 OFFCURVE",
"266 -10 OFFCURVE",
"279 -10 CURVE SMOOTH"
);
}
);
width = 488;
}
);
leftKerningGroup = f;
unicode = 00DF;
},
{
glyphname = grave;
lastChange = "2016-08-23 12:44:07 +0000";
layers = (
{
layerId = UUID0;
paths = (
{
closed = 1;
nodes = (
"211 596 LINE",
"211 637 LINE",
"50 732 LINE",
"50 660 LINE"
);
}
);
width = 261;
},
{
layerId = "3AF73D1F-32CE-4CF3-BC01-E4A23F7DE30A";
paths = (
{
closed = 1;
nodes = (
"211 585 LINE",
"211 659 LINE",
"50 750 LINE",
"50 646 LINE"
);
}
);
width = 261;
}
);
unicode = 0060;
},
{
glyphname = greater;
lastChange = "2016-08-23 12:44:07 +0000";
layers = (
{
layerId = UUID0;
paths = (
{
closed = 1;
nodes = (
"356 284 LINE",
"171 490 LINE",
"71 490 LINE",
"255 284 LINE",
"71 78 LINE",
"171 78 LINE"
);
}
);
width = 384;
},
{
layerId = "3AF73D1F-32CE-4CF3-BC01-E4A23F7DE30A";
paths = (
{
closed = 1;
nodes = (
"356 284 LINE",
"175 490 LINE",
"29 490 LINE",
"210 284 LINE",
"29 78 LINE",
"175 78 LINE"
);
}
);
width = 384;
}
);
unicode = 003E;
},
{
glyphname = guillemotleft;
lastChange = "2016-08-23 12:44:07 +0000";
layers = (
{
layerId = UUID0;
paths = (
{
closed = 1;
nodes = (
"464 78 LINE",
"336 284 LINE",
"464 490 LINE",
"361 490 LINE",
"233 284 LINE",
"361 78 LINE"
);
},
{
closed = 1;
nodes = (
"240 78 LINE",
"112 284 LINE",
"240 490 LINE",
"137 490 LINE",
"9 284 LINE",
"137 78 LINE"
);
}
);
width = 522;
},
{
layerId = "3AF73D1F-32CE-4CF3-BC01-E4A23F7DE30A";
paths = (
{
closed = 1;
nodes = (
"510 78 LINE",
"377 284 LINE",
"510 490 LINE",
"366 490 LINE",
"234 284 LINE",
"366 78 LINE"
);
},
{
closed = 1;
nodes = (
"286 78 LINE",
"154 284 LINE",
"286 490 LINE",
"143 490 LINE",
"10 284 LINE",
"143 78 LINE"
);
}
);
width = 523;
}
);
leftKerningGroup = guilsinglleft;
rightKerningGroup = guilsinglleft;
unicode = 00AB;
},
{
glyphname = guillemotright;
lastChange = "2016-08-23 12:44:07 +0000";
layers = (
{
layerId = UUID0;
paths = (
{
closed = 1;
nodes = (
"512 284 LINE",
"384 490 LINE",
"281 490 LINE",
"409 284 LINE",
"281 78 LINE",
"384 78 LINE"
);
},
{
closed = 1;
nodes = (
"289 284 LINE",
"160 490 LINE",
"57 490 LINE",
"186 284 LINE",
"57 78 LINE",
"160 78 LINE"
);
}
);
width = 522;
},
{
layerId = "3AF73D1F-32CE-4CF3-BC01-E4A23F7DE30A";
paths = (
{
closed = 1;
nodes = (
"513 284 LINE",
"380 490 LINE",
"237 490 LINE",
"369 284 LINE",
"237 78 LINE",
"380 78 LINE"
);
},
{
closed = 1;
nodes = (
"289 284 LINE",
"157 490 LINE",
"13 490 LINE",
"145 284 LINE",
"13 78 LINE",
"157 78 LINE"
);
}
);
width = 522;
}
);
leftKerningGroup = guilsinglright;
rightKerningGroup = guilsinglright;
unicode = 00BB;
},
{
glyphname = guilsinglleft;
lastChange = "2016-08-23 12:44:07 +0000";
layers = (
{
layerId = UUID0;
paths = (
{
closed = 1;
nodes = (
"251 78 LINE",
"116 284 LINE",
"251 490 LINE",
"143 490 LINE",
"9 284 LINE",
"143 78 LINE"
);
}
);
width = 299;
},
{
layerId = "3AF73D1F-32CE-4CF3-BC01-E4A23F7DE30A";
paths = (
{
closed = 1;
nodes = (
"279 78 LINE",
"151 284 LINE",
"279 490 LINE",
"138 490 LINE",
"10 284 LINE",
"138 78 LINE"
);
}
);
width = 299;
}
);
leftKerningGroup = guilsinglleft;
rightKerningGroup = guilsinglleft;
unicode = 2039;
},
{
glyphname = guilsinglright;
lastChange = "2016-08-23 12:44:07 +0000";
layers = (
{
layerId = UUID0;
paths = (
{
closed = 1;
nodes = (
"290 284 LINE",
"155 490 LINE",
"48 490 LINE",
"182 284 LINE",
"48 78 LINE",
"155 78 LINE"
);
}
);
width = 299;
},
{
layerId = "3AF73D1F-32CE-4CF3-BC01-E4A23F7DE30A";
paths = (
{
closed = 1;
nodes = (
"289 284 LINE",
"161 490 LINE",
"20 490 LINE",
"148 284 LINE",
"20 78 LINE",
"161 78 LINE"
);
}
);
width = 299;
}
);
leftKerningGroup = guilsinglright;
rightKerningGroup = guilsinglright;
unicode = 203A;
},
{
glyphname = h;
lastChange = "2016-08-23 12:44:07 +0000";
layers = (
{
layerId = UUID0;
paths = (
{
closed = 1;
nodes = (
"429 0 LINE",
"429 262 LINE SMOOTH",
"429 403 OFFCURVE",
"382 500 OFFCURVE",
"256 500 CURVE SMOOTH",
"210 500 OFFCURVE",
"175 480 OFFCURVE",
"147 437 CURVE",
"147 750 LINE",
"57 750 LINE",
"57 0 LINE",
"147 0 LINE",
"147 356 LINE",
"169 400 OFFCURVE",
"200 420 OFFCURVE",
"245 420 CURVE SMOOTH",
"314 420 OFFCURVE",
"339 378 OFFCURVE",
"339 262 CURVE SMOOTH",
"339 0 LINE"
);
}
);
width = 475;
},
{
layerId = "3AF73D1F-32CE-4CF3-BC01-E4A23F7DE30A";
paths = (
{
closed = 1;
nodes = (
"429 0 LINE",
"429 269 LINE SMOOTH",
"429 410 OFFCURVE",
"378 508 OFFCURVE",
"238 508 CURVE SMOOTH",
"216 508 OFFCURVE",
"186 493 OFFCURVE",
"163 474 CURVE",
"163 750 LINE",
"44 750 LINE",
"44 0 LINE",
"163 0 LINE",
"163 363 LINE",
"181 390 OFFCURVE",
"202 406 OFFCURVE",
"231 406 CURVE SMOOTH",
"285 406 OFFCURVE",
"310 362 OFFCURVE",
"310 269 CURVE SMOOTH",
"310 0 LINE"
);
}
);
width = 475;
}
);
leftKerningGroup = h;
rightKerningGroup = n;
unicode = 0068;
},
{
glyphname = hyphen;
lastChange = "2016-08-23 12:44:07 +0000";
layers = (
{
layerId = UUID0;
paths = (
{
closed = 1;
nodes = (
"309 238 LINE",
"309 324 LINE",
"42 324 LINE",
"42 238 LINE"
);
}
);
width = 351;
},
{
layerId = "3AF73D1F-32CE-4CF3-BC01-E4A23F7DE30A";
paths = (
{
closed = 1;
nodes = (
"309 230 LINE",
"309 324 LINE",
"42 324 LINE",
"42 230 LINE"
);
}
);
width = 351;
}
);
leftKerningGroup = hyphen;
rightKerningGroup = hyphen;
unicode = 002D;
},
{
glyphname = i;
lastChange = "2016-08-23 12:44:07 +0000";
layers = (
{
layerId = UUID0;
paths = (
{
closed = 1;
nodes = (
"148 600 LINE",
"148 700 LINE",
"58 700 LINE",
"58 600 LINE"
);
},
{
closed = 1;
nodes = (
"148 0 LINE",
"148 490 LINE",
"58 490 LINE",
"58 0 LINE"
);
}
);
width = 206;
},
{
layerId = "3AF73D1F-32CE-4CF3-BC01-E4A23F7DE30A";
paths = (
{
closed = 1;
nodes = (
"163 576 LINE",
"163 700 LINE",
"44 700 LINE",
"44 576 LINE"
);
},
{
closed = 1;
nodes = (
"163 0 LINE",
"163 500 LINE",
"44 500 LINE",
"44 0 LINE"
);
}
);
width = 207;
}
);
leftKerningGroup = i;
rightKerningGroup = i;
unicode = 0069;
},
{
glyphname = j;
lastChange = "2016-08-23 12:44:07 +0000";
layers = (
{
layerId = UUID0;
paths = (
{
closed = 1;
nodes = (
"40 -237 LINE SMOOTH",
"97 -228 OFFCURVE",
"148 -201 OFFCURVE",
"148 -107 CURVE SMOOTH",
"148 490 LINE",
"58 490 LINE",
"58 -73 LINE SMOOTH",
"58 -152 OFFCURVE",
"49 -167 OFFCURVE",
"0 -173 CURVE",
"9 -242 LINE"
);
},
{
closed = 1;
nodes = (
"148 600 LINE",
"148 700 LINE",
"58 700 LINE",
"58 600 LINE"
);
}
);
width = 206;
},
{
layerId = "3AF73D1F-32CE-4CF3-BC01-E4A23F7DE30A";
paths = (
{
closed = 1;
nodes = (
"51 -242 LINE SMOOTH",
"142 -242 OFFCURVE",
"163 -183 OFFCURVE",
"163 -111 CURVE SMOOTH",
"163 500 LINE",
"44 500 LINE",
"44 -60 LINE SMOOTH",
"44 -139 OFFCURVE",
"40 -140 OFFCURVE",
"-3 -140 CURVE",
"7 -242 LINE"
);
},
{
closed = 1;
nodes = (
"163 576 LINE",
"163 700 LINE",
"44 700 LINE",
"44 576 LINE"
);
}
);
width = 207;
}
);
leftKerningGroup = i;
rightKerningGroup = i;
unicode = 006A;
},
{
glyphname = k;
lastChange = "2016-08-23 12:44:07 +0000";
layers = (
{
layerId = UUID0;
paths = (
{
closed = 1;
nodes = (
"150 0 LINE",
"150 249 LINE",
"299 0 LINE",
"405 0 LINE",
"235 264 LINE",
"402 490 LINE",
"297 490 LINE",
"150 269 LINE",
"150 750 LINE",
"60 750 LINE",
"60 0 LINE"
);
}
);
width = 418;
},
{
layerId = "3AF73D1F-32CE-4CF3-BC01-E4A23F7DE30A";
paths = (
{
closed = 1;
nodes = (
"161 0 LINE",
"161 222 LINE",
"288 0 LINE",
"420 0 LINE",
"271 260 LINE",
"422 500 LINE",
"290 500 LINE",
"161 295 LINE",
"161 750 LINE",
"42 750 LINE",
"42 0 LINE"
);
}
);
width = 418;
}
);
leftKerningGroup = h;
unicode = 006B;
},
{
glyphname = l;
lastChange = "2016-08-23 12:44:07 +0000";
layers = (
{
layerId = UUID0;
paths = (
{
closed = 1;
nodes = (
"206 62 LINE",
"154 62 OFFCURVE",
"145 76 OFFCURVE",
"145 160 CURVE SMOOTH",
"145 750 LINE",
"55 750 LINE",
"55 108 LINE SMOOTH",
"55 49 OFFCURVE",
"85 -10 OFFCURVE",
"165 -10 CURVE SMOOTH",
"195 -10 LINE"
);
}
);
width = 228;
},
{
layerId = "3AF73D1F-32CE-4CF3-BC01-E4A23F7DE30A";
paths = (
{
closed = 1;
nodes = (
"210 92 LINE",
"175 92 OFFCURVE",
"165 92 OFFCURVE",
"165 172 CURVE SMOOTH",
"165 750 LINE",
"46 750 LINE",
"46 121 LINE SMOOTH",
"46 49 OFFCURVE",
"82 -10 OFFCURVE",
"156 -10 CURVE SMOOTH",
"201 -10 LINE"
);
}
);
width = 228;
}
);
unicode = 006C;
},
{
glyphname = less;
lastChange = "2016-08-23 12:44:07 +0000";
layers = (
{
layerId = UUID0;
paths = (
{
closed = 1;
nodes = (
"313 78 LINE",
"128 284 LINE",
"313 490 LINE",
"212 490 LINE",
"28 284 LINE",
"212 78 LINE"
);
}
);
width = 384;
},
{
layerId = "3AF73D1F-32CE-4CF3-BC01-E4A23F7DE30A";
paths = (
{
closed = 1;
nodes = (
"355 78 LINE",
"174 284 LINE",
"355 490 LINE",
"209 490 LINE",
"28 284 LINE",
"209 78 LINE"
);
}
);
width = 384;
}
);
unicode = 003C;
},
{
glyphname = logicalnot;
lastChange = "2016-08-23 12:44:07 +0000";
layers = (
{
layerId = UUID0;
paths = (
{
closed = 1;
nodes = (
"438 151 LINE",
"438 406 LINE",
"42 406 LINE",
"42 346 LINE",
"376 346 LINE",
"376 151 LINE"
);
}
);
width = 489;
},
{
layerId = "3AF73D1F-32CE-4CF3-BC01-E4A23F7DE30A";
paths = (
{
closed = 1;
nodes = (
"438 151 LINE",
"438 406 LINE",
"42 406 LINE",
"42 312 LINE",
"342 312 LINE",
"342 151 LINE"
);
}
);
width = 489;
}
);
unicode = 00AC;
},
{
glyphname = m;
lastChange = "2016-08-23 12:44:07 +0000";
layers = (
{
layerId = UUID0;
paths = (
{
closed = 1;
nodes = (
"702 0 LINE",
"702 289 LINE SMOOTH",
"702 433 OFFCURVE",
"646 500 OFFCURVE",
"536 500 CURVE SMOOTH",
"458 500 OFFCURVE",
"409 463 OFFCURVE",
"387 402 CURVE",
"352 484 OFFCURVE",
"298 500 OFFCURVE",
"249 500 CURVE SMOOTH",
"204 500 OFFCURVE",
"168 488 OFFCURVE",
"129 438 CURVE",
"122 490 LINE",
"50 490 LINE",
"50 0 LINE",
"140 0 LINE",
"140 356 LINE",
"160 400 OFFCURVE",
"195 420 OFFCURVE",
"238 420 CURVE SMOOTH",
"297 420 OFFCURVE",
"331 390 OFFCURVE",
"331 270 CURVE SMOOTH",
"331 0 LINE",
"421 0 LINE",
"421 284 LINE SMOOTH",
"421 339 OFFCURVE",
"434 420 OFFCURVE",
"521 420 CURVE SMOOTH",
"587 420 OFFCURVE",
"612 380 OFFCURVE",
"612 288 CURVE SMOOTH",
"612 0 LINE"
);
}
);
width = 745;
},
{
layerId = "3AF73D1F-32CE-4CF3-BC01-E4A23F7DE30A";
paths = (
{
closed = 1;
nodes = (
"697 0 LINE",
"697 269 LINE SMOOTH",
"697 409 OFFCURVE",
"643 508 OFFCURVE",
"522 508 CURVE SMOOTH",
"445 508 OFFCURVE",
"393 464 OFFCURVE",
"384 432 CURVE",
"358 484 OFFCURVE",
"308 508 OFFCURVE",
"258 508 CURVE SMOOTH",
"212 508 OFFCURVE",
"169 485 OFFCURVE",
"155 461 CURVE",
"150 500 LINE",
"50 500 LINE",
"50 0 LINE",
"169 0 LINE",
"169 365 LINE",
"187 391 OFFCURVE",
"206 406 OFFCURVE",
"234 406 CURVE SMOOTH",
"295 406 OFFCURVE",
"315 377 OFFCURVE",
"315 269 CURVE SMOOTH",
"315 0 LINE",
"433 0 LINE",
"433 309 LINE SMOOTH",
"433 360 OFFCURVE",
"448 406 OFFCURVE",
"506 406 CURVE SMOOTH",
"561 406 OFFCURVE",
"578 361 OFFCURVE",
"578 269 CURVE SMOOTH",
"578 0 LINE"
);
}
);
width = 744;
}
);
leftKerningGroup = n;
rightKerningGroup = n;
unicode = 006D;
},
{
glyphname = mu;
lastChange = "2016-08-23 12:44:07 +0000";
layers = (
{
layerId = UUID0;
paths = (
{
closed = 1;
nodes = (
"486 62 LINE",
"469 62 LINE SMOOTH",
"437 62 OFFCURVE",
"430 102 OFFCURVE",
"430 170 CURVE SMOOTH",
"430 490 LINE",
"342 490 LINE",
"342 127 LINE",
"315 86 OFFCURVE",
"291 69 OFFCURVE",
"250 69 CURVE SMOOTH",
"176 69 OFFCURVE",
"153 129 OFFCURVE",
"153 232 CURVE SMOOTH",
"153 490 LINE",
"64 490 LINE",
"64 -242 LINE",
"153 -242 LINE",
"153 27 LINE",
"185 -6 OFFCURVE",
"209 -11 OFFCURVE",
"241 -11 CURVE SMOOTH",
"289 -11 OFFCURVE",
"323 19 OFFCURVE",
"352 63 CURVE",
"369 13 OFFCURVE",
"400 -10 OFFCURVE",
"445 -10 CURVE SMOOTH",
"474 -10 LINE"
);
}
);
width = 523;
},
{
layerId = "3AF73D1F-32CE-4CF3-BC01-E4A23F7DE30A";
paths = (
{
closed = 1;
nodes = (
"491 92 LINE",
"479 92 LINE SMOOTH",
"449 92 OFFCURVE",
"442 97 OFFCURVE",
"442 172 CURVE SMOOTH",
"442 500 LINE",
"322 500 LINE",
"322 136 LINE",
"307 109 OFFCURVE",
"280 94 OFFCURVE",
"249 94 CURVE SMOOTH",
"199 94 OFFCURVE",
"173 138 OFFCURVE",
"173 231 CURVE SMOOTH",
"173 500 LINE",
"53 500 LINE",
"53 -242 LINE",
"173 -242 LINE",
"173 6 LINE",
"186 -3 OFFCURVE",
"212 -8 OFFCURVE",
"241 -8 CURVE SMOOTH",
"274 -8 OFFCURVE",
"324 15 OFFCURVE",
"344 42 CURVE",
"362 10 OFFCURVE",
"391 -10 OFFCURVE",
"437 -10 CURVE SMOOTH",
"483 -10 LINE"
);
}
);
width = 524;
}
);
unicode = 00B5;
},
{
glyphname = multiply;
lastChange = "2016-08-23 12:44:07 +0000";
layers = (
{
layerId = UUID0;
paths = (
{
closed = 1;
nodes = (
"324 155 LINE",
"224 277 LINE",
"324 399 LINE",
"285 435 LINE",
"184 312 LINE",
"85 435 LINE",
"45 399 LINE",
"145 277 LINE",
"45 155 LINE",
"85 119 LINE",
"184 242 LINE",
"285 119 LINE"
);
}
);
width = 369;
},
{
layerId = "3AF73D1F-32CE-4CF3-BC01-E4A23F7DE30A";
paths = (
{
closed = 1;
nodes = (
"333 170 LINE",
"247 277 LINE",
"333 384 LINE",
"271 445 LINE",
"185 338 LINE",
"99 445 LINE",
"37 384 LINE",
"123 277 LINE",
"37 170 LINE",
"99 109 LINE",
"185 216 LINE",
"271 109 LINE"
);
}
);
width = 370;
}
);
unicode = 00D7;
},
{
glyphname = n;
lastChange = "2016-08-23 12:44:07 +0000";
layers = (
{
layerId = UUID0;
paths = (
{
closed = 1;
nodes = (
"430 0 LINE",
"430 270 LINE SMOOTH",
"430 411 OFFCURVE",
"381 500 OFFCURVE",
"253 500 CURVE SMOOTH",
"213 500 OFFCURVE",
"171 488 OFFCURVE",
"132 438 CURVE",
"127 490 LINE",
"50 490 LINE",
"50 0 LINE",
"140 0 LINE",
"140 356 LINE",
"160 400 OFFCURVE",
"197 420 OFFCURVE",
"240 420 CURVE SMOOTH",
"312 420 OFFCURVE",
"340 374 OFFCURVE",
"340 270 CURVE SMOOTH",
"340 0 LINE"
);
}
);
width = 475;
},
{
layerId = "3AF73D1F-32CE-4CF3-BC01-E4A23F7DE30A";
paths = (
{
closed = 1;
nodes = (
"429 0 LINE",
"429 269 LINE SMOOTH",
"429 410 OFFCURVE",
"380 508 OFFCURVE",
"241 508 CURVE SMOOTH",
"212 508 OFFCURVE",
"181 491 OFFCURVE",
"166 470 CURVE",
"167 500 LINE",
"50 500 LINE",
"50 0 LINE",
"169 0 LINE",
"169 363 LINE",
"188 390 OFFCURVE",
"204 406 OFFCURVE",
"235 406 CURVE SMOOTH",
"287 406 OFFCURVE",
"310 362 OFFCURVE",
"310 269 CURVE SMOOTH",
"310 0 LINE"
);
}
);
width = 475;
}
);
leftKerningGroup = n;
rightKerningGroup = n;
unicode = 006E;
},
{
glyphname = nine;
lastChange = "2016-08-23 12:44:07 +0000";
layers = (
{
layerId = UUID0;
paths = (
{
closed = 1;
nodes = (
"259 714 LINE SMOOTH",
"131 714 OFFCURVE",
"50 612 OFFCURVE",
"50 481 CURVE SMOOTH",
"50 344 OFFCURVE",
"123 279 OFFCURVE",
"232 279 CURVE SMOOTH",
"265 279 OFFCURVE",
"322 299 OFFCURVE",
"345 336 CURVE",
"330 158 OFFCURVE",
"199 82 OFFCURVE",
"128 38 CURVE",
"194 0 LINE",
"290 0 OFFCURVE",
"448 163 OFFCURVE",
"448 462 CURVE SMOOTH",
"448 656 OFFCURVE",
"360 714 OFFCURVE",
"259 714 CURVE SMOOTH"
);
},
{
closed = 1;
nodes = (
"241 361 LINE SMOOTH",
"165 361 OFFCURVE",
"143 433 OFFCURVE",
"143 486 CURVE SMOOTH",
"143 558 OFFCURVE",
"180 631 OFFCURVE",
"251 631 CURVE SMOOTH",
"301 631 OFFCURVE",
"354 589 OFFCURVE",
"354 501 CURVE SMOOTH",
"354 415 OFFCURVE",
"303 361 OFFCURVE",
"241 361 CURVE SMOOTH"
);
}
);
width = 484;
},
{
layerId = "3AF73D1F-32CE-4CF3-BC01-E4A23F7DE30A";
paths = (
{
closed = 1;
nodes = (
"260 714 LINE SMOOTH",
"131 714 OFFCURVE",
"50 606 OFFCURVE",
"50 478 CURVE SMOOTH",
"50 346 OFFCURVE",
"128 279 OFFCURVE",
"231 279 CURVE SMOOTH",
"229 279 OFFCURVE",
"306 287 OFFCURVE",
"330 317 CURVE",
"329 172 OFFCURVE",
"155 50 OFFCURVE",
"113 50 CURVE",
"186 0 LINE",
"304 0 OFFCURVE",
"449 190 OFFCURVE",
"449 448 CURVE SMOOTH",
"449 640 OFFCURVE",
"368 714 OFFCURVE",
"260 714 CURVE SMOOTH"
);
},
{
closed = 1;
nodes = (
"243 383 LINE SMOOTH",
"192 383 OFFCURVE",
"168 434 OFFCURVE",
"168 483 CURVE SMOOTH",
"168 540 OFFCURVE",
"200 600 OFFCURVE",
"256 600 CURVE SMOOTH",
"288 600 OFFCURVE",
"337 577 OFFCURVE",
"337 496 CURVE SMOOTH",
"337 420 OFFCURVE",
"296 383 OFFCURVE",
"243 383 CURVE SMOOTH"
);
}
);
width = 484;
}
);
unicode = 0039;
},
{
glyphname = nineinferior;
lastChange = "2016-08-23 12:44:07 +0000";
layers = (
{
layerId = UUID0;
paths = (
{
closed = 1;
nodes = (
"177 386 LINE SMOOTH",
"102 386 OFFCURVE",
"55 327 OFFCURVE",
"55 258 CURVE SMOOTH",
"55 187 OFFCURVE",
"101 151 OFFCURVE",
"160 151 CURVE SMOOTH",
"173 151 OFFCURVE",
"204 154 OFFCURVE",
"217 170 CURVE",
"214 94 OFFCURVE",
"123 28 OFFCURVE",
"91 28 CURVE",
"133 0 LINE",
"203 0 OFFCURVE",
"286 105 OFFCURVE",
"286 241 CURVE SMOOTH",
"286 344 OFFCURVE",
"240 386 OFFCURVE",
"177 386 CURVE SMOOTH"
);
},
{
closed = 1;
nodes = (
"167 209 LINE SMOOTH",
"140 209 OFFCURVE",
"126 234 OFFCURVE",
"126 261 CURVE SMOOTH",
"126 290 OFFCURVE",
"143 321 OFFCURVE",
"175 321 CURVE SMOOTH",
"192 321 OFFCURVE",
"220 311 OFFCURVE",
"220 267 CURVE SMOOTH",
"220 227 OFFCURVE",
"197 209 OFFCURVE",
"167 209 CURVE SMOOTH"
);
}
);
width = 332;
},
{
layerId = "3AF73D1F-32CE-4CF3-BC01-E4A23F7DE30A";
paths = (
{
closed = 1;
nodes = (
"177 386 LINE SMOOTH",
"102 386 OFFCURVE",
"55 322 OFFCURVE",
"55 256 CURVE SMOOTH",
"55 189 OFFCURVE",
"107 151 OFFCURVE",
"160 151 CURVE SMOOTH",
"185 151 OFFCURVE",
"195 154 OFFCURVE",
"209 164 CURVE",
"207 112 OFFCURVE",
"115 37 OFFCURVE",
"79 37 CURVE",
"127 0 LINE",
"215 0 OFFCURVE",
"286 125 OFFCURVE",
"286 230 CURVE SMOOTH",
"286 332 OFFCURVE",
"247 386 OFFCURVE",
"177 386 CURVE SMOOTH"
);
},
{
closed = 1;
nodes = (
"168 225 LINE SMOOTH",
"161 225 OFFCURVE",
"145 235 OFFCURVE",
"145 258 CURVE SMOOTH",
"145 276 OFFCURVE",
"159 301 OFFCURVE",
"179 301 CURVE SMOOTH",
"181 301 OFFCURVE",
"207 301 OFFCURVE",
"207 264 CURVE SMOOTH",
"207 231 OFFCURVE",
"191 225 OFFCURVE",
"168 225 CURVE SMOOTH"
);
}
);
width = 331;
}
);
unicode = 2089;
},
{
glyphname = ninesuperior;
lastChange = "2016-08-23 12:44:07 +0000";
layers = (
{
layerId = UUID0;
paths = (
{
closed = 1;
nodes = (
"177 706 LINE SMOOTH",
"102 706 OFFCURVE",
"55 647 OFFCURVE",
"55 578 CURVE SMOOTH",
"55 507 OFFCURVE",
"107 471 OFFCURVE",
"160 471 CURVE SMOOTH",
"173 471 OFFCURVE",
"203 474 OFFCURVE",
"217 490 CURVE",
"215 414 OFFCURVE",
"124 348 OFFCURVE",
"91 348 CURVE",
"133 320 LINE",
"203 320 OFFCURVE",
"286 425 OFFCURVE",
"286 561 CURVE SMOOTH",
"286 664 OFFCURVE",
"240 706 OFFCURVE",
"177 706 CURVE SMOOTH"
);
},
{
closed = 1;
nodes = (
"167 529 LINE SMOOTH",
"140 529 OFFCURVE",
"126 554 OFFCURVE",
"126 581 CURVE SMOOTH",
"126 610 OFFCURVE",
"143 641 OFFCURVE",
"174 641 CURVE SMOOTH",
"191 641 OFFCURVE",
"220 631 OFFCURVE",
"220 587 CURVE SMOOTH",
"220 547 OFFCURVE",
"197 529 OFFCURVE",
"167 529 CURVE SMOOTH"
);
}
);
width = 332;
},
{
layerId = "3AF73D1F-32CE-4CF3-BC01-E4A23F7DE30A";
paths = (
{
closed = 1;
nodes = (
"177 706 LINE SMOOTH",
"102 706 OFFCURVE",
"55 642 OFFCURVE",
"55 576 CURVE SMOOTH",
"55 509 OFFCURVE",
"128 471 OFFCURVE",
"161 471 CURVE SMOOTH",
"187 471 OFFCURVE",
"194 473 OFFCURVE",
"207 483 CURVE",
"209 433 OFFCURVE",
"113 357 OFFCURVE",
"79 357 CURVE",
"127 320 LINE",
"215 320 OFFCURVE",
"286 445 OFFCURVE",
"286 550 CURVE SMOOTH",
"286 652 OFFCURVE",
"247 706 OFFCURVE",
"177 706 CURVE SMOOTH"
);
},
{
closed = 1;
nodes = (
"168 545 LINE SMOOTH",
"161 545 OFFCURVE",
"145 555 OFFCURVE",
"145 578 CURVE SMOOTH",
"145 596 OFFCURVE",
"158 622 OFFCURVE",
"178 622 CURVE SMOOTH",
"180 622 OFFCURVE",
"207 621 OFFCURVE",
"207 584 CURVE SMOOTH",
"207 551 OFFCURVE",
"191 545 OFFCURVE",
"168 545 CURVE SMOOTH"
);
}
);
width = 331;
}
);
unicode = 2079;
},
{
glyphname = numbersign;
lastChange = "2016-08-23 12:44:07 +0000";
layers = (
{
background = {
paths = (
{
closed = 1;
nodes = (
"674 507 LINE",
"561 507 LINE",
"635 700 LINE",
"555 700 LINE",
"480 507 LINE",
"346 507 LINE",
"421 700 LINE",
"341 700 LINE",
"267 507 LINE",
"138 507 LINE",
"109 422 LINE",
"235 422 LINE",
"190 307 LINE",
"75 307 LINE",
"35 216 LINE",
"155 216 LINE",
"69 -11 LINE",
"148 -11 LINE",
"235 216 LINE",
"369 216 LINE",
"282 -11 LINE",
"363 -11 LINE",
"449 216 LINE",
"571 216 LINE",
"612 307 LINE",
"484 307 LINE",
"529 422 LINE",
"645 422 LINE"
);
},
{
closed = 1;
nodes = (
"448 422 LINE",
"403 307 LINE",
"270 307 LINE",
"315 422 LINE"
);
}
);
};
layerId = UUID0;
paths = (
{
closed = 1;
nodes = (
"581 507 LINE",
"485 507 LINE",
"548 700 LINE",
"473 700 LINE",
"410 507 LINE",
"303 507 LINE",
"366 700 LINE",
"292 700 LINE",
"229 507 LINE",
"119 507 LINE",
"93 423 LINE",
"199 423 LINE",
"161 300 LINE",
"63 300 LINE",
"29 216 LINE",
"131 216 LINE",
"58 -11 LINE",
"132 -11 LINE",
"206 216 LINE",
"313 216 LINE",
"240 -11 LINE",
"315 -11 LINE",
"388 216 LINE",
"491 216 LINE",
"526 300 LINE",
"417 300 LINE",
"456 423 LINE",
"555 423 LINE"
);
},
{
closed = 1;
nodes = (
"381 423 LINE",
"341 300 LINE",
"235 300 LINE",
"274 423 LINE"
);
}
);
width = 617;
},
{
background = {
paths = (
{
closed = 1;
nodes = (
"679 512 LINE",
"568 512 LINE",
"640 700 LINE",
"544 700 LINE",
"472 512 LINE",
"360 512 LINE",
"432 700 LINE",
"338 700 LINE",
"264 512 LINE",
"138 512 LINE",
"106 414 LINE",
"227 414 LINE",
"187 309 LINE",
"75 309 LINE",
"32 211 LINE",
"150 211 LINE",
"66 -11 LINE",
"160 -11 LINE",
"246 211 LINE",
"356 211 LINE",
"274 -11 LINE",
"370 -11 LINE",
"454 211 LINE",
"571 211 LINE",
"616 309 LINE",
"491 309 LINE",
"531 414 LINE",
"645 414 LINE"
);
},
{
closed = 1;
nodes = (
"435 414 LINE",
"393 309 LINE",
"281 309 LINE",
"323 414 LINE"
);
}
);
};
layerId = "3AF73D1F-32CE-4CF3-BC01-E4A23F7DE30A";
paths = (
{
closed = 1;
nodes = (
"585 512 LINE",
"491 512 LINE",
"552 700 LINE",
"463 700 LINE",
"403 512 LINE",
"314 512 LINE",
"375 700 LINE",
"289 700 LINE",
"226 512 LINE",
"118 512 LINE",
"90 414 LINE",
"192 414 LINE",
"160 309 LINE",
"65 309 LINE",
"26 211 LINE",
"127 211 LINE",
"55 -11 LINE",
"142 -11 LINE",
"215 211 LINE",
"301 211 LINE",
"232 -11 LINE",
"320 -11 LINE",
"392 211 LINE",
"491 211 LINE",
"532 309 LINE",
"426 309 LINE",
"457 414 LINE",
"554 414 LINE"
);
},
{
closed = 1;
nodes = (
"369 414 LINE",
"335 309 LINE",
"246 309 LINE",
"280 414 LINE"
);
}
);
width = 605;
}
);
unicode = 0023;
},
{
glyphname = o;
lastChange = "2016-08-23 12:44:07 +0000";
layers = (
{
layerId = UUID0;
paths = (
{
closed = 1;
nodes = (
"237 -10 LINE",
"371 -10 OFFCURVE",
"449 103 OFFCURVE",
"449 245 CURVE SMOOTH",
"449 387 OFFCURVE",
"371 500 OFFCURVE",
"237 500 CURVE SMOOTH",
"102 500 OFFCURVE",
"24 387 OFFCURVE",
"24 245 CURVE SMOOTH",
"24 103 OFFCURVE",
"102 -10 OFFCURVE",
"237 -10 CURVE SMOOTH"
);
},
{
closed = 1;
nodes = (
"237 420 LINE",
"314 420 OFFCURVE",
"357 355 OFFCURVE",
"357 245 CURVE SMOOTH",
"357 135 OFFCURVE",
"314 70 OFFCURVE",
"237 70 CURVE SMOOTH",
"159 70 OFFCURVE",
"116 135 OFFCURVE",
"116 245 CURVE SMOOTH",
"116 355 OFFCURVE",
"159 420 OFFCURVE",
"237 420 CURVE SMOOTH"
);
}
);
width = 473;
},
{
layerId = "3AF73D1F-32CE-4CF3-BC01-E4A23F7DE30A";
paths = (
{
closed = 1;
nodes = (
"245 -10 LINE",
"385 -10 OFFCURVE",
"467 109 OFFCURVE",
"467 249 CURVE SMOOTH",
"467 389 OFFCURVE",
"385 508 OFFCURVE",
"245 508 CURVE SMOOTH",
"105 508 OFFCURVE",
"24 389 OFFCURVE",
"24 249 CURVE SMOOTH",
"24 109 OFFCURVE",
"105 -10 OFFCURVE",
"245 -10 CURVE SMOOTH"
);
},
{
closed = 1;
nodes = (
"245 406 LINE",
"308 406 OFFCURVE",
"344 342 OFFCURVE",
"344 249 CURVE SMOOTH",
"344 156 OFFCURVE",
"308 92 OFFCURVE",
"245 92 CURVE SMOOTH",
"183 92 OFFCURVE",
"146 156 OFFCURVE",
"146 249 CURVE SMOOTH",
"146 342 OFFCURVE",
"183 406 OFFCURVE",
"245 406 CURVE SMOOTH"
);
}
);
width = 491;
}
);
leftKerningGroup = o;
rightKerningGroup = o;
unicode = 006F;
},
{
glyphname = oe;
lastChange = "2016-08-23 12:44:07 +0000";
layers = (
{
layerId = UUID0;
paths = (
{
closed = 1;
nodes = (
"742 245 LINE",
"745 262 OFFCURVE",
"746 277 OFFCURVE",
"746 296 CURVE SMOOTH",
"746 425 OFFCURVE",
"669 500 OFFCURVE",
"561 500 CURVE SMOOTH",
"500 500 OFFCURVE",
"437 468 OFFCURVE",
"403 398 CURVE",
"373 468 OFFCURVE",
"306 500 OFFCURVE",
"240 500 CURVE SMOOTH",
"103 500 OFFCURVE",
"24 391 OFFCURVE",
"24 250 CURVE SMOOTH",
"24 106 OFFCURVE",
"103 -10 OFFCURVE",
"238 -10 CURVE SMOOTH",
"310 -10 OFFCURVE",
"376 27 OFFCURVE",
"406 97 CURVE",
"437 27 OFFCURVE",
"493 -10 OFFCURVE",
"590 -10 CURVE SMOOTH",
"647 -10 OFFCURVE",
"694 5 OFFCURVE",
"726 22 CURVE",
"719 99 LINE",
"684 78 OFFCURVE",
"631 62 OFFCURVE",
"586 62 CURVE SMOOTH",
"534 62 OFFCURVE",
"459 88 OFFCURVE",
"454 245 CURVE"
);
},
{
closed = 1;
nodes = (
"562 420 LINE SMOOTH",
"621 420 OFFCURVE",
"652 379 OFFCURVE",
"655 307 CURVE",
"456 307 LINE",
"469 388 OFFCURVE",
"504 420 OFFCURVE",
"562 420 CURVE SMOOTH"
);
},
{
closed = 1;
nodes = (
"240 420 LINE SMOOTH",
"317 420 OFFCURVE",
"361 348 OFFCURVE",
"361 248 CURVE SMOOTH",
"361 148 OFFCURVE",
"320 70 OFFCURVE",
"240 70 CURVE SMOOTH",
"159 70 OFFCURVE",
"116 135 OFFCURVE",
"116 245 CURVE SMOOTH",
"116 355 OFFCURVE",
"159 420 OFFCURVE",
"240 420 CURVE SMOOTH"
);
}
);
width = 769;
},
{
layerId = "3AF73D1F-32CE-4CF3-BC01-E4A23F7DE30A";
paths = (
{
closed = 1;
nodes = (
"738 223 LINE",
"743 247 OFFCURVE",
"746 269 OFFCURVE",
"746 291 CURVE SMOOTH",
"746 423 OFFCURVE",
"663 508 OFFCURVE",
"555 508 CURVE SMOOTH",
"483 508 OFFCURVE",
"440 477 OFFCURVE",
"403 429 CURVE",
"361 477 OFFCURVE",
"315 508 OFFCURVE",
"243 508 CURVE SMOOTH",
"105 508 OFFCURVE",
"24 389 OFFCURVE",
"24 249 CURVE SMOOTH",
"24 109 OFFCURVE",
"104 -10 OFFCURVE",
"244 -10 CURVE SMOOTH",
"314 -10 OFFCURVE",
"362 21 OFFCURVE",
"404 71 CURVE",
"449 21 OFFCURVE",
"511 -10 OFFCURVE",
"579 -10 CURVE SMOOTH",
"643 -10 OFFCURVE",
"695 8 OFFCURVE",
"728 28 CURVE",
"725 133 LINE",
"689 111 OFFCURVE",
"630 92 OFFCURVE",
"592 92 CURVE SMOOTH",
"532 92 OFFCURVE",
"485 130 OFFCURVE",
"468 223 CURVE"
);
},
{
closed = 1;
nodes = (
"560 406 LINE SMOOTH",
"616 406 OFFCURVE",
"628 352 OFFCURVE",
"625 307 CURVE",
"471 307 LINE",
"479 364 OFFCURVE",
"507 406 OFFCURVE",
"560 406 CURVE SMOOTH"
);
},
{
closed = 1;
nodes = (
"243 406 LINE SMOOTH",
"305 406 OFFCURVE",
"342 342 OFFCURVE",
"342 249 CURVE SMOOTH",
"342 156 OFFCURVE",
"303 92 OFFCURVE",
"243 92 CURVE SMOOTH",
"183 92 OFFCURVE",
"146 156 OFFCURVE",
"146 249 CURVE SMOOTH",
"146 342 OFFCURVE",
"183 406 OFFCURVE",
"243 406 CURVE SMOOTH"
);
}
);
width = 769;
}
);
leftKerningGroup = o;
rightKerningGroup = e;
unicode = 0153;
},
{
glyphname = one;
lastChange = "2016-08-23 12:44:07 +0000";
layers = (
{
layerId = UUID0;
paths = (
{
closed = 1;
nodes = (
"230 0 LINE",
"230 700 LINE",
"158 700 LINE",
"136 653 OFFCURVE",
"80 609 OFFCURVE",
"38 591 CURVE",
"50 502 LINE",
"76 511 OFFCURVE",
"100 524 OFFCURVE",
"134 563 CURVE",
"134 0 LINE"
);
}
);
width = 315;
},
{
layerId = "3AF73D1F-32CE-4CF3-BC01-E4A23F7DE30A";
paths = (
{
closed = 1;
nodes = (
"234 0 LINE",
"234 700 LINE",
"140 700 LINE",
"128 652 OFFCURVE",
"69 600 OFFCURVE",
"36 591 CURVE",
"44 483 LINE",
"74 489 OFFCURVE",
"99 502 OFFCURVE",
"113 519 CURVE",
"113 0 LINE"
);
}
);
width = 316;
}
);
unicode = 0031;
},
{
glyphname = oneinferior;
lastChange = "2016-08-23 12:44:07 +0000";
layers = (
{
layerId = UUID0;
paths = (
{
closed = 1;
nodes = (
"162 0 LINE",
"162 378 LINE",
"106 378 LINE",
"100 352 OFFCURVE",
"65 323 OFFCURVE",
"47 319 CURVE",
"51 259 LINE",
"69 262 OFFCURVE",
"83 269 OFFCURVE",
"90 276 CURVE",
"90 0 LINE"
);
}
);
width = 235;
},
{
layerId = "3AF73D1F-32CE-4CF3-BC01-E4A23F7DE30A";
paths = (
{
closed = 1;
nodes = (
"165 0 LINE",
"165 378 LINE",
"92 378 LINE",
"93 351 OFFCURVE",
"55 316 OFFCURVE",
"45 319 CURVE",
"45 245 LINE",
"67 245 OFFCURVE",
"82 252 OFFCURVE",
"74 243 CURVE",
"74 0 LINE"
);
}
);
width = 235;
}
);
unicode = 2081;
},
{
glyphname = onesuperior;
lastChange = "2016-08-23 12:44:07 +0000";
layers = (
{
layerId = UUID0;
paths = (
{
closed = 1;
nodes = (
"162 320 LINE",
"162 698 LINE",
"106 698 LINE",
"100 672 OFFCURVE",
"65 643 OFFCURVE",
"47 639 CURVE",
"51 579 LINE",
"69 582 OFFCURVE",
"83 589 OFFCURVE",
"90 596 CURVE",
"90 320 LINE"
);
}
);
width = 235;
},
{
layerId = "3AF73D1F-32CE-4CF3-BC01-E4A23F7DE30A";
paths = (
{
closed = 1;
nodes = (
"165 320 LINE",
"165 698 LINE",
"92 698 LINE",
"93 671 OFFCURVE",
"55 636 OFFCURVE",
"45 639 CURVE",
"45 565 LINE",
"67 565 OFFCURVE",
"82 572 OFFCURVE",
"74 563 CURVE",
"74 320 LINE"
);
}
);
width = 235;
}
);
unicode = 00B9;
},
{
glyphname = ordfeminine;
lastChange = "2016-08-23 12:44:07 +0000";
layers = (
{
layerId = UUID0;
paths = (
{
closed = 1;
nodes = (
"272 495 LINE",
"261 495 LINE SMOOTH",
"248 495 OFFCURVE",
"243 495 OFFCURVE",
"243 537 CURVE SMOOTH",
"243 617 LINE SMOOTH",
"243 694 OFFCURVE",
"201 725 OFFCURVE",
"147 725 CURVE SMOOTH",
"116 725 OFFCURVE",
"85 718 OFFCURVE",
"48 702 CURVE",
"53 642 LINE",
"81 655 OFFCURVE",
"101 662 OFFCURVE",
"126 662 CURVE SMOOTH",
"158 662 OFFCURVE",
"165 648 OFFCURVE",
"167 620 CURVE",
"129 618 OFFCURVE",
"26 599 OFFCURVE",
"26 519 CURVE SMOOTH",
"26 465 OFFCURVE",
"61 434 OFFCURVE",
"99 434 CURVE SMOOTH",
"129 434 OFFCURVE",
"163 445 OFFCURVE",
"179 465 CURVE",
"188 447 OFFCURVE",
"213 434 OFFCURVE",
"233 434 CURVE SMOOTH",
"267 434 LINE"
);
},
{
closed = 1;
nodes = (
"168 507 LINE",
"155 495 OFFCURVE",
"140 490 OFFCURVE",
"137 490 CURVE SMOOTH",
"112 490 OFFCURVE",
"105 500 OFFCURVE",
"105 522 CURVE SMOOTH",
"105 554 OFFCURVE",
"154 569 OFFCURVE",
"168 570 CURVE"
);
}
);
width = 298;
},
{
layerId = "3AF73D1F-32CE-4CF3-BC01-E4A23F7DE30A";
paths = (
{
closed = 1;
nodes = (
"285 519 LINE",
"269 519 LINE SMOOTH",
"267 519 OFFCURVE",
"259 496 OFFCURVE",
"259 543 CURVE SMOOTH",
"259 650 LINE SMOOTH",
"259 702 OFFCURVE",
"203 732 OFFCURVE",
"158 732 CURVE SMOOTH",
"129 732 OFFCURVE",
"99 729 OFFCURVE",
"47 713 CURVE",
"51 632 LINE",
"80 637 OFFCURVE",
"98 647 OFFCURVE",
"130 647 CURVE SMOOTH",
"158 647 OFFCURVE",
"154 629 OFFCURVE",
"159 629 CURVE",
"142 627 OFFCURVE",
"26 607 OFFCURVE",
"26 526 CURVE SMOOTH",
"26 461 OFFCURVE",
"64 434 OFFCURVE",
"95 434 CURVE SMOOTH",
"122 434 OFFCURVE",
"164 439 OFFCURVE",
"176 454 CURVE",
"186 445 OFFCURVE",
"223 434 OFFCURVE",
"220 434 CURVE SMOOTH",
"283 434 LINE"
);
},
{
closed = 1;
nodes = (
"160 501 LINE",
"150 501 OFFCURVE",
"142 508 OFFCURVE",
"157 508 CURVE SMOOTH",
"131 508 OFFCURVE",
"132 516 OFFCURVE",
"132 528 CURVE SMOOTH",
"132 549 OFFCURVE",
"199 563 OFFCURVE",
"160 563 CURVE"
);
}
);
width = 311;
}
);
unicode = 00AA;
},
{
glyphname = ordmasculine;
lastChange = "2016-08-23 12:44:07 +0000";
layers = (
{
layerId = UUID0;
paths = (
{
closed = 1;
nodes = (
"160 434 LINE",
"244 434 OFFCURVE",
"293 502 OFFCURVE",
"293 580 CURVE SMOOTH",
"293 658 OFFCURVE",
"244 725 OFFCURVE",
"160 725 CURVE SMOOTH",
"75 725 OFFCURVE",
"26 658 OFFCURVE",
"26 580 CURVE SMOOTH",
"26 502 OFFCURVE",
"75 434 OFFCURVE",
"160 434 CURVE SMOOTH"
);
},
{
closed = 1;
nodes = (
"160 666 LINE",
"196 666 OFFCURVE",
"217 630 OFFCURVE",
"217 580 CURVE SMOOTH",
"217 530 OFFCURVE",
"196 494 OFFCURVE",
"160 494 CURVE SMOOTH",
"123 494 OFFCURVE",
"102 530 OFFCURVE",
"102 580 CURVE SMOOTH",
"102 630 OFFCURVE",
"123 666 OFFCURVE",
"160 666 CURVE SMOOTH"
);
}
);
width = 319;
},
{
layerId = "3AF73D1F-32CE-4CF3-BC01-E4A23F7DE30A";
paths = (
{
closed = 1;
nodes = (
"167 434 LINE",
"257 434 OFFCURVE",
"307 506 OFFCURVE",
"307 583 CURVE SMOOTH",
"307 660 OFFCURVE",
"257 732 OFFCURVE",
"167 732 CURVE SMOOTH",
"78 732 OFFCURVE",
"26 660 OFFCURVE",
"26 583 CURVE SMOOTH",
"26 506 OFFCURVE",
"78 434 OFFCURVE",
"167 434 CURVE SMOOTH"
);
},
{
closed = 1;
nodes = (
"167 655 LINE",
"191 655 OFFCURVE",
"206 620 OFFCURVE",
"206 583 CURVE SMOOTH",
"206 546 OFFCURVE",
"191 511 OFFCURVE",
"167 511 CURVE SMOOTH",
"143 511 OFFCURVE",
"127 546 OFFCURVE",
"127 583 CURVE SMOOTH",
"127 620 OFFCURVE",
"143 655 OFFCURVE",
"167 655 CURVE SMOOTH"
);
}
);
width = 333;
}
);
unicode = 00BA;
},
{
glyphname = oslash;
lastChange = "2016-08-23 12:44:07 +0000";
layers = (
{
layerId = UUID0;
paths = (
{
closed = 1;
nodes = (
"242 -8 LINE",
"379 -8 OFFCURVE",
"459 108 OFFCURVE",
"459 248 CURVE SMOOTH",
"459 335 OFFCURVE",
"429 411 OFFCURVE",
"368 468 CURVE",
"399 534 LINE",
"322 534 LINE",
"307 494 LINE",
"282 503 OFFCURVE",
"262 506 OFFCURVE",
"241 506 CURVE SMOOTH",
"104 506 OFFCURVE",
"24 389 OFFCURVE",
"24 249 CURVE SMOOTH",
"24 163 OFFCURVE",
"54 86 OFFCURVE",
"113 31 CURVE",
"84 -35 LINE",
"158 -35 LINE",
"173 3 LINE",
"200 -5 OFFCURVE",
"220 -8 OFFCURVE",
"242 -8 CURVE SMOOTH"
);
},
{
closed = 1;
nodes = (
"333 398 LINE",
"356 372 OFFCURVE",
"365 294 OFFCURVE",
"365 248 CURVE SMOOTH",
"365 145 OFFCURVE",
"321 62 OFFCURVE",
"242 62 CURVE SMOOTH",
"234 62 OFFCURVE",
"226 63 OFFCURVE",
"206 68 CURVE"
);
},
{
closed = 1;
nodes = (
"241 436 LINE",
"249 436 OFFCURVE",
"255 435 OFFCURVE",
"274 429 CURVE",
"149 100 LINE",
"126 165 OFFCURVE",
"118 205 OFFCURVE",
"118 248 CURVE SMOOTH",
"118 354 OFFCURVE",
"162 436 OFFCURVE",
"241 436 CURVE SMOOTH"
);
}
);
width = 483;
},
{
layerId = "3AF73D1F-32CE-4CF3-BC01-E4A23F7DE30A";
paths = (
{
closed = 1;
nodes = (
"242 -10 LINE",
"379 -10 OFFCURVE",
"459 109 OFFCURVE",
"459 249 CURVE SMOOTH",
"459 334 OFFCURVE",
"429 411 OFFCURVE",
"380 459 CURVE",
"413 534 LINE",
"306 534 LINE",
"293 500 LINE",
"281 505 OFFCURVE",
"262 508 OFFCURVE",
"242 508 CURVE SMOOTH",
"104 508 OFFCURVE",
"24 389 OFFCURVE",
"24 249 CURVE SMOOTH",
"24 164 OFFCURVE",
"53 86 OFFCURVE",
"103 39 CURVE",
"71 -36 LINE",
"175 -36 LINE",
"187 -2 LINE",
"201 -7 OFFCURVE",
"220 -10 OFFCURVE",
"242 -10 CURVE SMOOTH"
);
},
{
closed = 1;
nodes = (
"327 349 LINE",
"332 322 OFFCURVE",
"339 288 OFFCURVE",
"339 249 CURVE SMOOTH",
"339 156 OFFCURVE",
"303 92 OFFCURVE",
"241 92 CURVE SMOOTH",
"235 92 OFFCURVE",
"229 93 OFFCURVE",
"233 94 CURVE"
);
},
{
closed = 1;
nodes = (
"242 406 LINE",
"247 406 OFFCURVE",
"253 405 OFFCURVE",
"247 404 CURVE",
"156 149 LINE",
"151 176 OFFCURVE",
"144 210 OFFCURVE",
"144 249 CURVE SMOOTH",
"144 342 OFFCURVE",
"181 406 OFFCURVE",
"242 406 CURVE SMOOTH"
);
}
);
width = 483;
}
);
leftKerningGroup = o;
rightKerningGroup = o;
unicode = 00F8;
},
{
glyphname = p;
lastChange = "2016-08-23 12:44:07 +0000";
layers = (
{
layerId = UUID0;
paths = (
{
closed = 1;
nodes = (
"265 -10 LINE SMOOTH",
"395 -10 OFFCURVE",
"462 102 OFFCURVE",
"462 245 CURVE SMOOTH",
"462 379 OFFCURVE",
"391 500 OFFCURVE",
"265 500 CURVE SMOOTH",
"205 500 OFFCURVE",
"172 471 OFFCURVE",
"138 420 CURVE",
"130 490 LINE",
"56 490 LINE",
"56 -242 LINE",
"146 -242 LINE",
"146 62 LINE",
"176 14 OFFCURVE",
"224 -10 OFFCURVE",
"265 -10 CURVE SMOOTH"
);
},
{
closed = 1;
nodes = (
"257 420 LINE",
"329 420 OFFCURVE",
"371 345 OFFCURVE",
"371 245 CURVE SMOOTH",
"371 149 OFFCURVE",
"329 70 OFFCURVE",
"257 70 CURVE SMOOTH",
"192 70 OFFCURVE",
"141 122 OFFCURVE",
"141 245 CURVE SMOOTH",
"141 363 OFFCURVE",
"192 420 OFFCURVE",
"257 420 CURVE SMOOTH"
);
}
);
width = 491;
},
{
layerId = "3AF73D1F-32CE-4CF3-BC01-E4A23F7DE30A";
paths = (
{
closed = 1;
nodes = (
"251 -10 LINE SMOOTH",
"394 -10 OFFCURVE",
"472 109 OFFCURVE",
"472 249 CURVE SMOOTH",
"472 389 OFFCURVE",
"397 508 OFFCURVE",
"251 508 CURVE SMOOTH",
"213 508 OFFCURVE",
"187 494 OFFCURVE",
"161 471 CURVE",
"152 500 LINE",
"45 500 LINE",
"45 -242 LINE",
"164 -242 LINE",
"164 24 LINE",
"191 2 OFFCURVE",
"203 -10 OFFCURVE",
"251 -10 CURVE SMOOTH"
);
},
{
closed = 1;
nodes = (
"245 406 LINE",
"312 406 OFFCURVE",
"349 342 OFFCURVE",
"349 249 CURVE SMOOTH",
"349 156 OFFCURVE",
"312 92 OFFCURVE",
"245 92 CURVE SMOOTH",
"173 92 OFFCURVE",
"159 156 OFFCURVE",
"159 249 CURVE SMOOTH",
"159 342 OFFCURVE",
"173 406 OFFCURVE",
"245 406 CURVE SMOOTH"
);
}
);
width = 492;
}
);
leftKerningGroup = n;
rightKerningGroup = o;
unicode = 0070;
},
{
glyphname = paragraph;
lastChange = "2016-08-23 12:44:07 +0000";
layers = (
{
layerId = UUID0;
paths = (
{
closed = 1;
nodes = (
"498 633 LINE",
"498 700 LINE",
"275 700 LINE SMOOTH",
"107 700 OFFCURVE",
"28 584 OFFCURVE",
"28 474 CURVE SMOOTH",
"28 367 OFFCURVE",
"101 254 OFFCURVE",
"262 243 CURVE",
"262 0 LINE",
"308 0 LINE",
"308 633 LINE",
"380 633 LINE",
"380 0 LINE",
"436 0 LINE",
"436 633 LINE"
);
}
);
width = 538;
},
{
layerId = "3AF73D1F-32CE-4CF3-BC01-E4A23F7DE30A";
paths = (
{
closed = 1;
nodes = (
"498 593 LINE",
"498 700 LINE",
"274 700 LINE SMOOTH",
"110 700 OFFCURVE",
"28 583 OFFCURVE",
"28 466 CURVE SMOOTH",
"28 353 OFFCURVE",
"104 239 OFFCURVE",
"242 229 CURVE",
"242 0 LINE",
"312 0 LINE",
"312 593 LINE",
"351 593 LINE",
"351 0 LINE",
"441 0 LINE",
"441 593 LINE"
);
}
);
width = 538;
}
);
unicode = 00B6;
},
{
glyphname = parenleft;
lastChange = "2016-08-23 12:44:07 +0000";
layers = (
{
layerId = UUID0;
paths = (
{
closed = 1;
nodes = (
"214 -136 LINE",
"157 -24 OFFCURVE",
"111 116 OFFCURVE",
"111 307 CURVE SMOOTH",
"111 498 OFFCURVE",
"157 638 OFFCURVE",
"214 750 CURVE",
"133 750 LINE",
"76 642 OFFCURVE",
"39 518 OFFCURVE",
"39 307 CURVE SMOOTH",
"39 96 OFFCURVE",
"76 -28 OFFCURVE",
"133 -136 CURVE"
);
}
);
width = 245;
},
{
layerId = "3AF73D1F-32CE-4CF3-BC01-E4A23F7DE30A";
paths = (
{
closed = 1;
nodes = (
"230 -136 LINE",
"179 -27 OFFCURVE",
"137 111 OFFCURVE",
"137 307 CURVE SMOOTH",
"137 503 OFFCURVE",
"179 641 OFFCURVE",
"230 750 CURVE",
"120 750 LINE",
"70 641 OFFCURVE",
"39 518 OFFCURVE",
"39 307 CURVE SMOOTH",
"39 96 OFFCURVE",
"70 -27 OFFCURVE",
"120 -136 CURVE"
);
}
);
width = 244;
}
);
unicode = 0028;
},
{
glyphname = parenright;
lastChange = "2016-08-23 12:44:07 +0000";
layers = (
{
layerId = UUID0;
paths = (
{
closed = 1;
nodes = (
"111 -136 LINE",
"169 -28 OFFCURVE",
"206 96 OFFCURVE",
"206 307 CURVE SMOOTH",
"206 518 OFFCURVE",
"169 642 OFFCURVE",
"111 750 CURVE",
"31 750 LINE",
"88 638 OFFCURVE",
"133 498 OFFCURVE",
"133 307 CURVE SMOOTH",
"133 116 OFFCURVE",
"88 -24 OFFCURVE",
"31 -136 CURVE"
);
}
);
width = 245;
},
{
layerId = "3AF73D1F-32CE-4CF3-BC01-E4A23F7DE30A";
paths = (
{
closed = 1;
nodes = (
"124 -136 LINE",
"174 -27 OFFCURVE",
"205 96 OFFCURVE",
"205 307 CURVE SMOOTH",
"205 518 OFFCURVE",
"174 641 OFFCURVE",
"124 750 CURVE",
"14 750 LINE",
"65 641 OFFCURVE",
"107 503 OFFCURVE",
"107 307 CURVE SMOOTH",
"107 111 OFFCURVE",
"65 -27 OFFCURVE",
"14 -136 CURVE"
);
}
);
width = 244;
}
);
unicode = 0029;
},
{
glyphname = percent;
lastChange = "2016-08-23 12:44:07 +0000";
layers = (
{
background = {
paths = (
{
closed = 1;
nodes = (
"746 -13 OFFCURVE",
"809 57 OFFCURVE",
"809 179 CURVE SMOOTH",
"809 295 OFFCURVE",
"745 362 OFFCURVE",
"661 362 CURVE SMOOTH",
"579 362 OFFCURVE",
"508 292 OFFCURVE",
"508 171 CURVE SMOOTH",
"508 54 OFFCURVE",
"569 -13 OFFCURVE",
"656 -13 CURVE SMOOTH"
);
},
{
closed = 1;
nodes = (
"660 700 LINE",
"586 700 LINE",
"165 -12 LINE",
"240 -12 LINE"
);
},
{
closed = 1;
nodes = (
"271 333 OFFCURVE",
"335 401 OFFCURVE",
"335 524 CURVE SMOOTH",
"335 641 OFFCURVE",
"271 705 OFFCURVE",
"189 705 CURVE SMOOTH",
"108 705 OFFCURVE",
"38 637 OFFCURVE",
"38 515 CURVE SMOOTH",
"38 398 OFFCURVE",
"99 333 OFFCURVE",
"184 333 CURVE SMOOTH"
);
},
{
closed = 1;
nodes = (
"712 315 OFFCURVE",
"754 264 OFFCURVE",
"754 179 CURVE SMOOTH",
"754 88 OFFCURVE",
"716 36 OFFCURVE",
"654 36 CURVE SMOOTH",
"596 36 OFFCURVE",
"558 85 OFFCURVE",
"558 171 CURVE SMOOTH",
"558 261 OFFCURVE",
"602 315 OFFCURVE",
"657 315 CURVE SMOOTH"
);
},
{
closed = 1;
nodes = (
"236 654 OFFCURVE",
"280 602 OFFCURVE",
"280 524 CURVE SMOOTH",
"280 439 OFFCURVE",
"238 385 OFFCURVE",
"185 385 CURVE SMOOTH",
"136 385 OFFCURVE",
"94 436 OFFCURVE",
"94 515 CURVE SMOOTH",
"94 599 OFFCURVE",
"137 654 OFFCURVE",
"188 654 CURVE SMOOTH"
);
}
);
};
layerId = UUID0;
paths = (
{
closed = 1;
nodes = (
"572 700 LINE",
"498 700 LINE",
"135 -12 LINE",
"210 -12 LINE"
);
},
{
closed = 1;
nodes = (
"158 333 LINE",
"235 333 OFFCURVE",
"289 401 OFFCURVE",
"289 524 CURVE SMOOTH",
"289 641 OFFCURVE",
"235 705 OFFCURVE",
"162 705 CURVE SMOOTH",
"90 705 OFFCURVE",
"31 637 OFFCURVE",
"31 515 CURVE SMOOTH",
"31 398 OFFCURVE",
"83 333 OFFCURVE",
"158 333 CURVE SMOOTH"
);
},
{
closed = 1;
nodes = (
"161 654 LINE",
"199 654 OFFCURVE",
"233 602 OFFCURVE",
"233 524 CURVE SMOOTH",
"233 439 OFFCURVE",
"201 385 OFFCURVE",
"159 385 CURVE SMOOTH",
"120 385 OFFCURVE",
"88 436 OFFCURVE",
"88 515 CURVE SMOOTH",
"88 599 OFFCURVE",
"123 654 OFFCURVE",
"161 654 CURVE SMOOTH"
);
},
{
closed = 1;
nodes = (
"564 -14 LINE SMOOTH",
"641 -14 OFFCURVE",
"695 54 OFFCURVE",
"695 177 CURVE SMOOTH",
"695 294 OFFCURVE",
"640 358 OFFCURVE",
"568 358 CURVE SMOOTH",
"496 358 OFFCURVE",
"437 290 OFFCURVE",
"437 168 CURVE SMOOTH",
"437 51 OFFCURVE",
"489 -14 OFFCURVE",
"564 -14 CURVE SMOOTH"
);
},
{
closed = 1;
nodes = (
"567 307 LINE SMOOTH",
"604 307 OFFCURVE",
"639 255 OFFCURVE",
"639 177 CURVE SMOOTH",
"639 92 OFFCURVE",
"607 38 OFFCURVE",
"565 38 CURVE SMOOTH",
"526 38 OFFCURVE",
"493 89 OFFCURVE",
"493 168 CURVE SMOOTH",
"493 252 OFFCURVE",
"528 307 OFFCURVE",
"567 307 CURVE SMOOTH"
);
}
);
width = 724;
},
{
background = {
paths = (
{
closed = 1;
nodes = (
"747 -9 OFFCURVE",
"809 65 OFFCURVE",
"809 180 CURVE SMOOTH",
"809 290 OFFCURVE",
"746 360 OFFCURVE",
"659 360 CURVE SMOOTH",
"572 360 OFFCURVE",
"504 287 OFFCURVE",
"504 172 CURVE SMOOTH",
"504 62 OFFCURVE",
"564 -9 OFFCURVE",
"654 -9 CURVE SMOOTH"
);
},
{
closed = 1;
nodes = (
"673 700 LINE",
"569 700 LINE",
"147 -12 LINE",
"251 -12 LINE"
);
},
{
closed = 1;
nodes = (
"277 335 OFFCURVE",
"339 409 OFFCURVE",
"339 524 CURVE SMOOTH",
"339 634 OFFCURVE",
"276 704 OFFCURVE",
"189 704 CURVE SMOOTH",
"102 704 OFFCURVE",
"34 631 OFFCURVE",
"34 516 CURVE SMOOTH",
"34 406 OFFCURVE",
"94 335 OFFCURVE",
"184 335 CURVE SMOOTH"
);
},
{
closed = 1;
nodes = (
"695 288 OFFCURVE",
"730 256 OFFCURVE",
"730 180 CURVE SMOOTH",
"730 97 OFFCURVE",
"698 65 OFFCURVE",
"655 65 CURVE SMOOTH",
"615 65 OFFCURVE",
"584 95 OFFCURVE",
"584 172 CURVE SMOOTH",
"584 254 OFFCURVE",
"621 288 OFFCURVE",
"658 288 CURVE SMOOTH"
);
},
{
closed = 1;
nodes = (
"225 632 OFFCURVE",
"260 600 OFFCURVE",
"260 524 CURVE SMOOTH",
"260 441 OFFCURVE",
"228 409 OFFCURVE",
"185 409 CURVE SMOOTH",
"145 409 OFFCURVE",
"114 439 OFFCURVE",
"114 516 CURVE SMOOTH",
"114 598 OFFCURVE",
"151 632 OFFCURVE",
"188 632 CURVE SMOOTH"
);
}
);
};
layerId = "3AF73D1F-32CE-4CF3-BC01-E4A23F7DE30A";
paths = (
{
closed = 1;
nodes = (
"584 700 LINE",
"483 700 LINE",
"120 -12 LINE",
"220 -12 LINE"
);
},
{
closed = 1;
nodes = (
"158 335 LINE",
"241 335 OFFCURVE",
"293 409 OFFCURVE",
"293 524 CURVE SMOOTH",
"293 634 OFFCURVE",
"239 704 OFFCURVE",
"163 704 CURVE SMOOTH",
"86 704 OFFCURVE",
"28 631 OFFCURVE",
"28 516 CURVE SMOOTH",
"28 406 OFFCURVE",
"79 335 OFFCURVE",
"158 335 CURVE SMOOTH"
);
},
{
closed = 1;
nodes = (
"162 632 LINE",
"190 632 OFFCURVE",
"216 600 OFFCURVE",
"216 524 CURVE SMOOTH",
"216 441 OFFCURVE",
"193 409 OFFCURVE",
"159 409 CURVE SMOOTH",
"128 409 OFFCURVE",
"106 439 OFFCURVE",
"106 516 CURVE SMOOTH",
"106 598 OFFCURVE",
"135 632 OFFCURVE",
"162 632 CURVE SMOOTH"
);
},
{
closed = 1;
nodes = (
"562 -9 LINE SMOOTH",
"644 -9 OFFCURVE",
"696 65 OFFCURVE",
"696 180 CURVE SMOOTH",
"696 290 OFFCURVE",
"643 360 OFFCURVE",
"566 360 CURVE SMOOTH",
"489 360 OFFCURVE",
"431 287 OFFCURVE",
"431 172 CURVE SMOOTH",
"431 62 OFFCURVE",
"482 -9 OFFCURVE",
"562 -9 CURVE SMOOTH"
);
},
{
closed = 1;
nodes = (
"565 288 LINE SMOOTH",
"593 288 OFFCURVE",
"620 256 OFFCURVE",
"620 180 CURVE SMOOTH",
"620 97 OFFCURVE",
"596 65 OFFCURVE",
"562 65 CURVE SMOOTH",
"531 65 OFFCURVE",
"509 95 OFFCURVE",
"509 172 CURVE SMOOTH",
"509 254 OFFCURVE",
"538 288 OFFCURVE",
"565 288 CURVE SMOOTH"
);
}
);
width = 724;
}
);
unicode = 0025;
},
{
glyphname = period;
lastChange = "2016-08-23 12:44:07 +0000";
layers = (
{
layerId = UUID0;
paths = (
{
closed = 1;
nodes = (
"148 0 LINE",
"148 86 LINE",
"58 86 LINE",
"58 0 LINE"
);
}
);
width = 203;
},
{
layerId = "3AF73D1F-32CE-4CF3-BC01-E4A23F7DE30A";
paths = (
{
closed = 1;
nodes = (
"160 0 LINE",
"160 130 LINE",
"41 130 LINE",
"41 0 LINE"
);
}
);
width = 203;
}
);
leftKerningGroup = period;
unicode = 002E;
},
{
glyphname = periodcentered;
lastChange = "2016-08-23 12:44:07 +0000";
layers = (
{
layerId = UUID0;
paths = (
{
closed = 1;
nodes = (
"162 213 LINE",
"162 343 LINE",
"55 343 LINE",
"55 213 LINE"
);
}
);
width = 217;
},
{
layerId = "3AF73D1F-32CE-4CF3-BC01-E4A23F7DE30A";
paths = (
{
closed = 1;
nodes = (
"162 213 LINE",
"162 343 LINE",
"55 343 LINE",
"55 213 LINE"
);
}
);
width = 217;
}
);
unicode = 00B7;
},
{
glyphname = perthousand;
lastChange = "2016-08-23 12:44:07 +0000";
layers = (
{
background = {
paths = (
{
closed = 1;
nodes = (
"746 -13 OFFCURVE",
"809 57 OFFCURVE",
"809 179 CURVE SMOOTH",
"809 295 OFFCURVE",
"745 362 OFFCURVE",
"661 362 CURVE SMOOTH",
"579 362 OFFCURVE",
"508 292 OFFCURVE",
"508 171 CURVE SMOOTH",
"508 54 OFFCURVE",
"569 -13 OFFCURVE",
"656 -13 CURVE SMOOTH"
);
},
{
closed = 1;
nodes = (
"660 700 LINE",
"586 700 LINE",
"165 -12 LINE",
"240 -12 LINE"
);
},
{
closed = 1;
nodes = (
"271 333 OFFCURVE",
"335 401 OFFCURVE",
"335 524 CURVE SMOOTH",
"335 641 OFFCURVE",
"271 705 OFFCURVE",
"189 705 CURVE SMOOTH",
"108 705 OFFCURVE",
"38 637 OFFCURVE",
"38 515 CURVE SMOOTH",
"38 398 OFFCURVE",
"99 333 OFFCURVE",
"184 333 CURVE SMOOTH"
);
},
{
closed = 1;
nodes = (
"712 315 OFFCURVE",
"754 264 OFFCURVE",
"754 179 CURVE SMOOTH",
"754 88 OFFCURVE",
"716 36 OFFCURVE",
"654 36 CURVE SMOOTH",
"596 36 OFFCURVE",
"558 85 OFFCURVE",
"558 171 CURVE SMOOTH",
"558 261 OFFCURVE",
"602 315 OFFCURVE",
"657 315 CURVE SMOOTH"
);
},
{
closed = 1;
nodes = (
"236 654 OFFCURVE",
"280 602 OFFCURVE",
"280 524 CURVE SMOOTH",
"280 439 OFFCURVE",
"238 385 OFFCURVE",
"185 385 CURVE SMOOTH",
"136 385 OFFCURVE",
"94 436 OFFCURVE",
"94 515 CURVE SMOOTH",
"94 599 OFFCURVE",
"137 654 OFFCURVE",
"188 654 CURVE SMOOTH"
);
},
{
closed = 1;
nodes = (
"1106 -13 OFFCURVE",
"1169 57 OFFCURVE",
"1169 179 CURVE SMOOTH",
"1169 295 OFFCURVE",
"1105 362 OFFCURVE",
"1021 362 CURVE SMOOTH",
"939 362 OFFCURVE",
"868 292 OFFCURVE",
"868 171 CURVE SMOOTH",
"868 54 OFFCURVE",
"929 -13 OFFCURVE",
"1016 -13 CURVE SMOOTH"
);
},
{
closed = 1;
nodes = (
"1072 315 OFFCURVE",
"1114 264 OFFCURVE",
"1114 179 CURVE SMOOTH",
"1114 88 OFFCURVE",
"1076 36 OFFCURVE",
"1014 36 CURVE SMOOTH",
"956 36 OFFCURVE",
"918 85 OFFCURVE",
"918 171 CURVE SMOOTH",
"918 261 OFFCURVE",
"962 315 OFFCURVE",
"1017 315 CURVE SMOOTH"
);
}
);
};
layerId = UUID0;
paths = (
{
closed = 1;
nodes = (
"572 700 LINE",
"498 700 LINE",
"135 -12 LINE",
"210 -12 LINE"
);
},
{
closed = 1;
nodes = (
"158 333 LINE",
"235 333 OFFCURVE",
"289 401 OFFCURVE",
"289 524 CURVE SMOOTH",
"289 641 OFFCURVE",
"235 705 OFFCURVE",
"162 705 CURVE SMOOTH",
"90 705 OFFCURVE",
"31 637 OFFCURVE",
"31 515 CURVE SMOOTH",
"31 398 OFFCURVE",
"83 333 OFFCURVE",
"158 333 CURVE SMOOTH"
);
},
{
closed = 1;
nodes = (
"161 654 LINE",
"199 654 OFFCURVE",
"233 602 OFFCURVE",
"233 524 CURVE SMOOTH",
"233 439 OFFCURVE",
"201 385 OFFCURVE",
"159 385 CURVE SMOOTH",
"120 385 OFFCURVE",
"88 436 OFFCURVE",
"88 515 CURVE SMOOTH",
"88 599 OFFCURVE",
"123 654 OFFCURVE",
"161 654 CURVE SMOOTH"
);
},
{
closed = 1;
nodes = (
"564 -14 LINE SMOOTH",
"641 -14 OFFCURVE",
"695 54 OFFCURVE",
"695 177 CURVE SMOOTH",
"695 294 OFFCURVE",
"640 358 OFFCURVE",
"568 358 CURVE SMOOTH",
"496 358 OFFCURVE",
"437 290 OFFCURVE",
"437 168 CURVE SMOOTH",
"437 51 OFFCURVE",
"489 -14 OFFCURVE",
"564 -14 CURVE SMOOTH"
);
},
{
closed = 1;
nodes = (
"567 307 LINE SMOOTH",
"604 307 OFFCURVE",
"639 255 OFFCURVE",
"639 177 CURVE SMOOTH",
"639 92 OFFCURVE",
"607 38 OFFCURVE",
"565 38 CURVE SMOOTH",
"526 38 OFFCURVE",
"493 89 OFFCURVE",
"493 168 CURVE SMOOTH",
"493 252 OFFCURVE",
"528 307 OFFCURVE",
"567 307 CURVE SMOOTH"
);
},
{
closed = 1;
nodes = (
"873 -14 LINE SMOOTH",
"950 -14 OFFCURVE",
"1004 54 OFFCURVE",
"1004 177 CURVE SMOOTH",
"1004 294 OFFCURVE",
"949 358 OFFCURVE",
"877 358 CURVE SMOOTH",
"805 358 OFFCURVE",
"746 290 OFFCURVE",
"746 168 CURVE SMOOTH",
"746 51 OFFCURVE",
"798 -14 OFFCURVE",
"873 -14 CURVE SMOOTH"
);
},
{
closed = 1;
nodes = (
"876 307 LINE SMOOTH",
"914 307 OFFCURVE",
"948 255 OFFCURVE",
"948 177 CURVE SMOOTH",
"948 92 OFFCURVE",
"916 38 OFFCURVE",
"874 38 CURVE SMOOTH",
"835 38 OFFCURVE",
"803 89 OFFCURVE",
"803 168 CURVE SMOOTH",
"803 252 OFFCURVE",
"837 307 OFFCURVE",
"876 307 CURVE SMOOTH"
);
}
);
width = 911;
},
{
background = {
paths = (
{
closed = 1;
nodes = (
"747 -9 OFFCURVE",
"809 65 OFFCURVE",
"809 180 CURVE SMOOTH",
"809 290 OFFCURVE",
"746 360 OFFCURVE",
"659 360 CURVE SMOOTH",
"572 360 OFFCURVE",
"504 287 OFFCURVE",
"504 172 CURVE SMOOTH",
"504 62 OFFCURVE",
"564 -9 OFFCURVE",
"654 -9 CURVE SMOOTH"
);
},
{
closed = 1;
nodes = (
"673 700 LINE",
"569 700 LINE",
"147 -12 LINE",
"251 -12 LINE"
);
},
{
closed = 1;
nodes = (
"277 335 OFFCURVE",
"339 409 OFFCURVE",
"339 524 CURVE SMOOTH",
"339 634 OFFCURVE",
"276 704 OFFCURVE",
"189 704 CURVE SMOOTH",
"102 704 OFFCURVE",
"34 631 OFFCURVE",
"34 516 CURVE SMOOTH",
"34 406 OFFCURVE",
"94 335 OFFCURVE",
"184 335 CURVE SMOOTH"
);
},
{
closed = 1;
nodes = (
"695 288 OFFCURVE",
"730 256 OFFCURVE",
"730 180 CURVE SMOOTH",
"730 97 OFFCURVE",
"698 65 OFFCURVE",
"655 65 CURVE SMOOTH",
"615 65 OFFCURVE",
"584 95 OFFCURVE",
"584 172 CURVE SMOOTH",
"584 254 OFFCURVE",
"621 288 OFFCURVE",
"658 288 CURVE SMOOTH"
);
},
{
closed = 1;
nodes = (
"225 632 OFFCURVE",
"260 600 OFFCURVE",
"260 524 CURVE SMOOTH",
"260 441 OFFCURVE",
"228 409 OFFCURVE",
"185 409 CURVE SMOOTH",
"145 409 OFFCURVE",
"114 439 OFFCURVE",
"114 516 CURVE SMOOTH",
"114 598 OFFCURVE",
"151 632 OFFCURVE",
"188 632 CURVE SMOOTH"
);
},
{
closed = 1;
nodes = (
"1108 -9 OFFCURVE",
"1170 65 OFFCURVE",
"1170 180 CURVE SMOOTH",
"1170 290 OFFCURVE",
"1107 360 OFFCURVE",
"1020 360 CURVE SMOOTH",
"933 360 OFFCURVE",
"865 287 OFFCURVE",
"865 172 CURVE SMOOTH",
"865 62 OFFCURVE",
"925 -9 OFFCURVE",
"1015 -9 CURVE SMOOTH"
);
},
{
closed = 1;
nodes = (
"1056 288 OFFCURVE",
"1091 256 OFFCURVE",
"1091 180 CURVE SMOOTH",
"1091 97 OFFCURVE",
"1059 65 OFFCURVE",
"1016 65 CURVE SMOOTH",
"976 65 OFFCURVE",
"945 95 OFFCURVE",
"945 172 CURVE SMOOTH",
"945 254 OFFCURVE",
"982 288 OFFCURVE",
"1019 288 CURVE SMOOTH"
);
}
);
};
layerId = "3AF73D1F-32CE-4CF3-BC01-E4A23F7DE30A";
paths = (
{
closed = 1;
nodes = (
"584 700 LINE",
"483 700 LINE",
"120 -12 LINE",
"220 -12 LINE"
);
},
{
closed = 1;
nodes = (
"158 335 LINE",
"241 335 OFFCURVE",
"293 409 OFFCURVE",
"293 524 CURVE SMOOTH",
"293 634 OFFCURVE",
"239 704 OFFCURVE",
"163 704 CURVE SMOOTH",
"86 704 OFFCURVE",
"28 631 OFFCURVE",
"28 516 CURVE SMOOTH",
"28 406 OFFCURVE",
"79 335 OFFCURVE",
"158 335 CURVE SMOOTH"
);
},
{
closed = 1;
nodes = (
"162 632 LINE",
"190 632 OFFCURVE",
"216 600 OFFCURVE",
"216 524 CURVE SMOOTH",
"216 441 OFFCURVE",
"193 409 OFFCURVE",
"159 409 CURVE SMOOTH",
"128 409 OFFCURVE",
"106 439 OFFCURVE",
"106 516 CURVE SMOOTH",
"106 598 OFFCURVE",
"135 632 OFFCURVE",
"162 632 CURVE SMOOTH"
);
},
{
closed = 1;
nodes = (
"562 -9 LINE SMOOTH",
"644 -9 OFFCURVE",
"696 65 OFFCURVE",
"696 180 CURVE SMOOTH",
"696 290 OFFCURVE",
"643 360 OFFCURVE",
"566 360 CURVE SMOOTH",
"489 360 OFFCURVE",
"431 287 OFFCURVE",
"431 172 CURVE SMOOTH",
"431 62 OFFCURVE",
"482 -9 OFFCURVE",
"562 -9 CURVE SMOOTH"
);
},
{
closed = 1;
nodes = (
"565 288 LINE SMOOTH",
"593 288 OFFCURVE",
"620 256 OFFCURVE",
"620 180 CURVE SMOOTH",
"620 97 OFFCURVE",
"596 65 OFFCURVE",
"562 65 CURVE SMOOTH",
"531 65 OFFCURVE",
"509 95 OFFCURVE",
"509 172 CURVE SMOOTH",
"509 254 OFFCURVE",
"538 288 OFFCURVE",
"565 288 CURVE SMOOTH"
);
},
{
closed = 1;
nodes = (
"872 -9 LINE SMOOTH",
"954 -9 OFFCURVE",
"1006 65 OFFCURVE",
"1006 180 CURVE SMOOTH",
"1006 290 OFFCURVE",
"953 360 OFFCURVE",
"876 360 CURVE SMOOTH",
"799 360 OFFCURVE",
"741 287 OFFCURVE",
"741 172 CURVE SMOOTH",
"741 62 OFFCURVE",
"792 -9 OFFCURVE",
"872 -9 CURVE SMOOTH"
);
},
{
closed = 1;
nodes = (
"875 288 LINE SMOOTH",
"903 288 OFFCURVE",
"929 256 OFFCURVE",
"929 180 CURVE SMOOTH",
"929 97 OFFCURVE",
"906 65 OFFCURVE",
"872 65 CURVE SMOOTH",
"841 65 OFFCURVE",
"819 95 OFFCURVE",
"819 172 CURVE SMOOTH",
"819 254 OFFCURVE",
"848 288 OFFCURVE",
"875 288 CURVE SMOOTH"
);
}
);
width = 585;
}
);
unicode = 2030;
},
{
glyphname = plus;
lastChange = "2016-08-23 12:44:07 +0000";
layers = (
{
layerId = UUID0;
paths = (
{
closed = 1;
nodes = (
"353 238 LINE",
"353 324 LINE",
"231 324 LINE",
"231 452 LINE",
"157 452 LINE",
"157 324 LINE",
"35 324 LINE",
"35 238 LINE",
"157 238 LINE",
"157 102 LINE",
"231 102 LINE",
"231 238 LINE"
);
}
);
width = 388;
},
{
layerId = "3AF73D1F-32CE-4CF3-BC01-E4A23F7DE30A";
paths = (
{
closed = 1;
nodes = (
"353 230 LINE",
"353 324 LINE",
"237 324 LINE",
"237 452 LINE",
"151 452 LINE",
"151 324 LINE",
"35 324 LINE",
"35 230 LINE",
"151 230 LINE",
"151 102 LINE",
"237 102 LINE",
"237 230 LINE"
);
}
);
width = 388;
}
);
unicode = 002B;
},
{
glyphname = plusminus;
lastChange = "2016-08-23 12:44:07 +0000";
layers = (
{
layerId = UUID0;
paths = (
{
closed = 1;
nodes = (
"359 327 LINE",
"359 394 LINE",
"233 394 LINE",
"233 532 LINE",
"167 532 LINE",
"167 394 LINE",
"41 394 LINE",
"41 327 LINE",
"167 327 LINE",
"167 183 LINE",
"233 183 LINE",
"233 327 LINE"
);
},
{
closed = 1;
nodes = (
"359 42 LINE",
"359 109 LINE",
"41 109 LINE",
"41 42 LINE"
);
}
);
width = 400;
},
{
layerId = "3AF73D1F-32CE-4CF3-BC01-E4A23F7DE30A";
paths = (
{
closed = 1;
nodes = (
"359 310 LINE",
"359 404 LINE",
"246 404 LINE",
"246 532 LINE",
"154 532 LINE",
"154 404 LINE",
"41 404 LINE",
"41 310 LINE",
"154 310 LINE",
"154 182 LINE",
"246 182 LINE",
"246 310 LINE"
);
},
{
closed = 1;
nodes = (
"359 30 LINE",
"359 124 LINE",
"41 124 LINE",
"41 30 LINE"
);
}
);
width = 400;
}
);
unicode = 00B1;
},
{
glyphname = q;
lastChange = "2016-08-23 12:44:07 +0000";
layers = (
{
layerId = UUID0;
paths = (
{
closed = 1;
nodes = (
"254 -10 LINE",
"124 -10 OFFCURVE",
"56 102 OFFCURVE",
"56 245 CURVE SMOOTH",
"56 379 OFFCURVE",
"127 500 OFFCURVE",
"253 500 CURVE SMOOTH",
"313 500 OFFCURVE",
"347 471 OFFCURVE",
"380 420 CURVE",
"389 490 LINE",
"462 490 LINE",
"462 -242 LINE",
"373 -242 LINE",
"373 62 LINE",
"342 14 OFFCURVE",
"294 -10 OFFCURVE",
"254 -10 CURVE"
);
},
{
closed = 1;
nodes = (
"262 420 LINE",
"190 420 OFFCURVE",
"148 345 OFFCURVE",
"148 245 CURVE SMOOTH",
"148 149 OFFCURVE",
"190 70 OFFCURVE",
"262 70 CURVE SMOOTH",
"326 70 OFFCURVE",
"377 122 OFFCURVE",
"377 245 CURVE SMOOTH",
"377 363 OFFCURVE",
"326 420 OFFCURVE",
"262 420 CURVE"
);
}
);
width = 491;
},
{
layerId = "3AF73D1F-32CE-4CF3-BC01-E4A23F7DE30A";
paths = (
{
closed = 1;
nodes = (
"265 -10 LINE",
"122 -10 OFFCURVE",
"45 109 OFFCURVE",
"45 249 CURVE SMOOTH",
"45 389 OFFCURVE",
"120 508 OFFCURVE",
"266 508 CURVE SMOOTH",
"304 508 OFFCURVE",
"330 494 OFFCURVE",
"356 471 CURVE",
"365 500 LINE",
"472 500 LINE",
"472 -242 LINE",
"352 -242 LINE",
"352 24 LINE",
"325 2 OFFCURVE",
"313 -10 OFFCURVE",
"265 -10 CURVE"
);
},
{
closed = 1;
nodes = (
"271 406 LINE",
"205 406 OFFCURVE",
"167 342 OFFCURVE",
"167 249 CURVE SMOOTH",
"167 156 OFFCURVE",
"205 92 OFFCURVE",
"271 92 CURVE SMOOTH",
"343 92 OFFCURVE",
"358 156 OFFCURVE",
"358 249 CURVE SMOOTH",
"358 342 OFFCURVE",
"343 406 OFFCURVE",
"271 406 CURVE"
);
}
);
width = 492;
}
);
leftKerningGroup = o;
rightKerningGroup = u;
unicode = 0071;
},
{
glyphname = question;
lastChange = "2016-08-23 12:44:07 +0000";
layers = (
{
layerId = UUID0;
paths = (
{
closed = 1;
nodes = (
"201 200 LINE",
"201 227 LINE SMOOTH",
"201 332 OFFCURVE",
"343 436 OFFCURVE",
"343 563 CURVE SMOOTH",
"343 645 OFFCURVE",
"283 750 OFFCURVE",
"163 750 CURVE SMOOTH",
"104 750 OFFCURVE",
"50 720 OFFCURVE",
"26 683 CURVE",
"49 616 LINE",
"64 641 OFFCURVE",
"105 684 OFFCURVE",
"159 684 CURVE SMOOTH",
"210 684 OFFCURVE",
"259 646 OFFCURVE",
"259 561 CURVE SMOOTH",
"259 433 OFFCURVE",
"139 369 OFFCURVE",
"139 245 CURVE SMOOTH",
"139 242 OFFCURVE",
"140 227 OFFCURVE",
"142 200 CURVE"
);
},
{
closed = 1;
nodes = (
"218 0 LINE",
"218 86 LINE",
"127 86 LINE",
"127 0 LINE"
);
}
);
width = 381;
},
{
layerId = "3AF73D1F-32CE-4CF3-BC01-E4A23F7DE30A";
paths = (
{
closed = 1;
nodes = (
"216 200 LINE",
"216 213 LINE SMOOTH",
"216 357 OFFCURVE",
"343 439 OFFCURVE",
"343 560 CURVE SMOOTH",
"343 640 OFFCURVE",
"288 750 OFFCURVE",
"162 750 CURVE SMOOTH",
"110 750 OFFCURVE",
"56 728 OFFCURVE",
"24 679 CURVE",
"49 587 LINE",
"76 622 OFFCURVE",
"108 652 OFFCURVE",
"153 652 CURVE SMOOTH",
"200 652 OFFCURVE",
"230 623 OFFCURVE",
"230 559 CURVE SMOOTH",
"230 451 OFFCURVE",
"132 378 OFFCURVE",
"132 253 CURVE SMOOTH",
"132 249 OFFCURVE",
"131 245 OFFCURVE",
"134 200 CURVE"
);
},
{
closed = 1;
nodes = (
"234 0 LINE",
"234 124 LINE",
"115 124 LINE",
"115 0 LINE"
);
}
);
width = 381;
}
);
unicode = 003F;
},
{
glyphname = questiondown;
lastChange = "2016-08-23 12:44:07 +0000";
layers = (
{
layerId = UUID0;
paths = (
{
closed = 1;
nodes = (
"167 300 LINE",
"167 273 LINE SMOOTH",
"167 168 OFFCURVE",
"26 64 OFFCURVE",
"26 -63 CURVE SMOOTH",
"26 -145 OFFCURVE",
"86 -250 OFFCURVE",
"206 -250 CURVE SMOOTH",
"265 -250 OFFCURVE",
"319 -220 OFFCURVE",
"343 -183 CURVE",
"320 -116 LINE",
"305 -141 OFFCURVE",
"264 -184 OFFCURVE",
"210 -184 CURVE SMOOTH",
"158 -184 OFFCURVE",
"110 -146 OFFCURVE",
"110 -61 CURVE SMOOTH",
"110 67 OFFCURVE",
"230 131 OFFCURVE",
"230 255 CURVE SMOOTH",
"230 258 OFFCURVE",
"229 273 OFFCURVE",
"227 300 CURVE"
);
},
{
closed = 1;
nodes = (
"151 500 LINE",
"151 414 LINE",
"241 414 LINE",
"241 500 LINE"
);
}
);
width = 381;
},
{
layerId = "3AF73D1F-32CE-4CF3-BC01-E4A23F7DE30A";
paths = (
{
closed = 1;
nodes = (
"151 300 LINE",
"151 287 LINE SMOOTH",
"151 143 OFFCURVE",
"24 61 OFFCURVE",
"24 -60 CURVE SMOOTH",
"24 -140 OFFCURVE",
"80 -250 OFFCURVE",
"205 -250 CURVE SMOOTH",
"257 -250 OFFCURVE",
"312 -228 OFFCURVE",
"343 -179 CURVE",
"318 -87 LINE",
"292 -122 OFFCURVE",
"260 -152 OFFCURVE",
"214 -152 CURVE SMOOTH",
"167 -152 OFFCURVE",
"137 -123 OFFCURVE",
"137 -59 CURVE SMOOTH",
"137 49 OFFCURVE",
"235 122 OFFCURVE",
"235 247 CURVE SMOOTH",
"235 251 OFFCURVE",
"236 255 OFFCURVE",
"233 300 CURVE"
);
},
{
closed = 1;
nodes = (
"133 500 LINE",
"133 376 LINE",
"252 376 LINE",
"252 500 LINE"
);
}
);
width = 381;
}
);
unicode = 00BF;
},
{
glyphname = quotedbl;
lastChange = "2016-08-23 12:44:07 +0000";
layers = (
{
layerId = UUID0;
paths = (
{
closed = 1;
nodes = (
"309 750 LINE",
"218 750 LINE",
"235 450 LINE",
"291 450 LINE"
);
},
{
closed = 1;
nodes = (
"123 750 LINE",
"31 750 LINE",
"48 450 LINE",
"105 450 LINE"
);
}
);
width = 341;
},
{
layerId = "3AF73D1F-32CE-4CF3-BC01-E4A23F7DE30A";
paths = (
{
closed = 1;
nodes = (
"310 750 LINE",
"192 750 LINE",
"209 450 LINE",
"293 450 LINE"
);
},
{
closed = 1;
nodes = (
"149 750 LINE",
"31 750 LINE",
"48 450 LINE",
"132 450 LINE"
);
}
);
width = 340;
}
);
leftKerningGroup = quotesingle;
rightKerningGroup = quotesingle;
unicode = 0022;
},
{
glyphname = quotedblbase;
lastChange = "2016-08-23 12:44:07 +0000";
layers = (
{
layerId = UUID0;
paths = (
{
closed = 1;
nodes = (
"149 0 LINE",
"149 86 LINE",
"55 86 LINE",
"55 0 LINE",
"83 -9 LINE",
"54 -96 LINE",
"75 -109 LINE"
);
},
{
closed = 1;
nodes = (
"347 0 LINE",
"347 86 LINE",
"252 86 LINE",
"252 0 LINE",
"281 -9 LINE",
"252 -96 LINE",
"273 -109 LINE"
);
}
);
width = 391;
},
{
layerId = "3AF73D1F-32CE-4CF3-BC01-E4A23F7DE30A";
paths = (
{
closed = 1;
nodes = (
"159 0 LINE",
"159 130 LINE",
"43 130 LINE",
"43 0 LINE",
"71 -10 LINE",
"43 -96 LINE",
"67 -110 LINE"
);
},
{
closed = 1;
nodes = (
"356 0 LINE",
"356 130 LINE",
"241 130 LINE",
"241 0 LINE",
"269 -10 LINE",
"241 -96 LINE",
"265 -110 LINE"
);
}
);
width = 391;
}
);
leftKerningGroup = quotesinglbase;
rightKerningGroup = quotesinglbase;
unicode = 201E;
},
{
glyphname = quotedblleft;
lastChange = "2016-08-23 12:44:07 +0000";
layers = (
{
layerId = UUID0;
paths = (
{
closed = 1;
nodes = (
"54 641 LINE",
"54 555 LINE",
"149 555 LINE",
"149 641 LINE",
"120 650 LINE",
"149 737 LINE",
"128 750 LINE"
);
},
{
closed = 1;
nodes = (
"235 641 LINE",
"235 555 LINE",
"329 555 LINE",
"329 641 LINE",
"300 650 LINE",
"330 737 LINE",
"309 750 LINE"
);
}
);
width = 385;
},
{
layerId = "3AF73D1F-32CE-4CF3-BC01-E4A23F7DE30A";
paths = (
{
closed = 1;
nodes = (
"44 640 LINE",
"44 510 LINE",
"160 510 LINE",
"160 640 LINE",
"132 650 LINE",
"159 736 LINE",
"136 750 LINE"
);
},
{
closed = 1;
nodes = (
"225 640 LINE",
"225 510 LINE",
"340 510 LINE",
"340 640 LINE",
"312 650 LINE",
"340 736 LINE",
"316 750 LINE"
);
}
);
width = 385;
}
);
leftKerningGroup = quoteleft;
rightKerningGroup = quoteleft;
unicode = 201C;
},
{
glyphname = quotedblright;
lastChange = "2016-08-23 12:44:07 +0000";
layers = (
{
layerId = UUID0;
paths = (
{
closed = 1;
nodes = (
"330 664 LINE",
"330 750 LINE",
"235 750 LINE",
"235 664 LINE",
"264 655 LINE",
"235 568 LINE",
"255 555 LINE"
);
},
{
closed = 1;
nodes = (
"149 664 LINE",
"149 750 LINE",
"55 750 LINE",
"55 664 LINE",
"83 655 LINE",
"54 568 LINE",
"75 555 LINE"
);
}
);
width = 385;
},
{
layerId = "3AF73D1F-32CE-4CF3-BC01-E4A23F7DE30A";
paths = (
{
closed = 1;
nodes = (
"339 620 LINE",
"339 750 LINE",
"224 750 LINE",
"224 620 LINE",
"252 610 LINE",
"224 524 LINE",
"247 510 LINE"
);
},
{
closed = 1;
nodes = (
"159 620 LINE",
"159 750 LINE",
"43 750 LINE",
"43 620 LINE",
"71 610 LINE",
"43 524 LINE",
"67 510 LINE"
);
}
);
width = 384;
}
);
leftKerningGroup = quoteright;
rightKerningGroup = quoteright;
unicode = 201D;
},
{
glyphname = quoteleft;
lastChange = "2016-08-23 12:44:07 +0000";
layers = (
{
layerId = UUID0;
paths = (
{
closed = 1;
nodes = (
"54 641 LINE",
"54 555 LINE",
"149 555 LINE",
"149 641 LINE",
"120 650 LINE",
"149 737 LINE",
"128 750 LINE"
);
}
);
width = 203;
},
{
layerId = "3AF73D1F-32CE-4CF3-BC01-E4A23F7DE30A";
paths = (
{
closed = 1;
nodes = (
"44 640 LINE",
"44 510 LINE",
"160 510 LINE",
"160 640 LINE",
"132 650 LINE",
"159 736 LINE",
"136 750 LINE"
);
}
);
width = 204;
}
);
leftKerningGroup = quoteleft;
rightKerningGroup = quoteleft;
unicode = 2018;
},
{
glyphname = quoteright;
lastChange = "2016-08-23 12:44:07 +0000";
layers = (
{
layerId = UUID0;
paths = (
{
closed = 1;
nodes = (
"149 664 LINE",
"149 750 LINE",
"55 750 LINE",
"55 664 LINE",
"83 655 LINE",
"54 568 LINE",
"75 555 LINE"
);
}
);
width = 203;
},
{
layerId = "3AF73D1F-32CE-4CF3-BC01-E4A23F7DE30A";
paths = (
{
closed = 1;
nodes = (
"159 620 LINE",
"159 750 LINE",
"43 750 LINE",
"43 620 LINE",
"71 610 LINE",
"43 524 LINE",
"67 510 LINE"
);
}
);
width = 203;
}
);
leftKerningGroup = quoteright;
rightKerningGroup = quoteright;
unicode = 2019;
},
{
glyphname = quotesinglbase;
lastChange = "2016-08-23 12:44:07 +0000";
layers = (
{
layerId = UUID0;
paths = (
{
closed = 1;
nodes = (
"149 0 LINE",
"149 86 LINE",
"55 86 LINE",
"55 0 LINE",
"83 -9 LINE",
"54 -96 LINE",
"75 -109 LINE"
);
}
);
width = 203;
},
{
layerId = "3AF73D1F-32CE-4CF3-BC01-E4A23F7DE30A";
paths = (
{
closed = 1;
nodes = (
"159 0 LINE",
"159 130 LINE",
"43 130 LINE",
"43 0 LINE",
"71 -10 LINE",
"43 -96 LINE",
"67 -110 LINE"
);
}
);
width = 203;
}
);
leftKerningGroup = quotesinglbase;
rightKerningGroup = quotesinglbase;
unicode = 201A;
},
{
glyphname = quotesingle;
lastChange = "2016-08-23 12:44:07 +0000";
layers = (
{
layerId = UUID0;
paths = (
{
closed = 1;
nodes = (
"132 750 LINE",
"37 750 LINE",
"53 450 LINE",
"115 450 LINE"
);
}
);
width = 169;
},
{
layerId = "3AF73D1F-32CE-4CF3-BC01-E4A23F7DE30A";
paths = (
{
closed = 1;
nodes = (
"143 750 LINE",
"27 750 LINE",
"45 450 LINE",
"125 450 LINE"
);
}
);
width = 170;
}
);
leftKerningGroup = quotesingle;
rightKerningGroup = quotesingle;
unicode = 0027;
},
{
glyphname = r;
lastChange = "2016-08-23 12:44:07 +0000";
layers = (
{
layerId = UUID0;
paths = (
{
closed = 1;
nodes = (
"289 508 LINE",
"273 508 LINE SMOOTH",
"223 508 OFFCURVE",
"181 476 OFFCURVE",
"142 409 CURVE",
"136 490 LINE",
"57 490 LINE",
"57 0 LINE",
"150 0 LINE",
"150 346 LINE",
"163 377 OFFCURVE",
"203 409 OFFCURVE",
"238 409 CURVE SMOOTH",
"270 409 LINE"
);
}
);
width = 297;
},
{
layerId = "3AF73D1F-32CE-4CF3-BC01-E4A23F7DE30A";
paths = (
{
closed = 1;
nodes = (
"300 508 LINE",
"262 508 LINE SMOOTH",
"214 508 OFFCURVE",
"170 474 OFFCURVE",
"160 447 CURVE",
"160 500 LINE",
"45 500 LINE",
"45 0 LINE",
"162 0 LINE",
"162 341 LINE",
"173 369 OFFCURVE",
"197 391 OFFCURVE",
"233 391 CURVE SMOOTH",
"278 391 LINE"
);
}
);
width = 293;
}
);
leftKerningGroup = n;
unicode = 0072;
},
